SplineFontDB: 3.2
FontName: sachacHand-Regular-V
FullName: sachacHand Regular Variants
FamilyName: sachacHand
Weight: Regular
Copyright: Copyright (c) 2020, Sacha Chua
UComments: "2020-6-9: Created with FontForge (http://fontforge.org)"
Version: 001.000
ItalicAngle: 0
UnderlinePosition: -100
UnderlineWidth: 50
Ascent: 800
Descent: 200
InvalidEm: 0
LayerCount: 2
Layer: 0 0 "Back" 1
Layer: 1 0 "Fore" 0
XUID: [1021 589 -13552871 12410048]
StyleMap: 0x0000
FSType: 0
OS2Version: 0
OS2_WeightWidthSlopeOnly: 0
OS2_UseTypoMetrics: 1
CreationTime: 1591760722
ModificationTime: 1592195978
PfmFamily: 17
TTFWeight: 400
TTFWidth: 5
LineGap: 90
VLineGap: 90
Panose: 2 0 8 3 0 0 0 0 0 0
OS2TypoAscent: 0
OS2TypoAOffset: 1
OS2TypoDescent: 0
OS2TypoDOffset: 1
OS2TypoLinegap: 90
OS2WinAscent: 0
OS2WinAOffset: 1
OS2WinDescent: 0
OS2WinDOffset: 1
HheadAscent: 0
HheadAOffset: 1
HheadDescent: 0
HheadDOffset: 1
OS2SubXSize: 650
OS2SubYSize: 700
OS2SubXOff: 0
OS2SubYOff: 140
OS2SupXSize: 650
OS2SupYSize: 700
OS2SupXOff: 0
OS2SupYOff: 480
OS2StrikeYSize: 49
OS2StrikeYPos: 258
OS2FamilyClass: 2568
OS2Vendor: 'SC83'
Lookup: 1 0 0 "ss02" { "ss02-1"  } []
Lookup: 1 0 0 "ss01" { "ss01-1"  } []
Lookup: 6 0 0 "calt" { "calt-2"  "calt-1"  } ['calt' ('latn' <'dflt' > ) ]
Lookup: 3 0 0 "alt-2" { "alt-2-1"  } ['aalt' ('DFLT' <'dflt' > 'latn' <'dflt' > ) ]
Lookup: 1 0 0 "alt" { "alt-1"  } ['    ' ('DFLT' <'dflt' > 'latn' <'dflt' > ) ]
Lookup: 258 0 0 "kern" { "kern-2"  "kern-1"  } ['kern' ('latn' <'dflt' > ) ]
MarkAttachClasses: 1
DEI: 91125
KernClass2: 18 13 "kern-1"
 1 f
 1 t
 1 i
 1 r
 1 k
 1 l
 1 v
 5 b o p
 3 n m
 1 a
 1 W
 1 T
 1 F
 1 P
 1 g
 9 q d h y j
 13 c e s u w x z
 15 o a c e d g q w
 3 f t
 5 x v z
 7 h b l i
 1 j
 9 m n p r u
 1 k
 1 y
 1 s
 1 T
 1 F
 4 zero

StartChar: H
Encoding: 72 72 0
Width: 430
VWidth: 0
Flags: HW
LayerCount: 2
Back
Fore
SplineSet
110 336 m 1
 110 288 114 240 114 192 c 0
 114 132 116 74 120 14 c 0
 120 -4 112 -22 92 -22 c 0
 62 -20 62 18 60 40 c 0
 52 108 54 174 52 242 c 0
 48 346 50 452 58 556 c 0
 60 582 48 646 78 656 c 0
 110 666 114 628 114 606 c 0
 110 534 110 462 110 390 c 1
 342 384 l 1
 342 456 344 532 340 604 c 0
 340 626 346 660 376 652 c 0
 396 648 396 626 396 610 c 0
 396 574 400 536 400 500 c 0
 400 380 398 258 394 138 c 0
 394 104 390 70 388 36 c 0
 388 22 392 6 384 -6 c 0
 372 -30 338 -18 334 6 c 0
 330 34 336 58 336 86 c 0
 336 118 332 154 336 186 c 0
 340 234 340 280 340 328 c 1
 310 322 274 326 244 328 c 0
 200 330 154 332 110 336 c 1
EndSplineSet
Substitution2: "ss02-1" H.ss02
Substitution2: "ss01-1" H.ss01
EndChar

StartChar: e
Encoding: 101 101 1
Width: 418
VWidth: 0
Flags: HW
LayerCount: 2
Back
Fore
SplineSet
90.1181640625 172 m 5
 94.1181640625 152 98.1181640625 134 110.118164062 118 c 4
 144.118164062 74 234.118164062 46 288.118164062 60 c 4
 316.118164062 68 334.118164062 90 360.118164062 102 c 4
 378.118164062 110 398.118164062 96 398.118164062 76 c 4
 396.118164062 44 342.118164062 16 316.118164062 8 c 4
 234.118164062 -20 110.118164062 16 58.1181640625 88 c 4
 -5.8818359375 178 46.1181640625 330 146.118164062 372 c 4
 192.118164062 392 246.118164062 380 288.118164062 356 c 4
 298.118164062 350 306.118164062 344 314.118164062 336 c 4
 342.118164062 308 392.118164062 236 348.118164062 200 c 4
 332.118164062 186 306.118164062 182 286.118164062 178 c 4
 246.118164062 170 202.118164062 170 162.118164062 168 c 4
 138.118164062 168 112.118164062 164 90.1181640625 172 c 5
100.118164062 228 m 5
 124.118164062 218 152.118164062 222 176.118164062 224 c 4
 218.118164062 228 266.118164062 226 306.118164062 242 c 5
 286.118164062 294 228.118164062 338 172.118164062 316 c 4
 152.118164062 308 132.118164062 288 120.118164062 270 c 4
 112.118164062 258 104.118164062 244 100.118164062 228 c 5
EndSplineSet
Substitution2: "ss02-1" e.ss02
Substitution2: "ss01-1" e.ss01
EndChar

StartChar: n
Encoding: 110 110 2
Width: 405
VWidth: 0
Flags: HW
LayerCount: 2
Back
Fore
SplineSet
30.8232421875 144 m 1024
370.823242188 60 m 1024
312.823242188 20 m 1024
288.823242188 256 m 1024
136.823242188 266 m 1024
90.8232421875 306 m 1
 122.823242188 394 236.823242188 404 298.823242188 346 c 0
 374.823242188 276 382.823242188 156 370.823242188 60 c 0
 366.823242188 36 376.823242188 28 360.823242188 8 c 0
 344.823242188 -10 314.823242188 -4 312.823242188 20 c 0
 308.823242188 50 314.823242188 48 316.823242188 78 c 0
 320.823242188 138 316.823242188 202 288.823242188 256 c 0
 272.823242188 284 250.823242188 322 214.823242188 324 c 0
 178.823242188 328 148.823242188 296 136.823242188 266 c 0
 122.823242188 228 94.8232421875 140 94.8232421875 60 c 0
 94.8232421875 38 100.823242188 4 76.8232421875 0 c 0
 16.8232421875 -8 30.8232421875 62 32.8232421875 88 c 0
 34.8232421875 124 34.8232421875 108 36.8232421875 144 c 0
 38.8232421875 192 36.8232421875 242 34.8232421875 288 c 0
 34.8232421875 312 22.8232421875 358 40.8232421875 376 c 0
 52.8232421875 388 76.8232421875 386 84.8232421875 370 c 0
 92.8232421875 350 84.8232421875 326 90.8232421875 306 c 1
EndSplineSet
Substitution2: "ss02-1" n.ss02
Substitution2: "ss01-1" n.ss01
EndChar

StartChar: A
Encoding: 65 65 3
Width: 528
VWidth: 0
Flags: HW
LayerCount: 2
Back
Fore
SplineSet
414 130 m 1
 386 70 322 18 262 -12 c 0
 234 -26 204 -38 172 -30 c 0
 128 -20 94 18 74 58 c 0
 46 108 40 166 40 222 c 0
 40 326 62 432 124 516 c 0
 148 550 180 580 216 604 c 0
 242 620 270 632 300 640 c 0
 320 644 344 648 364 646 c 0
 464 638 490 538 488 452 c 0
 488 432 482 412 482 392 c 0
 482 368 480 344 478 320 c 0
 476 300 466 276 466 256 c 0
 464 222 464 186 468 154 c 0
 474 118 496 54 540 50 c 0
 560 48 576 66 596 62 c 0
 612 58 622 40 616 24 c 0
 608 6 578 0 562 -4 c 0
 508 -16 460 24 436 70 c 0
 426 90 422 110 414 130 c 1
328 588 m 0
 166 564 88 364 100 216 c 0
 104 162 108 112 140 66 c 0
 154 46 174 24 200 28 c 0
 232 32 262 52 286 72 c 0
 350 120 396 198 408 276 c 0
 416 316 410 358 414 398 c 0
 414 410 418 426 422 438 c 0
 426 446 434 452 434 460 c 0
 438 492 426 558 398 578 c 0
 380 590 348 592 328 588 c 0
EndSplineSet
Substitution2: "ss02-1" A.ss02
Substitution2: "ss01-1" A.ss01
EndChar

StartChar: M
Encoding: 77 77 4
Width: 630
VWidth: 0
Flags: HW
LayerCount: 2
Back
Fore
SplineSet
306.5 400 m 1
 334.5 444 374.5 486 406.5 528 c 0
 434.5 566 466.5 604 500.5 638 c 0
 512.5 650 530.5 672 550.5 664 c 0
 592.5 652 580.5 568 580.5 536 c 0
 580.5 402 576.5 270 580.5 136 c 0
 582.5 88 590.5 40 590.5 -8 c 0
 590.5 -22 580.5 -32 568.5 -36 c 0
 528.5 -44 530.5 24 528.5 48 c 0
 520.5 144 520.5 240 516.5 336 c 0
 512.5 414 520.5 492 520.5 570 c 1
 468.5 510 420.5 446 368.5 382 c 0
 352.5 362 328.5 324 300.5 328 c 0
 274.5 332 256.5 366 244.5 386 c 0
 212.5 434 178.5 486 142.5 532 c 1
 136.5 490 140.5 446 138.5 402 c 0
 134.5 308 130.5 214 130.5 120 c 0
 130.5 88 132.5 54 128.5 22 c 0
 126.5 8 118.5 -4 102.5 -4 c 0
 86.5 -4 72.5 6 72.5 22 c 0
 68.5 62 70.5 102 70.5 142 c 0
 70.5 274 84.5 400 86.5 532 c 0
 86.5 564 82.5 602 90.5 634 c 0
 94.5 646 100.5 654 112.5 656 c 0
 124.5 658 142.5 648 150.5 638 c 0
 158.5 626 162.5 608 170.5 596 c 0
 186.5 568 204.5 544 220.5 518 c 0
 248.5 478 280.5 442 304.5 400 c 1
 306.5 400 l 1
140.5 534 m 1
 142.5 532 l 1
 140.5 534 l 1
EndSplineSet
Substitution2: "ss02-1" M.ss02
Substitution2: "ss01-1" M.ss01
EndChar

StartChar: Y
Encoding: 89 89 5
Width: 449
VWidth: 0
Flags: HW
LayerCount: 2
Back
Fore
SplineSet
344.888671875 404 m 1
 322.888671875 372 302.888671875 342 272.888671875 316 c 0
 258.888671875 304 242.888671875 294 226.888671875 286 c 0
 212.888671875 280 198.888671875 276 182.888671875 276 c 0
 74.888671875 280 44.888671875 412 40.888671875 500 c 0
 38.888671875 538 40.888671875 574 40.888671875 612 c 0
 40.888671875 628 38.888671875 648 50.888671875 660 c 0
 66.888671875 676 94.888671875 662 96.888671875 640 c 0
 98.888671875 614 92.888671875 588 92.888671875 562 c 0
 92.888671875 514 98.888671875 470 108.888671875 424 c 0
 116.888671875 390 138.888671875 346 174.888671875 336 c 0
 204.888671875 328 236.888671875 362 254.888671875 382 c 0
 306.888671875 440 340.888671875 520 352.888671875 596 c 0
 356.888671875 624 370.888671875 690 412.888671875 668 c 0
 430.888671875 660 430.888671875 636 426.888671875 620 c 0
 420.888671875 580 404.888671875 544 404.888671875 504 c 0
 400.888671875 384 424.888671875 268 420.888671875 150 c 0
 418.888671875 96 412.888671875 38 360.888671875 6 c 0
 296.888671875 -34 198.888671875 2 132.888671875 22 c 0
 108.888671875 30 52.888671875 38 68.888671875 74 c 0
 80.888671875 102 116.888671875 88 136.888671875 80 c 0
 180.888671875 66 230.888671875 48 278.888671875 48 c 0
 292.888671875 48 310.888671875 46 322.888671875 52 c 0
 358.888671875 68 360.888671875 112 362.888671875 144 c 0
 366.888671875 232 352.888671875 318 344.888671875 404 c 1
EndSplineSet
Substitution2: "ss02-1" Y.ss02
Substitution2: "ss01-1" Y.ss01
EndChar

StartChar: eight
Encoding: 56 56 6
Width: 371
VWidth: 0
Flags: HW
LayerCount: 2
Back
Fore
SplineSet
197.802734375 298 m 1
 219.802734375 278 237.802734375 250 253.802734375 226 c 0
 293.802734375 166 335.802734375 102 307.802734375 28 c 0
 295.802734375 -4 265.802734375 -14 233.802734375 -16 c 0
 181.802734375 -20 121.802734375 -12 89.802734375 36 c 0
 51.802734375 92 61.802734375 166 85.802734375 226 c 0
 93.802734375 242 99.802734375 260 109.802734375 276 c 0
 113.802734375 282 121.802734375 290 121.802734375 298 c 0
 117.802734375 318 89.802734375 346 79.802734375 364 c 0
 43.802734375 426 13.802734375 498 39.802734375 570 c 0
 69.802734375 652 153.802734375 680 229.802734375 648 c 0
 253.802734375 638 281.802734375 620 291.802734375 596 c 1
 347.802734375 612 345.802734375 548 333.802734375 510 c 0
 317.802734375 452 281.802734375 404 245.802734375 356 c 0
 229.802734375 338 215.802734375 316 197.802734375 300 c 1
 197.802734375 298 l 1
159.802734375 346 m 1
 183.802734375 362 203.802734375 392 219.802734375 416 c 0
 233.802734375 434 257.802734375 458 261.802734375 482 c 0
 263.802734375 490 255.802734375 500 255.802734375 508 c 0
 253.802734375 530 257.802734375 556 241.802734375 574 c 0
 213.802734375 606 155.802734375 616 121.802734375 592 c 0
 97.802734375 576 87.802734375 544 85.802734375 516 c 0
 85.802734375 492 95.802734375 468 103.802734375 446 c 0
 119.802734375 410 139.802734375 380 159.802734375 346 c 1
161.802734375 248 m 1
 129.802734375 200 99.802734375 116 141.802734375 66 c 0
 161.802734375 42 249.802734375 24 257.802734375 64 c 0
 265.802734375 104 231.802734375 150 211.802734375 182 c 0
 197.802734375 204 181.802734375 232 161.802734375 248 c 1
EndSplineSet
Substitution2: "ss02-1" eight.ss02
Substitution2: "ss01-1" eight.ss01
EndChar

StartChar: quotesingle
Encoding: 39 39 7
Width: 130
VWidth: 0
Flags: HW
LayerCount: 2
Back
Fore
SplineSet
48 660 m 0
 68 666 84 650 90 632 c 0
 102 600 102 556 94 524 c 0
 90 508 84 494 68 490 c 0
 54 486 38 494 34 508 c 0
 30 520 38 530 38 542 c 0
 40 560 38 578 38 596 c 0
 38 608 30 620 30 632 c 0
 30 644 36 656 48 660 c 0
EndSplineSet
Substitution2: "ss02-1" quotesingle.ss02
Substitution2: "ss01-1" quotesingle.ss01
EndChar

StartChar: numbersign
Encoding: 35 35 8
Width: 515
VWidth: 0
Flags: HW
LayerCount: 2
Back
Fore
SplineSet
286.51171875 488 m 1
 286.51171875 514 274.51171875 554 284.51171875 578 c 0
 292.51171875 598 320.51171875 600 332.51171875 582 c 0
 340.51171875 566 340.51171875 534 340.51171875 518 c 0
 340.51171875 510 340.51171875 496 344.51171875 492 c 0
 350.51171875 486 366.51171875 490 374.51171875 490 c 0
 394.51171875 490 420.51171875 490 436.51171875 480 c 0
 456.51171875 468 452.51171875 440 432.51171875 432 c 0
 420.51171875 428 408.51171875 432 396.51171875 432 c 0
 380.51171875 434 362.51171875 430 346.51171875 432 c 1
 344.51171875 430 l 1
 354.51171875 394 344.51171875 350 344.51171875 314 c 1
 382.51171875 314 430.51171875 324 466.51171875 312 c 0
 486.51171875 304 492.51171875 276 474.51171875 264 c 0
 462.51171875 256 444.51171875 260 430.51171875 260 c 0
 402.51171875 260 370.51171875 260 342.51171875 252 c 1
 346.51171875 238 346.51171875 208 338.51171875 196 c 0
 330.51171875 180 308.51171875 178 296.51171875 190 c 0
 280.51171875 206 288.51171875 232 284.51171875 252 c 1
 220.51171875 248 l 1
 226.51171875 228 228.51171875 180 200.51171875 176 c 0
 166.51171875 172 160.51171875 222 164.51171875 246 c 1
 138.51171875 246 112.51171875 244 86.51171875 244 c 0
 74.51171875 244 62.51171875 240 52.51171875 248 c 0
 36.51171875 260 40.51171875 286 58.51171875 294 c 0
 86.51171875 306 132.51171875 302 160.51171875 302 c 1
 152.51171875 426 l 1
 128.51171875 418 74.51171875 416 50.51171875 424 c 0
 30.51171875 432 22.51171875 454 38.51171875 470 c 0
 48.51171875 480 64.51171875 476 76.51171875 476 c 0
 100.51171875 476 126.51171875 482 150.51171875 482 c 1
 150.51171875 506 136.51171875 542 148.51171875 562 c 0
 158.51171875 582 184.51171875 584 196.51171875 564 c 0
 206.51171875 544 206.51171875 508 206.51171875 486 c 1
 286.51171875 488 l 1
212.51171875 428 m 1
 210.51171875 426 l 1
 218.51171875 306 l 1
 284.51171875 310 l 1
 286.51171875 430 l 1
 212.51171875 428 l 1
EndSplineSet
Substitution2: "ss02-1" numbersign.ss02
Substitution2: "ss01-1" numbersign.ss01
EndChar

StartChar: less
Encoding: 60 60 9
Width: 355
VWidth: 0
Flags: HW
LayerCount: 2
Back
Fore
SplineSet
96.1171875 318 m 1
 128.1171875 294 160.1171875 274 196.1171875 256 c 0
 216.1171875 246 238.1171875 234 258.1171875 224 c 0
 278.1171875 214 308.1171875 202 320.1171875 182 c 0
 332.1171875 164 318.1171875 140 298.1171875 140 c 0
 276.1171875 140 252.1171875 164 232.1171875 172 c 0
 180.1171875 200 122.1171875 222 74.1171875 258 c 0
 56.1171875 272 32.1171875 292 30.1171875 316 c 0
 28.1171875 340 52.1171875 360 68.1171875 378 c 0
 108.1171875 426 152.1171875 468 192.1171875 516 c 0
 206.1171875 532 224.1171875 566 244.1171875 574 c 0
 264.1171875 582 286.1171875 564 282.1171875 544 c 0
 278.1171875 518 246.1171875 492 230.1171875 472 c 0
 214.1171875 452 196.1171875 432 178.1171875 412 c 0
 150.1171875 380 124.1171875 346 96.1171875 318 c 1
EndSplineSet
Substitution2: "ss02-1" less.ss02
Substitution2: "ss01-1" less.ss01
EndChar

StartChar: O
Encoding: 79 79 10
Width: 471
VWidth: 0
Flags: HW
LayerCount: 2
Back
Fore
SplineSet
167.947265625 594 m 5
 149.947265625 594 121.947265625 592 107.947265625 602 c 4
 83.947265625 618 107.947265625 642 131.947265625 642 c 4
 153.947265625 642 177.947265625 636 199.947265625 638 c 4
 213.947265625 640 225.947265625 650 241.947265625 644 c 4
 253.947265625 640 253.947265625 628 263.947265625 624 c 4
 323.947265625 598 377.947265625 574 413.947265625 520 c 4
 441.947265625 478 453.947265625 430 457.947265625 380 c 4
 467.947265625 268 455.947265625 126 355.947265625 46 c 4
 265.947265625 -28 103.947265625 2 57.947265625 104 c 4
 21.947265625 184 47.947265625 286 67.947265625 368 c 4
 87.947265625 450 127.947265625 520 167.947265625 594 c 5
223.947265625 582 m 4
 215.947265625 578 209.947265625 564 205.947265625 556 c 4
 191.947265625 534 179.947265625 508 167.947265625 484 c 4
 131.947265625 410 109.947265625 336 101.947265625 256 c 4
 97.947265625 218 95.947265625 180 103.947265625 142 c 4
 107.947265625 122 119.947265625 100 135.947265625 86 c 4
 169.947265625 56 247.947265625 44 291.947265625 64 c 4
 329.947265625 80 357.947265625 126 373.947265625 160 c 4
 403.947265625 226 407.947265625 298 401.947265625 368 c 4
 399.947265625 402 395.947265625 436 381.947265625 468 c 4
 361.947265625 514 323.947265625 546 275.947265625 568 c 4
 265.947265625 574 233.947265625 588 223.947265625 582 c 4
EndSplineSet
Substitution2: "ss02-1" O.ss02
Substitution2: "ss01-1" O.ss01
EndChar

StartChar: b
Encoding: 98 98 11
Width: 412
VWidth: 0
Flags: HW
LayerCount: 2
Back
Fore
SplineSet
106.094726562 352 m 1
 134.094726562 366 154.094726562 378 188.094726562 382 c 0
 262.094726562 390 330.094726562 350 354.094726562 296 c 0
 390.094726562 216 376.094726562 66 274.094726562 20 c 0
 222.094726562 -4 148.094726562 10 94.0947265625 20 c 0
 76.0947265625 24 44.0947265625 28 34.0947265625 42 c 0
 22.0947265625 58 40.0947265625 66 42.0947265625 80 c 0
 46.0947265625 152 40.0947265625 214 46.0947265625 290 c 0
 52.0947265625 360 46.0947265625 402 46.0947265625 472 c 0
 46.0947265625 500 44.0947265625 532 40.0947265625 560 c 0
 38.0947265625 572 30.0947265625 590 38.0947265625 602 c 0
 54.0947265625 628 90.0947265625 614 94.0947265625 590 c 0
 104.094726562 530 106.094726562 490 106.094726562 428 c 0
 106.094726562 404 112.094726562 376 106.094726562 352 c 1
200.094726562 334 m 0
 162.094726562 330 128.094726562 300 116.094726562 284 c 0
 96.0947265625 258 98.0947265625 126 104.094726562 86 c 0
 106.094726562 82 104.094726562 72 108.094726562 68 c 0
 114.094726562 64 128.094726562 62 136.094726562 60 c 0
 162.094726562 56 192.094726562 52 218.094726562 54 c 0
 254.094726562 58 278.094726562 80 292.094726562 106 c 0
 316.094726562 150 318.094726562 234 296.094726562 280 c 0
 280.094726562 310 244.094726562 338 200.094726562 334 c 0
EndSplineSet
Substitution2: "ss02-1" b.ss02
Substitution2: "ss01-1" b.ss01
EndChar

StartChar: r
Encoding: 114 114 12
Width: 378
VWidth: 0
Flags: HW
LayerCount: 2
Back
Fore
SplineSet
89.5556640625 324 m 1
 117.555664062 384 213.555664062 388 273.555664062 388 c 4
 297.555664062 388 341.555664062 376 347.555664062 348 c 4
 351.555664062 332 337.555664062 316 321.555664062 316 c 4
 305.555664062 316 291.555664062 330 275.555664062 332 c 4
 233.555664062 338 175.555664062 332 147.555664062 302 c 0
 75.5556640625 226 99.5556640625 120 99.5556640625 28 c 0
 99.5556640625 4 75.5556640625 -14 53.5556640625 0 c 0
 29.5556640625 16 33.5556640625 64 33.5556640625 88 c 0
 33.5556640625 148 33.5556640625 208 33.5556640625 268 c 0
 33.5556640625 296 25.5556640625 334 33.5556640625 362 c 0
 39.5556640625 386 73.5556640625 392 85.5556640625 370 c 0
 93.5556640625 356 85.5556640625 340 89.5556640625 324 c 1
EndSplineSet
Substitution2: "ss02-1" r.ss02
Substitution2: "ss01-1" r.ss01
EndChar

StartChar: B
Encoding: 66 66 13
Width: 399
VWidth: 0
Flags: HW
LayerCount: 2
Back
Fore
SplineSet
84.7880859375 44 m 1
 68.7880859375 92 74.7880859375 152 72.7880859375 204 c 0
 68.7880859375 308 72.7880859375 414 72.7880859375 518 c 0
 72.7880859375 546 76.7880859375 576 74.7880859375 604 c 0
 74.7880859375 612 64.7880859375 616 60.7880859375 624 c 0
 50.7880859375 644 68.7880859375 662 84.7880859375 672 c 0
 196.788085938 740 352.788085938 678 354.788085938 538 c 0
 354.788085938 478 318.788085938 424 278.788085938 384 c 1
 348.788085938 378 394.788085938 318 398.788085938 250 c 0
 402.788085938 170 368.788085938 88 300.788085938 40 c 0
 254.788085938 8 200.788085938 -6 148.788085938 -16 c 0
 136.788085938 -18 130.788085938 -28 116.788085938 -28 c 0
 104.788085938 -28 98.7880859375 -16 86.7880859375 -12 c 0
 66.7880859375 -6 34.7880859375 -6 22.7880859375 14 c 0
 14.7880859375 30 24.7880859375 48 42.7880859375 52 c 0
 56.7880859375 54 72.7880859375 48 84.7880859375 44 c 1
130.788085938 370 m 1
 148.788085938 380 168.788085938 384 186.788085938 392 c 0
 234.788085938 416 288.788085938 466 296.788085938 522 c 0
 308.788085938 592 246.788085938 652 178.788085938 644 c 0
 166.788085938 644 146.788085938 642 134.788085938 634 c 0
 122.788085938 626 128.788085938 584 128.788085938 570 c 0
 128.788085938 526 128.788085938 480 128.788085938 436 c 0
 128.788085938 416 124.788085938 390 130.788085938 370 c 1
128.788085938 304 m 1
 136.788085938 108 l 1
 142.788085938 40 l 1
 210.788085938 56 272.788085938 74 312.788085938 138 c 0
 340.788085938 182 358.788085938 262 316.788085938 304 c 0
 296.788085938 324 258.788085938 332 230.788085938 332 c 0
 194.788085938 332 164.788085938 314 128.788085938 304 c 1
EndSplineSet
Substitution2: "ss02-1" B.ss02
Substitution2: "ss01-1" B.ss01
EndChar

StartChar: N
Encoding: 78 78 14
Width: 507
VWidth: 0
Flags: HW
LayerCount: 2
Back
Fore
SplineSet
132.22265625 524 m 1
 136.22265625 452 136.22265625 376 134.22265625 304 c 0
 134.22265625 256 130.22265625 204 130.22265625 156 c 0
 130.22265625 104 136.22265625 46 126.22265625 -6 c 0
 122.22265625 -30 90.22265625 -40 76.22265625 -18 c 0
 68.22265625 -6 70.22265625 14 70.22265625 26 c 2
 70.22265625 124 l 2
 70.22265625 248 76.22265625 372 76.22265625 496 c 0
 76.22265625 540 78.22265625 580 74.22265625 624 c 0
 74.22265625 640 72.22265625 660 92.22265625 664 c 0
 116.22265625 670 120.22265625 652 130.22265625 636 c 0
 148.22265625 610 162.22265625 584 178.22265625 556 c 0
 224.22265625 472 280.22265625 392 330.22265625 312 c 0
 356.22265625 270 378.22265625 226 402.22265625 182 c 1
 408.22265625 246 400.22265625 314 406.22265625 378 c 0
 410.22265625 420 414.22265625 462 414.22265625 504 c 0
 414.22265625 536 418.22265625 568 418.22265625 600 c 0
 418.22265625 612 410.22265625 628 414.22265625 640 c 0
 422.22265625 664 454.22265625 664 466.22265625 644 c 0
 486.22265625 608 472.22265625 550 472.22265625 510 c 0
 472.22265625 394 460.22265625 276 462.22265625 160 c 0
 462.22265625 120 470.22265625 80 462.22265625 42 c 0
 458.22265625 24 452.22265625 6 432.22265625 4 c 0
 396.22265625 0 386.22265625 54 378.22265625 78 c 0
 346.22265625 166 298.22265625 246 250.22265625 326 c 0
 222.22265625 370 192.22265625 416 166.22265625 462 c 0
 154.22265625 482 142.22265625 502 134.22265625 524 c 1
 132.22265625 524 l 1
402.22265625 182 m 1
 404.22265625 180 l 1
 402.22265625 182 l 1
EndSplineSet
Substitution2: "ss02-1" N.ss02
Substitution2: "ss01-1" N.ss01
EndChar

StartChar: Z
Encoding: 90 90 15
Width: 452
VWidth: 0
Flags: HW
LayerCount: 2
Back
Fore
SplineSet
382.194335938 612 m 1
 338.194335938 614 296.194335938 616 252.194335938 620 c 0
 224.194335938 622 196.194335938 624 168.194335938 628 c 0
 140.194335938 632 98.1943359375 630 76.1943359375 646 c 0
 60.1943359375 658 60.1943359375 688 82.1943359375 696 c 0
 94.1943359375 700 104.194335938 696 116.194335938 692 c 0
 132.194335938 688 150.194335938 686 166.194335938 684 c 0
 238.194335938 676 314.194335938 676 386.194335938 668 c 0
 410.194335938 664 456.194335938 660 460.194335938 632 c 0
 464.194335938 612 446.194335938 594 434.194335938 580 c 0
 408.194335938 548 384.194335938 516 360.194335938 482 c 0
 266.194335938 342 178.194335938 200 100.194335938 52 c 1
 148.194335938 52 196.194335938 56 244.194335938 52 c 0
 276.194335938 48 310.194335938 50 342.194335938 48 c 0
 374.194335938 46 420.194335938 48 448.194335938 32 c 0
 468.194335938 22 466.194335938 -10 446.194335938 -18 c 0
 424.194335938 -28 382.194335938 -10 358.194335938 -10 c 0
 278.194335938 -6 204.194335938 -2 124.194335938 -6 c 0
 96.1943359375 -6 50.1943359375 -10 34.1943359375 18 c 0
 24.1943359375 34 34.1943359375 52 42.1943359375 68 c 0
 58.1943359375 104 76.1943359375 136 94.1943359375 172 c 0
 126.194335938 236 168.194335938 300 208.194335938 362 c 0
 260.194335938 448 316.194335938 536 382.194335938 612 c 1
EndSplineSet
Substitution2: "ss02-1" Z.ss02
Substitution2: "ss01-1" Z.ss01
EndChar

StartChar: nine
Encoding: 57 57 16
Width: 440
VWidth: 0
Flags: HW
LayerCount: 2
Back
Fore
SplineSet
335.51953125 422 m 1
 323.51953125 398 303.51953125 378 283.51953125 360 c 0
 263.51953125 340 239.51953125 324 213.51953125 312 c 0
 153.51953125 284 89.51953125 322 57.51953125 374 c 0
 19.51953125 438 21.51953125 528 59.51953125 592 c 0
 111.51953125 682 249.51953125 716 341.51953125 664 c 0
 357.51953125 656 363.51953125 640 375.51953125 628 c 0
 385.51953125 620 397.51953125 622 405.51953125 608 c 0
 415.51953125 590 405.51953125 568 401.51953125 550 c 0
 397.51953125 526 397.51953125 498 397.51953125 474 c 0
 393.51953125 350 397.51953125 226 397.51953125 102 c 0
 397.51953125 70 405.51953125 28 397.51953125 -4 c 0
 393.51953125 -20 375.51953125 -32 359.51953125 -24 c 0
 345.51953125 -16 343.51953125 -2 343.51953125 12 c 0
 343.51953125 38 341.51953125 66 341.51953125 92 c 0
 337.51953125 168 335.51953125 240 335.51953125 316 c 0
 335.51953125 348 343.51953125 390 335.51953125 422 c 1
217.51953125 628 m 0
 137.51953125 620 89.51953125 558 89.51953125 478 c 0
 89.51953125 430 117.51953125 354 177.51953125 362 c 0
 199.51953125 366 217.51953125 382 233.51953125 396 c 0
 269.51953125 426 293.51953125 464 317.51953125 504 c 0
 325.51953125 518 339.51953125 538 339.51953125 554 c 0
 339.51953125 562 333.51953125 566 331.51953125 572 c 0
 327.51953125 582 333.51953125 592 325.51953125 602 c 0
 305.51953125 630 249.51953125 632 217.51953125 628 c 0
EndSplineSet
Substitution2: "ss02-1" nine.ss02
Substitution2: "ss01-1" nine.ss01
EndChar

StartChar: quoteright
Encoding: 8217 8217 17
Width: 139
VWidth: 0
Flags: HW
LayerCount: 2
Back
Fore
SplineSet
68 652 m 0
 100 662 106 624 108 604 c 0
 112 560 106 514 94 470 c 0
 90 454 86 432 66 426 c 0
 50 422 30 436 30 452 c 0
 30 478 42 508 46 532 c 0
 52 564 52 592 48 624 c 0
 48 636 56 648 68 652 c 0
EndSplineSet
Substitution2: "ss02-1" quoteright.ss02
Substitution2: "ss01-1" quoteright.ss01
EndChar

StartChar: dollar
Encoding: 36 36 18
Width: 394
VWidth: 0
Flags: HW
LayerCount: 2
Back
Fore
SplineSet
141.819335938 202 m 1
 141.819335938 242 139.819335938 280 139.819335938 320 c 0
 139.819335938 332 143.819335938 356 135.819335938 368 c 0
 129.819335938 378 113.819335938 386 105.819335938 394 c 0
 77.8193359375 416 27.8193359375 450 31.8193359375 492 c 0
 35.8193359375 528 71.8193359375 550 99.8193359375 566 c 0
 107.819335938 570 127.819335938 576 133.819335938 584 c 0
 137.819335938 592 135.819335938 600 135.819335938 608 c 0
 135.819335938 628 131.819335938 654 139.819335938 674 c 0
 151.819335938 696 181.819335938 698 191.819335938 674 c 0
 195.819335938 662 191.819335938 656 191.819335938 644 c 0
 189.819335938 626 191.819335938 606 191.819335938 588 c 1
 217.819335938 586 l 1
 217.819335938 606 209.819335938 638 217.819335938 658 c 0
 225.819335938 674 251.819335938 678 263.819335938 666 c 0
 283.819335938 646 267.819335938 602 273.819335938 578 c 0
 277.819335938 566 291.819335938 558 293.819335938 544 c 0
 297.819335938 524 277.819335938 522 273.819335938 506 c 0
 269.819335938 474 273.819335938 434 273.819335938 402 c 0
 273.819335938 388 269.819335938 370 273.819335938 358 c 0
 277.819335938 344 301.819335938 332 311.819335938 322 c 0
 335.819335938 298 363.819335938 264 363.819335938 228 c 0
 363.819335938 176 329.819335938 124 273.819335938 120 c 1
 273.819335938 104 277.819335938 82 267.819335938 68 c 0
 255.819335938 52 229.819335938 54 221.819335938 70 c 0
 213.819335938 82 217.819335938 104 217.819335938 116 c 1
 199.819335938 118 l 1
 199.819335938 98 201.819335938 68 193.819335938 52 c 0
 181.819335938 32 153.819335938 32 143.819335938 52 c 0
 135.819335938 68 141.819335938 96 141.819335938 112 c 0
 141.819335938 120 143.819335938 128 139.819335938 134 c 0
 131.819335938 142 117.819335938 150 107.819335938 156 c 0
 83.8193359375 172 49.8193359375 194 33.8193359375 220 c 0
 21.8193359375 240 39.8193359375 266 63.8193359375 260 c 0
 89.8193359375 252 119.819335938 218 141.819335938 202 c 1
191.819335938 530 m 1
 195.819335938 498 195.819335938 466 195.819335938 434 c 0
 195.819335938 416 193.819335938 402 213.819335938 394 c 1
 217.819335938 532 l 1
 191.819335938 530 l 1
133.819335938 520 m 1
 121.819335938 512 97.8193359375 504 93.8193359375 492 c 0
 87.8193359375 476 125.819335938 450 137.819335938 446 c 1
 137.819335938 466 143.819335938 502 133.819335938 520 c 1
199.819335938 330 m 1
 201.819335938 176 l 1
 213.819335938 176 l 1
 211.819335938 212 213.819335938 252 213.819335938 288 c 0
 213.819335938 304 217.819335938 322 199.819335938 330 c 1
273.819335938 274 m 1
 271.819335938 180 l 1
 319.819335938 196 305.819335938 250 273.819335938 274 c 1
EndSplineSet
Substitution2: "ss02-1" dollar.ss02
Substitution2: "ss01-1" dollar.ss01
EndChar

StartChar: greater
Encoding: 62 62 19
Width: 342
VWidth: 0
Flags: HW
LayerCount: 2
Back
Fore
SplineSet
51.419921875 616 m 0
 75.419921875 620 99.419921875 592 115.419921875 580 c 0
 163.419921875 544 209.419921875 510 259.419921875 476 c 0
 277.419921875 464 307.419921875 448 311.419921875 424 c 0
 313.419921875 404 301.419921875 390 293.419921875 374 c 0
 273.419921875 342 251.419921875 314 229.419921875 284 c 0
 211.419921875 260 191.419921875 234 171.419921875 212 c 0
 163.419921875 202 153.419921875 190 137.419921875 190 c 0
 109.419921875 190 107.419921875 222 121.419921875 240 c 0
 153.419921875 280 183.419921875 322 215.419921875 366 c 0
 221.419921875 374 245.419921875 400 243.419921875 412 c 0
 239.419921875 424 203.419921875 440 193.419921875 448 c 0
 147.419921875 480 105.419921875 516 61.419921875 552 c 0
 45.419921875 566 5.419921875 604 51.419921875 616 c 0
EndSplineSet
Substitution2: "ss02-1" greater.ss02
Substitution2: "ss01-1" greater.ss01
EndChar

StartChar: h
Encoding: 104 104 20
Width: 391
VWidth: 0
Flags: HW
LayerCount: 2
Back
Fore
SplineSet
97.1201171875 292 m 1
 109.120117188 332 159.120117188 384 203.120117188 380 c 0
 227.120117188 378 249.120117188 364 265.120117188 348 c 0
 341.120117188 276 359.120117188 160 359.120117188 60 c 0
 359.120117188 36 367.120117188 32 353.120117188 12 c 0
 339.120117188 -8 309.120117188 0 305.120117188 24 c 0
 301.120117188 50 303.120117188 36 303.120117188 64 c 0
 301.120117188 128 293.120117188 188 259.120117188 244 c 0
 245.120117188 268 227.120117188 312 201.120117188 320 c 0
 173.120117188 330 147.120117188 264 139.120117188 246 c 0
 115.120117188 200 101.120117188 152 95.1201171875 100 c 0
 91.1201171875 72 97.1201171875 60 93.1201171875 32 c 0
 91.1201171875 12 75.1201171875 -4 55.1201171875 2 c 0
 41.1201171875 6 31.1201171875 18 31.1201171875 32 c 0
 27.1201171875 68 35.1201171875 92 35.1201171875 128 c 0
 35.1201171875 224 43.1201171875 320 39.1201171875 416 c 0
 37.1201171875 452 37.1201171875 484 37.1201171875 520 c 0
 37.1201171875 534 31.1201171875 554 39.1201171875 566 c 0
 51.1201171875 588 81.1201171875 584 89.1201171875 562 c 0
 93.1201171875 548 91.1201171875 532 91.1201171875 516 c 0
 91.1201171875 492 91.1201171875 468 93.1201171875 444 c 0
 95.1201171875 406 93.1201171875 364 97.1201171875 292 c 1
EndSplineSet
Substitution2: "ss02-1" h.ss02
Substitution2: "ss01-1" h.ss01
EndChar

StartChar: u
Encoding: 117 117 21
Width: 371
VWidth: 0
Flags: HW
LayerCount: 2
Back
Fore
SplineSet
43.3271484375 380 m 4
 89.3271484375 398 77.3271484375 332 77.3271484375 308 c 4
 77.3271484375 248 73.3271484375 188 93.3271484375 128 c 4
 103.327148438 100 121.327148438 72 153.327148438 64 c 4
 185.327148438 56 211.327148438 74 231.327148438 96 c 4
 279.327148438 144 285.327148438 224 285.327148438 288 c 4
 285.327148438 312 267.327148438 374 307.327148438 376 c 4
 323.327148438 376 335.327148438 364 337.327148438 348 c 4
 341.327148438 318 341.327148438 290 341.327148438 260 c 4
 341.327148438 166 309.327148438 36 205.327148438 8 c 4
 189.327148438 4 175.327148438 2 159.327148438 2 c 4
 39.3271484375 12 13.3271484375 158 21.3271484375 256 c 4
 23.3271484375 284 25.3271484375 316 25.3271484375 344 c 4
 25.3271484375 358 27.3271484375 374 43.3271484375 380 c 4
EndSplineSet
Substitution2: "ss02-1" u.ss02
Substitution2: "ss01-1" u.ss01
EndChar

StartChar: R
Encoding: 82 82 22
Width: 397
VWidth: 0
Flags: HW
LayerCount: 2
Back
Fore
SplineSet
112 268 m 1
 112 224 114 182 110 140 c 0
 108 108 108 72 108 40 c 0
 108 24 112 8 108 -6 c 0
 104 -26 78 -40 62 -24 c 0
 50 -14 52 2 52 14 c 0
 50 46 50 76 50 108 c 0
 50 236 52 364 60 492 c 0
 62 528 66 566 62 600 c 0
 60 618 46 632 66 648 c 0
 86 664 134 654 158 650 c 0
 242 638 340 608 342 506 c 0
 342 438 304 388 248 350 c 0
 224 334 198 322 176 304 c 1
 260 268 330 178 370 100 c 0
 382 78 402 48 406 24 c 0
 410 8 392 -8 376 -4 c 0
 360 -2 354 10 346 22 c 0
 334 46 322 68 308 92 c 0
 272 148 228 200 172 236 c 0
 154 248 134 264 112 268 c 1
116 596 m 1
 116 522 l 1
 114 342 l 1
 156 362 198 386 234 414 c 0
 250 426 266 442 274 460 c 0
 286 488 290 530 266 554 c 0
 242 578 202 588 170 592 c 0
 154 596 132 600 116 596 c 1
EndSplineSet
Substitution2: "ss02-1" R.ss02
Substitution2: "ss01-1" R.ss01
EndChar

StartChar: P
Encoding: 80 80 23
Width: 352
VWidth: 0
Flags: HW
LayerCount: 2
Back
Fore
SplineSet
122.5 276 m 1
 122.5 240 120.5 200 120.5 164 c 0
 120.5 120 128.5 70 120.5 28 c 0
 116.5 10 100.5 -4 82.5 4 c 0
 62.5 12 64.5 34 62.5 52 c 0
 58.5 100 60.5 148 60.5 196 c 0
 60.5 302 66.5 410 66.5 516 c 0
 66.5 548 52.5 608 72.5 636 c 0
 84.5 652 96.5 644 112.5 648 c 0
 150.5 656 192.5 658 228.5 642 c 0
 312.5 606 376.5 504 342.5 412 c 0
 324.5 364 280.5 330 236.5 306 c 0
 206.5 290 156.5 266 122.5 276 c 1
122.5 326 m 1
 202.5 348 308.5 390 286.5 492 c 0
 282.5 508 276.5 522 268.5 534 c 0
 248.5 570 206.5 598 162.5 598 c 0
 150.5 598 130.5 602 122.5 592 c 0
 110.5 580 122.5 536 122.5 520 c 0
 124.5 456 130.5 388 122.5 326 c 1
EndSplineSet
Substitution2: "ss02-1" P.ss02
Substitution2: "ss01-1" P.ss01
EndChar

StartChar: zero
Encoding: 48 48 24
Width: 435
VWidth: 0
Flags: HW
LayerCount: 2
Back
Fore
SplineSet
153.096679688 620 m 0
 173.096679688 624 181.096679688 610 197.096679688 604 c 0
 257.096679688 580 297.096679688 542 337.096679688 492 c 0
 365.096679688 456 393.096679688 412 401.096679688 368 c 0
 421.096679688 272 369.096679688 168 313.096679688 94 c 0
 277.096679688 46 237.096679688 -4 173.096679688 -16 c 0
 89.0966796875 -32 51.0966796875 58 39.0966796875 126 c 0
 27.0966796875 182 29.0966796875 238 33.0966796875 294 c 0
 37.0966796875 370 47.0966796875 448 75.0966796875 520 c 0
 79.0966796875 532 89.0966796875 544 89.0966796875 556 c 0
 89.0966796875 570 77.0966796875 578 87.0966796875 594 c 0
 97.0966796875 608 111.096679688 604 125.096679688 608 c 0
 135.096679688 612 143.096679688 618 153.096679688 620 c 0
153.096679688 550 m 0
 145.096679688 546 141.096679688 534 137.096679688 526 c 0
 125.096679688 502 117.096679688 478 111.096679688 454 c 0
 87.0966796875 358 79.0966796875 244 95.0966796875 146 c 0
 99.0966796875 118 111.096679688 60 139.096679688 48 c 0
 157.096679688 40 179.096679688 48 195.096679688 56 c 0
 227.096679688 72 249.096679688 108 269.096679688 136 c 0
 313.096679688 196 357.096679688 280 343.096679688 358 c 0
 339.096679688 374 331.096679688 394 323.096679688 410 c 0
 303.096679688 458 255.096679688 508 211.096679688 536 c 0
 197.096679688 544 169.096679688 560 153.096679688 550 c 0
EndSplineSet
Substitution2: "ss02-1" zero.ss02
Substitution2: "ss01-1" zero.ss01
EndChar

StartChar: question
Encoding: 63 63 25
Width: 372
VWidth: 0
Flags: HW
LayerCount: 2
Back
Fore
SplineSet
202.532226562 668 m 0
 226.532226562 670 250.532226562 666 270.532226562 654 c 0
 284.532226562 646 298.532226562 640 310.532226562 628 c 0
 394.532226562 548 288.532226562 450 240.532226562 382 c 0
 230.532226562 368 220.532226562 354 212.532226562 338 c 0
 204.532226562 324 194.532226562 308 194.532226562 292 c 0
 194.532226562 268 230.532226562 212 182.532226562 212 c 0
 144.532226562 212 134.532226562 284 138.532226562 312 c 0
 150.532226562 384 210.532226562 440 250.532226562 496 c 0
 264.532226562 516 292.532226562 550 276.532226562 574 c 0
 234.532226562 634 148.532226562 606 102.532226562 568 c 0
 84.5322265625 552 82.5322265625 516 50.5322265625 524 c 0
 10.5322265625 536 38.5322265625 578 54.5322265625 598 c 0
 90.5322265625 640 148.532226562 664 202.532226562 668 c 0
202.532226562 102 m 0
 254.532226562 106 246.532226562 28 202.532226562 24 c 0
 182.532226562 24 162.532226562 50 164.532226562 70 c 0
 166.532226562 90 184.532226562 102 202.532226562 102 c 0
EndSplineSet
Substitution2: "ss02-1" ?.ss02
Substitution2: "ss01-1" ?.ss01
EndChar

StartChar: quotedbl
Encoding: 34 34 26
Width: 237
VWidth: 0
Flags: HW
LayerCount: 2
Back
Fore
SplineSet
50.408203125 636 m 0
 66.408203125 640 80.408203125 628 84.408203125 612 c 0
 92.408203125 574 90.408203125 534 90.408203125 496 c 0
 90.408203125 480 86.408203125 460 68.408203125 456 c 0
 52.408203125 452 38.408203125 460 34.408203125 476 c 0
 26.408203125 502 34.408203125 530 34.408203125 556 c 0
 34.408203125 574 28.408203125 594 30.408203125 612 c 0
 30.408203125 624 40.408203125 632 50.408203125 636 c 0
164.408203125 624 m 0
 176.408203125 628 190.408203125 620 194.408203125 608 c 0
 198.408203125 600 196.408203125 588 198.408203125 578 c 0
 202.408203125 552 222.408203125 484 184.408203125 476 c 0
 172.408203125 472 158.408203125 480 152.408203125 492 c 0
 142.408203125 512 146.408203125 542 144.408203125 564 c 0
 144.408203125 576 140.408203125 590 142.408203125 602 c 0
 144.408203125 614 152.408203125 620 164.408203125 624 c 0
EndSplineSet
Substitution2: "ss02-1" quotedbl.ss02
Substitution2: "ss01-1" quotedbl.ss01
EndChar

StartChar: percent
Encoding: 37 37 27
Width: 361
VWidth: 0
Flags: HW
LayerCount: 2
Back
Fore
SplineSet
286.6875 512 m 0
 304.6875 516 322.6875 498 318.6875 480 c 0
 314.6875 464 300.6875 448 292.6875 432 c 0
 240.6875 350 184.6875 272 126.6875 194 c 0
 110.6875 174 88.6875 120 58.6875 120 c 0
 40.6875 120 26.6875 136 30.6875 152 c 0
 34.6875 170 50.6875 188 60.6875 204 c 0
 112.6875 282 172.6875 356 224.6875 434 c 0
 238.6875 454 260.6875 508 286.6875 512 c 0
90.6875 464 m 0
 126.6875 472 148.6875 414 108.6875 404 c 0
 68.6875 396 50.6875 456 90.6875 464 c 0
294.6875 236 m 0
 310.6875 240 328.6875 230 330.6875 214 c 0
 332.6875 194 318.6875 162 300.6875 156 c 0
 282.6875 150 262.6875 162 262.6875 182 c 0
 262.6875 202 274.6875 230 294.6875 236 c 0
EndSplineSet
EndChar

StartChar: bracketleft
Encoding: 91 91 28
Width: 265
VWidth: 0
Flags: HW
LayerCount: 2
Back
Fore
SplineSet
113.375 28 m 1
 139.375 36 189.375 34 215.375 26 c 0
 231.375 20 241.375 0 229.375 -16 c 0
 219.375 -30 203.375 -26 187.375 -26 c 0
 153.375 -22 93.375 -40 65.375 -16 c 0
 53.375 -4 51.375 32 47.375 48 c 0
 41.375 88 45.375 132 45.375 172 c 0
 45.375 240 45.375 312 41.375 380 c 0
 37.375 448 33.375 514 33.375 582 c 0
 33.375 606 27.375 630 31.375 654 c 0
 35.375 672 53.375 680 69.375 684 c 0
 103.375 692 143.375 690 177.375 682 c 0
 191.375 678 209.375 676 217.375 664 c 0
 229.375 648 219.375 624 199.375 620 c 0
 187.375 618 175.375 626 163.375 628 c 0
 139.375 632 113.375 632 89.375 632 c 1
 89.375 508 101.375 380 105.375 256 c 0
 107.375 182 93.375 100 113.375 28 c 1
EndSplineSet
Substitution2: "ss02-1" bracketleft.ss02
Substitution2: "ss01-1" bracketleft.ss01
EndChar

StartChar: o
Encoding: 111 111 29
Width: 383
VWidth: 0
Flags: HW
LayerCount: 2
Back
Fore
SplineSet
168.736328125 384 m 0
 188.736328125 388 196.736328125 374 212.736328125 370 c 0
 236.736328125 362 260.736328125 360 280.736328125 344 c 0
 296.736328125 332 306.736328125 312 316.736328125 296 c 0
 340.736328125 256 356.736328125 216 352.736328125 168 c 4
 348.736328125 76 268.736328125 14 184.736328125 0 c 0
 116.736328125 -12 44.736328125 50 32.736328125 114 c 0
 18.736328125 190 60.736328125 280 106.736328125 338 c 0
 114.736328125 350 112.736328125 366 124.736328125 374 c 0
 134.736328125 382 156.736328125 382 168.736328125 384 c 0
164.736328125 318 m 0
 144.736328125 308 130.736328125 276 120.736328125 256 c 0
 92.736328125 200 58.736328125 88 144.736328125 64 c 0
 156.736328125 60 170.736328125 56 182.736328125 60 c 0
 196.736328125 64 208.736328125 66 220.736328125 72 c 0
 240.736328125 82 264.736328125 102 276.736328125 122 c 0
 300.736328125 158 294.736328125 216 274.736328125 252 c 0
 254.736328125 288 240.736328125 306 198.736328125 316 c 0
 190.736328125 318 172.736328125 322 164.736328125 318 c 0
EndSplineSet
Substitution2: "ss02-1" o.ss02
Substitution2: "ss01-1" o.ss01
EndChar

StartChar: k
Encoding: 107 107 30
Width: 393
VWidth: 0
Flags: HW
LayerCount: 2
Back
Fore
SplineSet
98.16015625 284 m 5
 98.16015625 244 100.16015625 206 100.16015625 166 c 4
 100.16015625 122 110.16015625 72 106.16015625 28 c 4
 104.16015625 8 80.16015625 -4 64.16015625 8 c 4
 52.16015625 16 50.16015625 32 50.16015625 44 c 4
 46.16015625 76 46.16015625 104 44.16015625 136 c 4
 36.16015625 244 42.16015625 350 42.16015625 458 c 4
 42.16015625 486 44.16015625 514 44.16015625 542 c 4
 44.16015625 554 40.16015625 570 48.16015625 582 c 4
 62.16015625 602 94.16015625 594 98.16015625 570 c 4
 106.16015625 514 98.16015625 452 98.16015625 396 c 5
 124.16015625 418 154.16015625 436 180.16015625 460 c 4
 196.16015625 476 212.16015625 496 232.16015625 508 c 4
 256.16015625 522 280.16015625 498 272.16015625 474 c 4
 268.16015625 458 250.16015625 448 240.16015625 438 c 4
 220.16015625 418 198.16015625 398 174.16015625 380 c 4
 158.16015625 368 136.16015625 356 124.16015625 340 c 5
 150.16015625 328 172.16015625 300 192.16015625 280 c 4
 244.16015625 228 294.16015625 168 334.16015625 104 c 4
 346.16015625 84 368.16015625 58 372.16015625 34 c 4
 376.16015625 18 362.16015625 0 346.16015625 0 c 4
 314.16015625 0 294.16015625 60 278.16015625 82 c 4
 230.16015625 154 166.16015625 230 98.16015625 284 c 5
EndSplineSet
Substitution2: "ss02-1" k.ss02
Substitution2: "ss01-1" k.ss01
EndChar

StartChar: w
Encoding: 119 119 31
Width: 508
VWidth: 0
Flags: HW
LayerCount: 2
Back
Fore
SplineSet
248.309570312 90 m 1
 232.309570312 70 214.309570312 42 194.309570312 26 c 0
 142.309570312 -18 82.3095703125 -8 54.3095703125 56 c 0
 26.3095703125 120 28.3095703125 204 32.3095703125 272 c 0
 34.3095703125 302 32.3095703125 316 36.3095703125 346 c 0
 36.3095703125 360 38.3095703125 378 50.3095703125 388 c 0
 68.3095703125 404 96.3095703125 390 96.3095703125 366 c 0
 96.3095703125 348 88.3095703125 346 88.3095703125 328 c 0
 84.3095703125 268 86.3095703125 206 90.3095703125 146 c 0
 90.3095703125 126 102.309570312 66 126.309570312 58 c 0
 142.309570312 54 166.309570312 80 174.309570312 88 c 0
 194.309570312 108 222.309570312 146 228.309570312 174 c 0
 234.309570312 202 220.309570312 246 252.309570312 262 c 0
 272.309570312 272 296.309570312 256 300.309570312 236 c 0
 304.309570312 212 294.309570312 188 292.309570312 164 c 0
 290.309570312 144 302.309570312 118 310.309570312 98 c 0
 318.309570312 82 344.309570312 40 368.309570312 56 c 0
 384.309570312 66 394.309570312 86 402.309570312 102 c 0
 430.309570312 156 424.309570312 232 408.309570312 288 c 0
 400.309570312 312 356.309570312 370 392.309570312 390 c 0
 430.309570312 410 454.309570312 328 462.309570312 304 c 0
 486.309570312 216 488.309570312 106 428.309570312 30 c 0
 372.309570312 -38 262.309570312 6 248.309570312 90 c 1
EndSplineSet
Substitution2: "ss02-1" w.ss02
Substitution2: "ss01-1" w.ss01
EndChar

StartChar: D
Encoding: 68 68 32
Width: 434
VWidth: 0
Flags: HW
LayerCount: 2
Back
Fore
SplineSet
145.120117188 676 m 0
 245.120117188 676 329.120117188 576 369.120117188 494 c 0
 393.120117188 446 419.120117188 394 423.120117188 340 c 0
 437.120117188 184 341.120117188 24 183.120117188 -8 c 0
 165.120117188 -12 145.120117188 -8 129.120117188 -12 c 0
 121.120117188 -14 113.120117188 -20 103.120117188 -20 c 0
 89.1201171875 -20 77.1201171875 -8 77.1201171875 4 c 0
 73.1201171875 52 75.1201171875 102 73.1201171875 150 c 0
 69.1201171875 266 65.1201171875 378 65.1201171875 494 c 0
 65.1201171875 526 65.1201171875 560 65.1201171875 592 c 0
 65.1201171875 604 57.1201171875 614 61.1201171875 626 c 0
 69.1201171875 662 113.120117188 676 145.120117188 676 c 0
133.120117188 44 m 1
 273.120117188 46 367.120117188 180 365.120117188 312 c 0
 365.120117188 376 335.120117188 434 307.120117188 488 c 0
 283.120117188 532 237.120117188 586 191.120117188 608 c 0
 175.120117188 616 145.120117188 624 127.120117188 616 c 0
 115.120117188 612 119.120117188 596 119.120117188 584 c 0
 119.120117188 548 121.120117188 516 121.120117188 480 c 0
 125.120117188 336 133.120117188 188 133.120117188 44 c 1
EndSplineSet
Substitution2: "ss02-1" D.ss02
Substitution2: "ss01-1" D.ss01
EndChar

StartChar: Q
Encoding: 81 81 33
Width: 581
VWidth: 0
Flags: HW
LayerCount: 2
Back
Fore
SplineSet
384.525390625 88 m 1
 364.525390625 100 322.525390625 142 364.525390625 158 c 0
 382.525390625 166 396.525390625 150 408.525390625 140 c 0
 414.525390625 136 422.525390625 128 430.525390625 132 c 0
 440.525390625 136 444.525390625 150 452.525390625 158 c 0
 476.525390625 188 492.525390625 220 500.525390625 256 c 0
 532.525390625 384 500.525390625 540 380.525390625 612 c 0
 336.525390625 636 288.525390625 652 238.525390625 648 c 0
 214.525390625 646 186.525390625 636 162.525390625 636 c 0
 144.525390625 636 130.525390625 652 136.525390625 670 c 0
 144.525390625 690 172.525390625 694 192.525390625 698 c 0
 248.525390625 710 306.525390625 706 360.525390625 686 c 0
 500.525390625 634 576.525390625 484 570.525390625 338 c 0
 566.525390625 280 558.525390625 218 530.525390625 166 c 0
 518.525390625 146 508.525390625 128 494.525390625 110 c 0
 488.525390625 102 476.525390625 92 472.525390625 84 c 0
 470.525390625 76 484.525390625 64 488.525390625 60 c 0
 502.525390625 44 534.525390625 18 538.525390625 -4 c 0
 542.525390625 -26 520.525390625 -40 500.525390625 -32 c 0
 476.525390625 -20 438.525390625 18 426.525390625 42 c 1
 390.525390625 18 356.525390625 -8 316.525390625 -20 c 0
 288.525390625 -28 250.525390625 -24 222.525390625 -20 c 0
 198.525390625 -16 176.525390625 -6 156.525390625 6 c 0
 0.525390625 102 26.525390625 324 88.525390625 468 c 0
 110.525390625 520 138.525390625 572 180.525390625 610 c 0
 196.525390625 624 214.525390625 640 236.525390625 644 c 0
 262.525390625 648 294.525390625 626 276.525390625 598 c 0
 268.525390625 582 252.525390625 590 240.525390625 586 c 0
 230.525390625 582 224.525390625 574 216.525390625 566 c 0
 168.525390625 518 140.525390625 452 120.525390625 388 c 0
 84.525390625 274 80.525390625 64 236.525390625 40 c 0
 254.525390625 36 272.525390625 32 290.525390625 36 c 0
 326.525390625 40 354.525390625 70 384.525390625 86 c 1
 384.525390625 88 l 1
EndSplineSet
Substitution2: "ss02-1" Q.ss02
Substitution2: "ss01-1" Q.ss01
EndChar

StartChar: one
Encoding: 49 49 34
Width: 248
VWidth: 0
Flags: HW
LayerCount: 2
Back
Fore
SplineSet
132 578 m 1
 114 560 92 532 68 520 c 0
 52 512 30 524 30 542 c 0
 30 560 42 568 54 580 c 0
 78 604 100 630 130 646 c 0
 146 654 168 658 180 638 c 0
 188 622 190 600 190 584 c 0
 190 548 190 516 190 480 c 0
 190 372 206 262 210 154 c 0
 212 122 212 88 216 56 c 0
 218 40 222 20 204 12 c 0
 188 4 172 14 166 30 c 0
 154 62 158 104 154 136 c 0
 142 284 132 430 132 578 c 1
EndSplineSet
Substitution2: "ss02-1" one.ss02
Substitution2: "ss01-1" one.ss01
EndChar

StartChar: colon
Encoding: 58 58 35
Width: 142
VWidth: 0
Flags: HW
LayerCount: 2
Back
Fore
SplineSet
75.9716796875 368 m 0
 123.971679688 380 109.971679688 300 77.9716796875 292 c 0
 51.9716796875 284 21.9716796875 306 31.9716796875 334 c 0
 37.9716796875 352 57.9716796875 364 75.9716796875 368 c 0
69.9716796875 136 m 0
 117.971679688 148 127.971679688 84 81.9716796875 72 c 0
 37.9716796875 62 27.9716796875 124 69.9716796875 136 c 0
EndSplineSet
Substitution2: "ss02-1" colon.ss02
Substitution2: "ss01-1" colon.ss01
EndChar

StartChar: quotedblleft
Encoding: 8220 8220 36
Width: 253
VWidth: 0
Flags: HW
LayerCount: 2
Back
Fore
SplineSet
82.546875 684 m 0
 98.546875 688 116.546875 680 118.546875 662 c 0
 120.546875 644 100.546875 626 96.546875 606 c 0
 92.546875 590 88.546875 572 90.546875 556 c 0
 90.546875 544 100.546875 536 100.546875 524 c 0
 100.546875 512 90.546875 502 78.546875 498 c 0
 52.546875 490 36.546875 522 32.546875 542 c 0
 24.546875 578 36.546875 620 52.546875 652 c 0
 58.546875 664 66.546875 680 82.546875 684 c 0
184.546875 660 m 0
 198.546875 660 210.546875 652 212.546875 638 c 0
 214.546875 626 208.546875 618 204.546875 606 c 0
 200.546875 586 200.546875 560 200.546875 538 c 0
 200.546875 518 222.546875 508 222.546875 488 c 0
 222.546875 472 214.546875 460 198.546875 458 c 0
 178.546875 456 164.546875 474 156.546875 488 c 0
 132.546875 526 140.546875 570 148.546875 612 c 0
 152.546875 632 158.546875 660 184.546875 660 c 0
EndSplineSet
Substitution2: "ss02-1" quotedblleft.ss02
Substitution2: "ss01-1" quotedblleft.ss01
EndChar

StartChar: ampersand
Encoding: 38 38 37
Width: 689
VWidth: 0
Flags: HW
LayerCount: 2
Back
Fore
SplineSet
548.309570312 80 m 1
 483.309570312 41 410.309570312 33 336.309570312 49 c 0
 304.309570312 56 267.309570312 68 255.309570312 102 c 0
 245.309570312 130 260.309570312 160 277.309570312 182 c 0
 312.309570312 227 361.309570312 261 399.309570312 304 c 0
 410.309570312 316 437.309570312 337 438.309570312 354 c 0
 439.309570312 374 419.309570312 407 411.309570312 426 c 0
 389.309570312 481 358.309570312 548 362.309570312 608 c 0
 365.309570312 654 407.309570312 690 452.309570312 683 c 0
 508.309570312 675 561.309570312 647 583.309570312 592 c 0
 609.309570312 527 583.309570312 461 550.309570312 404 c 0
 540.309570312 386 515.309570312 363 511.309570312 343 c 0
 508.309570312 331 522.309570312 309 526.309570312 298 c 0
 541.309570312 261 565.309570312 220 572.309570312 180 c 1
 584.309570312 193 595.309570312 208 601.309570312 225 c 0
 607.309570312 243 599.309570312 268 626.309570312 272 c 0
 655.309570312 276 661.309570312 243 657.309570312 221 c 0
 652.309570312 194 638.309570312 171 621.309570312 150 c 0
 614.309570312 141 600.309570312 131 597.309570312 120 c 0
 594.309570312 111 601.309570312 98 604.309570312 90 c 0
 611.309570312 69 628.309570312 34 625.309570312 12 c 0
 622.309570312 -11 593.309570312 -21 577.309570312 -3 c 0
 561.309570312 16 554.309570312 56 548.309570312 80 c 1
482.309570312 410 m 1
 515.309570312 444 547.309570312 516 530.309570312 564 c 0
 519.309570312 594 492.309570312 613 462.309570312 620 c 0
 454.309570312 622 440.309570312 627 432.309570312 622 c 0
 414.309570312 611 423.309570312 582 426.309570312 566 c 0
 437.309570312 515 456.309570312 455 482.309570312 410 c 1
468.309570312 288 m 1
 445.309570312 277 427.309570312 246 408.309570312 229 c 0
 382.309570312 206 355.309570312 182 331.309570312 156 c 0
 324.309570312 148 310.309570312 134 312.309570312 122 c 0
 315.309570312 108 350.309570312 104 362.309570312 102 c 0
 403.309570312 95 454.309570312 93 492.309570312 112 c 0
 502.309570312 117 524.309570312 126 526.309570312 138 c 0
 528.309570312 150 516.309570312 171 511.309570312 182 c 0
 496.309570312 217 480.309570312 252 468.309570312 288 c 1
548.309570312 80 m 1
 484.309570312 40 410.309570312 32 336.309570312 48 c 0
 304.309570312 56 266.309570312 68 254.309570312 102 c 0
 244.309570312 130 262.309570312 160 278.309570312 182 c 0
 314.309570312 226 360.309570312 260 398.309570312 304 c 0
 410.309570312 316 438.309570312 338 438.309570312 354 c 0
 438.309570312 374 418.309570312 406 410.309570312 426 c 0
 388.309570312 482 358.309570312 548 362.309570312 608 c 0
 366.309570312 654 408.309570312 692 452.309570312 684 c 0
 508.309570312 676 560.309570312 648 582.309570312 592 c 0
 608.309570312 528 582.309570312 460 550.309570312 404 c 0
 540.309570312 386 514.309570312 364 510.309570312 344 c 0
 506.309570312 332 522.309570312 310 526.309570312 298 c 0
 542.309570312 262 564.309570312 220 572.309570312 180 c 1
 584.309570312 192 596.309570312 208 602.309570312 224 c 0
 608.309570312 242 598.309570312 268 626.309570312 272 c 0
 654.309570312 276 662.309570312 242 658.309570312 220 c 0
 654.309570312 192 638.309570312 170 622.309570312 150 c 0
 614.309570312 142 602.309570312 132 598.309570312 120 c 0
 594.309570312 112 600.309570312 98 604.309570312 90 c 0
 612.309570312 70 630.309570312 34 626.309570312 12 c 0
 622.309570312 -12 594.309570312 -22 578.309570312 -4 c 0
 562.309570312 16 554.309570312 56 548.309570312 80 c 1
482.309570312 410 m 1
 514.309570312 444 546.309570312 516 530.309570312 564 c 0
 518.309570312 594 492.309570312 612 462.309570312 620 c 0
 454.309570312 622 440.309570312 626 432.309570312 622 c 0
 414.309570312 610 422.309570312 582 426.309570312 566 c 0
 438.309570312 514 456.309570312 454 482.309570312 410 c 1
468.309570312 288 m 1
 444.309570312 276 428.309570312 244 408.309570312 228 c 0
 382.309570312 204 354.309570312 182 330.309570312 156 c 0
 322.309570312 148 310.309570312 134 312.309570312 122 c 0
 316.309570312 108 350.309570312 104 362.309570312 102 c 0
 402.309570312 94 454.309570312 92 492.309570312 112 c 0
 502.309570312 116 524.309570312 126 526.309570312 138 c 0
 528.309570312 150 514.309570312 170 510.309570312 182 c 0
 494.309570312 218 480.309570312 252 468.309570312 288 c 1
296.309570312 108 m 1
 252.309570312 60 184.309570312 6 116.309570312 14 c 0
 84.3095703125 18 54.3095703125 28 42.3095703125 60 c 0
 38.3095703125 72 32.3095703125 86 32.3095703125 100 c 0
 30.3095703125 116 28.3095703125 136 32.3095703125 152 c 0
 40.3095703125 200 78.3095703125 238 108.309570312 274 c 0
 118.309570312 286 146.309570312 312 146.309570312 328 c 0
 146.309570312 348 126.309570312 378 118.309570312 398 c 0
 96.3095703125 458 80.3095703125 522 102.309570312 584 c 0
 122.309570312 636 180.309570312 656 228.309570312 628 c 0
 248.309570312 616 260.309570312 596 270.309570312 576 c 0
 300.309570312 516 290.309570312 452 262.309570312 392 c 0
 254.309570312 374 244.309570312 356 232.309570312 340 c 0
 228.309570312 334 220.309570312 328 220.309570312 320 c 0
 220.309570312 310 236.309570312 294 240.309570312 286 c 0
 256.309570312 258 280.309570312 232 294.309570312 204 c 1
 310.309570312 224 306.309570312 250 316.309570312 272 c 0
 328.309570312 298 364.309570312 292 368.309570312 264 c 0
 370.309570312 238 358.309570312 208 348.309570312 184 c 0
 344.309570312 176 334.309570312 162 334.309570312 154 c 0
 334.309570312 144 348.309570312 134 352.309570312 126 c 0
 368.309570312 106 402.309570312 74 406.309570312 48 c 0
 408.309570312 24 384.309570312 8 364.309570312 20 c 0
 354.309570312 28 346.309570312 40 338.309570312 50 c 0
 324.309570312 68 304.309570312 88 296.309570312 108 c 1
186.309570312 384 m 1
 198.309570312 392 206.309570312 414 212.309570312 428 c 0
 230.309570312 472 242.309570312 534 202.309570312 572 c 0
 198.309570312 576 192.309570312 580 186.309570312 580 c 0
 150.309570312 586 152.309570312 534 152.309570312 510 c 0
 152.309570312 494 154.309570312 480 158.309570312 464 c 0
 166.309570312 436 178.309570312 412 186.309570312 384 c 1
180.309570312 270 m 1
 160.309570312 242 134.309570312 216 114.309570312 188 c 0
 106.309570312 176 96.3095703125 164 92.3095703125 148 c 0
 88.3095703125 138 88.3095703125 128 88.3095703125 116 c 0
 88.3095703125 104 90.3095703125 84 98.3095703125 76 c 0
 106.309570312 68 118.309570312 70 126.309570312 70 c 0
 158.309570312 68 194.309570312 90 218.309570312 110 c 0
 230.309570312 118 258.309570312 138 258.309570312 154 c 0
 258.309570312 164 244.309570312 176 240.309570312 184 c 0
 220.309570312 212 204.309570312 248 180.309570312 270 c 1
EndSplineSet
EndChar

StartChar: bracketright
Encoding: 93 93 38
Width: 271
VWidth: 0
Flags: HW
LayerCount: 2
Back
Fore
SplineSet
180.788085938 48 m 1
 180.788085938 168 170.788085938 288 170.788085938 408 c 0
 170.788085938 452 172.788085938 494 172.788085938 538 c 0
 172.788085938 554 180.788085938 572 176.788085938 588 c 0
 172.788085938 600 152.788085938 600 144.788085938 600 c 0
 116.788085938 602 78.7880859375 594 50.7880859375 604 c 0
 34.7880859375 610 26.7880859375 628 34.7880859375 644 c 0
 46.7880859375 664 68.7880859375 656 88.7880859375 656 c 0
 132.788085938 658 224.788085938 664 234.788085938 608 c 0
 240.788085938 574 230.788085938 536 230.788085938 500 c 0
 230.788085938 412 228.788085938 326 232.788085938 238 c 0
 234.788085938 196 232.788085938 154 236.788085938 112 c 0
 238.788085938 84 244.788085938 50 236.788085938 24 c 0
 224.788085938 -20 184.788085938 -10 148.788085938 -6 c 0
 130.788085938 -6 112.788085938 -6 92.7880859375 -6 c 0
 74.7880859375 -6 46.7880859375 -12 34.7880859375 6 c 0
 22.7880859375 22 34.7880859375 44 54.7880859375 48 c 0
 94.7880859375 56 140.788085938 52 180.788085938 48 c 1
EndSplineSet
Substitution2: "ss02-1" bracketright.ss02
Substitution2: "ss01-1" bracketright.ss01
EndChar

StartChar: d
Encoding: 100 100 39
Width: 410
VWidth: 0
Flags: HW
LayerCount: 2
Back
Fore
SplineSet
282.010742188 368 m 5
 282.010742188 432 286.010742188 442 286.010742188 492 c 0
 286.010742188 542 296.010742188 606 310.010742188 654 c 0
 318.010742188 684 362.010742188 700 360.010742188 668 c 0
 358.010742188 634 346.010742188 592 344.010742188 556 c 0
 338.010742188 472 330.010742188 456 336.010742188 326 c 4
 338.010742188 296 344.010742188 238 344.010742188 208 c 0
 344.010742188 196 348.010742188 182 352.010742188 170 c 0
 360.010742188 138 370.010742188 106 386.010742188 78 c 0
 394.010742188 62 416.010742188 48 420.010742188 30 c 0
 424.010742188 2 392.010742188 -10 372.010742188 6 c 0
 336.010742188 36 332.010742188 78 308.010742188 114 c 1
 296.010742188 82 272.010742188 56 248.010742188 34 c 0
 170.010742188 -34 62.0107421875 -2 36.0107421875 98 c 0
 12.0107421875 190 62.0107421875 324 148.010742188 366 c 4
 182.010742188 382 246.010742188 384 282.010742188 368 c 5
282.010742188 268 m 4
 282.010742188 284 272.010742188 308 258.010742188 316 c 4
 218.010742188 340 166.010742188 324 138.010742188 290 c 4
 102.010742188 246 78.0107421875 172 92.0107421875 112 c 0
 108.010742188 42 178.010742188 46 222.010742188 90 c 0
 238.010742188 108 248.010742188 130 260.010742188 152 c 0
 268.010742188 168 282.010742188 194 282.010742188 214 c 0
 282.010742188 226 282.010742188 254 282.010742188 268 c 4
EndSplineSet
Substitution2: "ss02-1" d.ss02
Substitution2: "ss01-1" d.ss01
EndChar

StartChar: l
Encoding: 108 108 40
Width: 241
VWidth: 0
Flags: HW
LayerCount: 2
Back
Fore
SplineSet
83.9169921875 610 m 0
 97.9169921875 616 125.916992188 600 125.916992188 582 c 4
 125.916992188 566 115.916992188 560 111.916992188 546 c 4
 105.916992188 522 107.916992188 494 105.916992188 470 c 4
 99.9169921875 378 91.9169921875 276 107.916992188 186 c 4
 113.916992188 152 121.916992188 114 139.916992188 86 c 4
 157.916992188 60 167.916992188 50 189.916992188 34 c 0
 203.916992188 24 205.916992188 -2 189.916992188 -12 c 0
 177.916992188 -20 163.916992188 -10 151.916992188 -4 c 0
 117.916992188 14 89.9169921875 46 73.9169921875 86 c 0
 25.9169921875 202 39.9169921875 356 49.9169921875 480 c 0
 53.9169921875 512 53.9169921875 546 61.9169921875 576 c 0
 65.9169921875 590 71.9169921875 606 83.9169921875 610 c 0
EndSplineSet
Substitution2: "ss02-1" l.ss02
Substitution2: "ss01-1" l.ss01
EndChar

StartChar: v
Encoding: 118 118 41
Width: 307
VWidth: 0
Flags: HW
LayerCount: 2
Back
Fore
SplineSet
131.015625 92 m 1
 145.015625 136 159.015625 180 175.015625 224 c 0
 183.015625 252 193.015625 280 205.015625 308 c 0
 215.015625 334 221.015625 364 241.015625 384 c 4
 257.015625 400 285.015625 388 287.015625 368 c 4
 291.015625 340 267.015625 314 259.015625 288 c 0
 233.015625 216 215.015625 148 187.015625 76 c 0
 179.015625 52 165.015625 4 133.015625 0 c 0
 95.015625 -4 81.015625 50 73.015625 78 c 0
 51.015625 142 37.015625 206 29.015625 274 c 0
 25.015625 300 15.015625 334 23.015625 360 c 0
 29.015625 384 63.015625 388 75.015625 368 c 0
 87.015625 348 77.015625 322 81.015625 300 c 0
 85.015625 276 89.015625 250 93.015625 226 c 0
 101.015625 182 111.015625 132 131.015625 92 c 1
EndSplineSet
Substitution2: "ss02-1" v.ss02
Substitution2: "ss01-1" v.ss01
EndChar

StartChar: L
Encoding: 76 76 42
Width: 436
VWidth: 0
Flags: HW
LayerCount: 2
Back
Fore
SplineSet
136.84375 52 m 1
 212.84375 46 292.84375 52 368.84375 56 c 0
 392.84375 56 438.84375 56 422.84375 18 c 0
 412.84375 -6 358.84375 -4 334.84375 -4 c 0
 272.84375 -6 204.84375 -16 144.84375 -8 c 0
 114.84375 -4 86.84375 8 78.84375 40 c 0
 46.84375 196 64.84375 364 66.84375 522 c 0
 66.84375 550 68.84375 574 68.84375 602 c 0
 68.84375 614 64.84375 632 66.84375 644 c 0
 70.84375 660 84.84375 668 100.84375 664 c 0
 116.84375 660 122.84375 646 122.84375 630 c 0
 122.84375 594 122.84375 556 122.84375 520 c 0
 122.84375 418 118.84375 316 122.84375 214 c 0
 124.84375 160 136.84375 106 136.84375 52 c 1
EndSplineSet
Substitution2: "ss02-1" L.ss02
Substitution2: "ss01-1" L.ss01
EndChar

StartChar: S
Encoding: 83 83 43
Width: 443
VWidth: 0
Flags: HW
LayerCount: 2
Back
Fore
SplineSet
219.760742188 660 m 0
 259.760742188 664 303.760742188 652 335.760742188 626 c 0
 349.760742188 614 363.760742188 602 361.760742188 582 c 0
 361.760742188 562 343.760742188 548 323.760742188 556 c 0
 307.760742188 562 303.760742188 584 287.760742188 592 c 0
 251.760742188 612 199.760742188 608 169.760742188 580 c 0
 161.760742188 572 147.760742188 564 147.760742188 552 c 0
 143.760742188 512 171.760742188 466 195.760742188 436 c 0
 211.760742188 416 229.760742188 396 249.760742188 380 c 0
 321.760742188 318 423.760742188 250 411.760742188 142 c 0
 409.760742188 118 405.760742188 94 389.760742188 76 c 0
 377.760742188 64 365.760742188 52 349.760742188 44 c 0
 327.760742188 32 301.760742188 28 277.760742188 24 c 0
 205.760742188 16 135.760742188 32 71.7607421875 64 c 0
 51.7607421875 74 -8.2392578125 110 35.7607421875 134 c 0
 57.7607421875 146 89.7607421875 116 109.760742188 108 c 0
 165.760742188 84 227.760742188 70 287.760742188 84 c 0
 311.760742188 88 341.760742188 102 349.760742188 126 c 0
 361.760742188 166 343.760742188 208 317.760742188 238 c 0
 299.760742188 258 275.760742188 278 255.760742188 296 c 0
 237.760742188 312 217.760742188 324 201.760742188 340 c 0
 153.760742188 384 105.760742188 446 93.7607421875 510 c 0
 89.7607421875 530 85.7607421875 560 95.7607421875 580 c 0
 107.760742188 602 129.760742188 624 149.760742188 636 c 0
 171.760742188 648 195.760742188 658 219.760742188 660 c 0
EndSplineSet
Substitution2: "ss02-1" S.ss02
Substitution2: "ss01-1" S.ss01
EndChar

StartChar: two
Encoding: 50 50 44
Width: 416
VWidth: 0
Flags: HW
LayerCount: 2
Back
Fore
SplineSet
96 54 m 1
 172 54 252 42 328 42 c 0
 350 42 396 48 384 8 c 0
 376 -20 324 -14 300 -14 c 0
 230 -10 158 -12 90 -4 c 0
 64 0 32 10 30 42 c 0
 30 58 40 78 48 92 c 0
 68 126 92 158 114 190 c 0
 166 266 218 344 260 428 c 0
 276 462 298 498 304 536 c 0
 306 552 306 580 294 590 c 0
 284 598 264 596 252 596 c 0
 212 594 170 588 142 556 c 0
 134 548 130 538 130 526 c 0
 130 510 142 494 124 482 c 0
 106 470 84 482 78 502 c 0
 48 606 176 652 256 652 c 0
 284 652 314 656 336 636 c 0
 388 592 362 506 340 454 c 0
 278 310 176 190 96 54 c 1
EndSplineSet
Substitution2: "ss02-1" two.ss02
Substitution2: "ss01-1" two.ss01
EndChar

StartChar: semicolon
Encoding: 59 59 45
Width: 144
VWidth: 0
Flags: HW
LayerCount: 2
Back
Fore
SplineSet
51.736328125 384 m 0
 87.736328125 392 99.736328125 336 63.736328125 328 c 0
 27.736328125 320 15.736328125 376 51.736328125 384 c 0
69.736328125 120 m 0
 99.736328125 128 105.736328125 94 109.736328125 74 c 0
 115.736328125 34 117.736328125 -2 97.736328125 -38 c 0
 91.736328125 -50 83.736328125 -68 67.736328125 -72 c 0
 51.736328125 -76 33.736328125 -64 33.736328125 -46 c 0
 33.736328125 -22 51.736328125 0 55.736328125 24 c 0
 59.736328125 44 51.736328125 64 51.736328125 84 c 0
 51.736328125 98 53.736328125 116 69.736328125 120 c 0
EndSplineSet
Substitution2: "ss02-1" semicolon.ss02
Substitution2: "ss01-1" semicolon.ss01
EndChar

StartChar: quotedblright
Encoding: 8221 8221 46
Width: 221
VWidth: 0
Flags: HW
LayerCount: 2
Back
Fore
SplineSet
65.919921875 654 m 0
 87.919921875 654 93.919921875 634 97.919921875 618 c 0
 101.919921875 586 99.919921875 554 87.919921875 524 c 0
 81.919921875 508 75.919921875 496 57.919921875 496 c 0
 7.919921875 494 39.919921875 572 41.919921875 596 c 0
 41.919921875 608 37.919921875 624 41.919921875 636 c 0
 45.919921875 648 53.919921875 654 65.919921875 654 c 0
145.919921875 652 m 0
 169.919921875 660 181.919921875 640 185.919921875 620 c 0
 193.919921875 588 199.919921875 506 153.919921875 496 c 0
 137.919921875 492 125.919921875 504 121.919921875 518 c 0
 117.919921875 534 129.919921875 556 131.919921875 572 c 0
 133.919921875 592 127.919921875 608 127.919921875 628 c 0
 127.919921875 640 133.919921875 648 145.919921875 652 c 0
EndSplineSet
Substitution2: "ss02-1" quotedblright.ss02
Substitution2: "ss01-1" quotedblright.ss01
EndChar

StartChar: parenleft
Encoding: 40 40 47
Width: 263
VWidth: 0
Flags: HW
LayerCount: 2
Back
Fore
SplineSet
147.462890625 728 m 0
 163.462890625 730 181.462890625 718 179.462890625 700 c 0
 177.462890625 684 165.462890625 670 159.462890625 656 c 0
 149.462890625 632 143.462890625 604 135.462890625 578 c 0
 107.462890625 472 87.462890625 362 93.462890625 252 c 0
 97.462890625 200 103.462890625 144 129.462890625 96 c 0
 153.462890625 52 185.462890625 26 223.462890625 -4 c 0
 239.462890625 -18 235.462890625 -48 213.462890625 -52 c 0
 195.462890625 -56 177.462890625 -42 163.462890625 -32 c 0
 127.462890625 -4 95.462890625 30 75.462890625 70 c 0
 -0.537109375 218 33.462890625 406 71.462890625 560 c 0
 83.462890625 604 93.462890625 650 113.462890625 690 c 0
 121.462890625 706 127.462890625 724 147.462890625 728 c 0
EndSplineSet
Substitution2: "ss02-1" parenleft.ss02
Substitution2: "ss01-1" parenleft.ss01
EndChar

StartChar: asciicircum
Encoding: 94 94 48
Width: 289
VWidth: 0
Flags: HW
LayerCount: 2
Back
Fore
SplineSet
123.077148438 600 m 1
 115.077148438 584 101.077148438 570 93.0771484375 554 c 0
 87.0771484375 544 83.0771484375 532 75.0771484375 524 c 0
 63.0771484375 514 45.0771484375 514 35.0771484375 526 c 0
 23.0771484375 542 35.0771484375 562 43.0771484375 578 c 0
 59.0771484375 610 103.077148438 700 151.077148438 664 c 0
 171.077148438 650 181.077148438 626 193.077148438 606 c 0
 209.077148438 584 227.077148438 562 243.077148438 542 c 0
 253.077148438 530 265.077148438 512 255.077148438 496 c 0
 243.077148438 476 223.077148438 482 209.077148438 494 c 0
 181.077148438 522 141.077148438 562 127.077148438 600 c 1
 123.077148438 600 l 1
EndSplineSet
Substitution2: "ss02-1" asciicircum.ss02
Substitution2: "ss01-1" asciicircum.ss01
EndChar

StartChar: p
Encoding: 112 112 49
Width: 358
VWidth: 0
Flags: HW
LayerCount: 2
Back
Fore
SplineSet
90 2 m 1
 90 -38 90 -80 90 -120 c 0
 90 -136 94 -156 94 -172 c 0
 92 -192 70 -204 54 -196 c 0
 38 -188 38 -172 36 -156 c 0
 32 -120 30 -80 30 -44 c 0
 30 44 34 128 38 216 c 0
 38 240 42 264 42 288 c 0
 42 304 34 314 38 330 c 0
 50 370 94 382 132 376 c 0
 228 362 336 292 338 188 c 0
 340 100 254 22 174 2 c 0
 146 -6 118 -8 90 2 c 1
94 320 m 1
 100 260 90 196 90 136 c 0
 90 118 84 86 92 70 c 0
 112 30 182 64 206 80 c 0
 222 90 236 98 248 114 c 0
 258 126 270 140 274 156 c 0
 298 224 236 280 178 304 c 0
 152 316 122 328 94 320 c 1
EndSplineSet
Substitution2: "ss02-1" p.ss02
Substitution2: "ss01-1" p.ss01
EndChar

StartChar: f
Encoding: 102 102 50
Width: 257
VWidth: 0
Flags: HW
LayerCount: 2
Back
Fore
SplineSet
53.1494140625 378 m 1
 49.1494140625 390 51.1494140625 406 51.1494140625 420 c 0
 51.1494140625 468 59.1494140625 532 103.149414062 564 c 0
 155.149414062 600 251.149414062 596 265.149414062 522 c 0
 269.149414062 498 269.149414062 458 235.149414062 462 c 0
 199.149414062 466 223.149414062 516 191.149414062 528 c 0
 167.149414062 536 139.149414062 522 127.149414062 502 c 0
 107.149414062 472 105.149414062 412 113.149414062 378 c 1
 137.149414062 386 189.149414062 382 213.149414062 376 c 0
 225.149414062 372 231.149414062 368 233.149414062 356 c 0
 239.149414062 312 167.149414062 320 143.149414062 320 c 0
 133.149414062 320 123.149414062 318 113.149414062 320 c 1
 117.149414062 238 123.149414062 156 119.149414062 74 c 0
 119.149414062 50 125.149414062 -6 85.1494140625 2 c 0
 53.1494140625 8 63.1494140625 54 63.1494140625 78 c 0
 63.1494140625 158 57.1494140625 238 53.1494140625 318 c 1
 29.1494140625 318 -10.8505859375 308 -32.8505859375 316 c 0
 -52.8505859375 324 -56.8505859375 354 -36.8505859375 366 c 0
 -12.8505859375 380 25.1494140625 372 53.1494140625 378 c 1
EndSplineSet
Substitution2: "ss02-1" f.ss02
Substitution2: "ss01-1" f.ss01
EndChar

StartChar: x
Encoding: 120 120 51
Width: 323
VWidth: 0
Flags: HW
LayerCount: 2
Back
Fore
SplineSet
148.362304688 136 m 5
 136.362304688 108 108.362304688 84 90.3623046875 60 c 4
 78.3623046875 44 70.3623046875 22 56.3623046875 10 c 4
 36.3623046875 -6 6.3623046875 4 10.3623046875 32 c 4
 12.3623046875 44 22.3623046875 56 28.3623046875 68 c 4
 44.3623046875 96 62.3623046875 122 82.3623046875 148 c 4
 90.3623046875 158 112.362304688 180 112.362304688 192 c 4
 112.362304688 204 96.3623046875 220 92.3623046875 228 c 4
 76.3623046875 258 58.3623046875 288 40.3623046875 316 c 4
 32.3623046875 328 20.3623046875 340 20.3623046875 356 c 4
 20.3623046875 380 48.3623046875 392 66.3623046875 376 c 4
 86.3623046875 358 98.3623046875 330 112.362304688 308 c 4
 124.362304688 288 144.362304688 264 152.362304688 240 c 5
 192.362304688 280 216.362304688 338 256.362304688 376 c 4
 276.362304688 396 308.362304688 376 302.362304688 348 c 4
 298.362304688 334 284.362304688 324 276.362304688 312 c 4
 256.362304688 284 236.362304688 252 216.362304688 224 c 4
 208.362304688 214 196.362304688 200 192.362304688 188 c 4
 188.362304688 176 208.362304688 158 214.362304688 148 c 4
 230.362304688 122 248.362304688 96 268.362304688 72 c 4
 276.362304688 60 292.362304688 48 294.362304688 32 c 4
 298.362304688 4 266.362304688 -8 246.362304688 8 c 4
 210.362304688 40 166.362304688 92 150.362304688 136 c 5
 148.362304688 136 l 5
EndSplineSet
Substitution2: "ss02-1" x.ss02
Substitution2: "ss01-1" x.ss01
EndChar

StartChar: E
Encoding: 69 69 52
Width: 375
VWidth: 0
Flags: HW
LayerCount: 2
Back
Fore
SplineSet
130.666992188 62 m 1
 168.666992188 68 206.666992188 64 244.666992188 64 c 0
 272.666992188 64 298.666992188 66 326.666992188 66 c 0
 344.666992188 66 360.666992188 48 352.666992188 30 c 0
 344.666992188 8 312.666992188 8 292.666992188 8 c 0
 238.666992188 4 182.666992188 4 128.666992188 4 c 0
 108.666992188 4 86.6669921875 6 78.6669921875 26 c 0
 74.6669921875 38 72.6669921875 54 70.6669921875 66 c 0
 62.6669921875 106 64.6669921875 146 62.6669921875 186 c 0
 56.6669921875 290 62.6669921875 400 62.6669921875 504 c 0
 62.6669921875 536 64.6669921875 566 64.6669921875 598 c 0
 64.6669921875 610 58.6669921875 628 62.6669921875 640 c 0
 68.6669921875 664 98.6669921875 666 118.666992188 666 c 0
 174.666992188 666 230.666992188 664 286.666992188 668 c 0
 306.666992188 668 342.666992188 678 352.666992188 652 c 0
 364.666992188 622 326.666992188 614 306.666992188 612 c 0
 244.666992188 604 180.666992188 610 118.666992188 610 c 1
 126.666992188 568 118.666992188 518 118.666992188 476 c 0
 118.666992188 440 126.666992188 396 118.666992188 360 c 1
 174.666992188 360 234.666992188 366 290.666992188 358 c 0
 314.666992188 354 324.666992188 324 304.666992188 308 c 0
 292.666992188 298 270.666992188 300 254.666992188 300 c 0
 210.666992188 298 160.666992188 312 118.666992188 302 c 1
 120.666992188 222 l 1
 130.666992188 62 l 1
EndSplineSet
Substitution2: "ss02-1" E.ss02
Substitution2: "ss01-1" E.ss01
EndChar

StartChar: T
Encoding: 84 84 53
Width: 493
VWidth: 0
Flags: HW
LayerCount: 2
Back
Fore
SplineSet
246 606 m 1
 214 606 180 602 148 602 c 0
 118 602 76 594 48 606 c 0
 24 614 24 650 48 658 c 0
 72 668 112 662 140 664 c 0
 224 672 310 672 394 680 c 0
 420 682 458 692 484 684 c 0
 502 680 508 658 500 642 c 0
 490 626 462 628 446 626 c 0
 398 622 344 626 298 614 c 1
 304 602 302 584 302 568 c 0
 302 534 306 502 306 468 c 0
 306 356 304 246 304 134 c 0
 304 98 310 56 302 22 c 0
 298 6 284 -4 268 0 c 0
 252 4 248 24 248 40 c 0
 248 76 246 112 246 148 c 0
 246 304 246 450 246 606 c 1
EndSplineSet
Substitution2: "ss02-1" T.ss02
Substitution2: "ss01-1" T.ss01
EndChar

StartChar: three
Encoding: 51 51 54
Width: 386
VWidth: 0
Flags: HW
LayerCount: 2
Back
Fore
SplineSet
251.123046875 408 m 1
 333.123046875 404 359.123046875 338 355.123046875 266 c 0
 351.123046875 194 333.123046875 126 287.123046875 68 c 0
 257.123046875 30 217.123046875 4 167.123046875 8 c 0
 125.123046875 12 83.123046875 40 53.123046875 68 c 0
 39.123046875 80 23.123046875 96 33.123046875 116 c 0
 41.123046875 128 57.123046875 134 69.123046875 128 c 0
 83.123046875 122 93.123046875 104 105.123046875 96 c 0
 121.123046875 84 145.123046875 74 165.123046875 68 c 0
 215.123046875 56 249.123046875 114 269.123046875 150 c 0
 291.123046875 194 299.123046875 242 295.123046875 290 c 0
 295.123046875 310 291.123046875 336 269.123046875 344 c 0
 229.123046875 360 203.123046875 328 167.123046875 318 c 0
 149.123046875 314 133.123046875 326 131.123046875 344 c 0
 127.123046875 372 163.123046875 392 179.123046875 410 c 0
 209.123046875 446 231.123046875 494 237.123046875 540 c 0
 239.123046875 558 241.123046875 580 229.123046875 596 c 0
 203.123046875 634 135.123046875 584 115.123046875 562 c 0
 107.123046875 554 103.123046875 540 93.123046875 532 c 0
 75.123046875 520 49.123046875 532 51.123046875 556 c 0
 53.123046875 576 69.123046875 598 85.123046875 612 c 0
 125.123046875 650 207.123046875 692 259.123046875 648 c 0
 331.123046875 588 287.123046875 476 251.123046875 408 c 1
EndSplineSet
Substitution2: "ss02-1" three.ss02
Substitution2: "ss01-1" three.ss01
EndChar

StartChar: hyphen
Encoding: 45 45 55
Width: 339
VWidth: 0
Flags: HW
LayerCount: 2
Back
Fore
SplineSet
73.84765625 244 m 0
 115.84765625 248 159.84765625 242 201.84765625 242 c 0
 229.84765625 242 259.84765625 248 285.84765625 244 c 0
 313.84765625 240 317.84765625 202 291.84765625 190 c 0
 275.84765625 184 259.84765625 184 243.84765625 184 c 0
 197.84765625 180 149.84765625 184 103.84765625 188 c 0
 87.84765625 190 61.84765625 180 45.84765625 188 c 0
 29.84765625 196 23.84765625 220 37.84765625 232 c 0
 45.84765625 240 61.84765625 244 73.84765625 244 c 0
EndSplineSet
Substitution2: "ss02-1" hyphen.ss02
Substitution2: "ss01-1" hyphen.ss01
EndChar

StartChar: at
Encoding: 64 64 56
Width: 512
VWidth: 0
Flags: HW
LayerCount: 2
Back
Fore
SplineSet
232.96875 668 m 0
 280.96875 674 332.96875 628 356.96875 590 c 0
 402.96875 518 418.96875 432 388.96875 352 c 0
 374.96875 314 344.96875 276 304.96875 264 c 0
 292.96875 260 280.96875 260 268.96875 264 c 0
 262.96875 266 254.96875 272 248.96875 272 c 0
 240.96875 272 232.96875 258 224.96875 254 c 0
 200.96875 242 170.96875 228 144.96875 240 c 0
 124.96875 248 118.96875 270 114.96875 290 c 0
 108.96875 334 148.96875 392 184.96875 412 c 0
 226.96875 436 272.96875 426 280.96875 374 c 0
 282.96875 360 272.96875 332 284.96875 324 c 0
 294.96875 316 314.96875 342 320.96875 350 c 0
 364.96875 410 342.96875 502 304.96875 558 c 0
 280.96875 592 240.96875 620 200.96875 596 c 0
 164.96875 572 146.96875 530 130.96875 492 c 0
 94.96875 408 76.96875 328 100.96875 236 c 0
 112.96875 188 134.96875 142 182.96875 122 c 0
 246.96875 94 314.96875 108 378.96875 132 c 0
 402.96875 140 430.96875 162 454.96875 162 c 0
 482.96875 162 492.96875 126 468.96875 112 c 0
 428.96875 86 370.96875 68 322.96875 56 c 0
 294.96875 48 262.96875 50 232.96875 52 c 0
 208.96875 54 186.96875 58 166.96875 66 c 0
 32.96875 118 12.96875 298 40.96875 420 c 0
 46.96875 444 54.96875 470 64.96875 494 c 0
 96.96875 576 136.96875 656 232.96875 668 c 0
214.96875 368 m 1
 192.96875 352 170.96875 320 170.96875 292 c 1
 202.96875 300 228.96875 334 214.96875 368 c 1
EndSplineSet
Substitution2: "ss02-1" at.ss02
Substitution2: "ss01-1" at.ss01
EndChar

StartChar: parenright
Encoding: 41 41 57
Width: 226
VWidth: 0
Flags: HW
LayerCount: 2
Back
Fore
SplineSet
78.0810546875 736 m 0
 102.081054688 740 114.081054688 718 118.081054688 700 c 0
 134.081054688 650 144.081054688 598 158.081054688 548 c 0
 204.081054688 380 214.081054688 214 158.081054688 48 c 0
 144.081054688 8 130.081054688 -40 100.081054688 -72 c 0
 90.0810546875 -82 78.0810546875 -96 62.0810546875 -98 c 0
 38.0810546875 -102 22.0810546875 -76 34.0810546875 -56 c 0
 44.0810546875 -42 60.0810546875 -34 68.0810546875 -18 c 0
 162.081054688 158 142.081054688 358 100.081054688 542 c 0
 88.0810546875 596 70.0810546875 650 58.0810546875 704 c 0
 54.0810546875 720 62.0810546875 732 78.0810546875 736 c 0
EndSplineSet
Substitution2: "ss02-1" parenright.ss02
Substitution2: "ss01-1" parenright.ss01
EndChar

StartChar: grave
Encoding: 96 96 58
Width: 189
VWidth: 0
Flags: HW
LayerCount: 2
Back
Fore
SplineSet
51.8046875 688 m 0
 63.8046875 692 75.8046875 686 81.8046875 676 c 0
 89.8046875 664 85.8046875 648 93.8046875 636 c 0
 109.8046875 612 141.8046875 600 155.8046875 574 c 0
 163.8046875 558 155.8046875 540 139.8046875 536 c 0
 123.8046875 532 109.8046875 540 97.8046875 548 c 0
 69.8046875 568 43.8046875 596 33.8046875 632 c 0
 27.8046875 652 25.8046875 682 51.8046875 688 c 0
EndSplineSet
Substitution2: "ss02-1" grave.ss02
Substitution2: "ss01-1" grave.ss01
EndChar

StartChar: a
Encoding: 97 97 59
Width: 470
VWidth: 0
Flags: HW
LayerCount: 2
Back
Fore
SplineSet
335.75390625 134 m 1
 299.75390625 44 165.75390625 -46 77.75390625 30 c 0
 9.75390625 90 23.75390625 198 61.75390625 270 c 4
 77.75390625 302 99.75390625 336 129.75390625 358 c 0
 173.75390625 390 239.75390625 396 287.75390625 364 c 4
 315.75390625 344 319.75390625 316 339.75390625 292 c 0
 347.75390625 284 357.75390625 284 365.75390625 272 c 0
 373.75390625 260 367.75390625 248 369.75390625 236 c 0
 373.75390625 212 379.75390625 188 387.75390625 164 c 0
 395.75390625 136 409.75390625 110 421.75390625 86 c 0
 427.75390625 74 443.75390625 40 439.75390625 24 c 4
 433.75390625 4 405.75390625 -4 391.75390625 12 c 4
 367.75390625 40 351.75390625 102 335.75390625 134 c 1
203.75390625 328 m 0
 131.75390625 316 89.75390625 216 89.75390625 150 c 0
 89.75390625 102 115.75390625 56 171.75390625 64 c 0
 227.75390625 72 269.75390625 126 289.75390625 176 c 0
 293.75390625 188 305.75390625 208 303.75390625 220 c 0
 303.75390625 228 293.75390625 232 291.75390625 240 c 0
 287.75390625 252 289.75390625 266 285.75390625 278 c 0
 273.75390625 312 239.75390625 334 203.75390625 328 c 0
EndSplineSet
Substitution2: "ss02-1" a.ss02
Substitution2: "ss01-1" a.ss01
EndChar

StartChar: t
Encoding: 116 116 60
Width: 250
VWidth: 0
Flags: HW
LayerCount: 2
Back
Fore
SplineSet
51.412109375 380 m 1
 51.412109375 448 69.412109375 488 75.412109375 556 c 0
 77.412109375 576 73.412109375 614 105.412109375 612 c 0
 137.412109375 610 133.412109375 576 131.412109375 556 c 0
 125.412109375 492 121.412109375 448 109.412109375 384 c 1
 141.412109375 384 171.412109375 386 203.412109375 386 c 0
 217.412109375 386 235.412109375 388 243.412109375 376 c 0
 255.412109375 360 249.412109375 338 229.412109375 332 c 0
 193.412109375 320 143.412109375 324 105.412109375 324 c 1
 101.412109375 272 97.412109375 192 103.412109375 140 c 0
 105.412109375 120 107.412109375 102 119.412109375 84 c 4
 141.412109375 52 183.412109375 66 215.412109375 62 c 4
 231.412109375 60 241.412109375 48 241.412109375 32 c 4
 239.412109375 6 215.412109375 6 195.412109375 6 c 4
 151.412109375 4 101.412109375 10 73.412109375 46 c 4
 21.412109375 114 45.412109375 244 45.412109375 324 c 1
 25.412109375 324 -14.587890625 318 -30.587890625 330 c 0
 -46.587890625 342 -40.587890625 368 -24.587890625 376 c 0
 -6.587890625 384 31.412109375 382 51.412109375 380 c 1
EndSplineSet
Substitution2: "ss02-1" t.ss02
Substitution2: "ss01-1" t.ss01
EndChar

StartChar: y
Encoding: 121 121 61
Width: 354
VWidth: 0
Flags: HW
LayerCount: 2
Back
Fore
SplineSet
264.266601562 126 m 1
 252.266601562 114 242.266601562 92 232.266601562 76 c 0
 210.266601562 44 170.266601562 8 130.266601562 4 c 0
 82.2666015625 0 48.2666015625 34 32.2666015625 76 c 0
 12.2666015625 132 22.2666015625 202 24.2666015625 262 c 0
 24.2666015625 290 22.2666015625 364 46.2666015625 380 c 0
 66.2666015625 392 90.2666015625 374 88.2666015625 352 c 0
 80.2666015625 284 80.2666015625 212 80.2666015625 144 c 0
 80.2666015625 120 82.2666015625 80 106.266601562 68 c 0
 130.266601562 54 158.266601562 78 174.266601562 98 c 0
 210.266601562 146 244.266601562 214 260.266601562 272 c 0
 268.266601562 296 268.266601562 390 304.266601562 370 c 0
 320.266601562 362 322.266601562 354 322.266601562 338 c 0
 322.266601562 310 322.266601562 272 322.266601562 244 c 0
 322.266601562 160 328.266601562 22 316.266601562 -62 c 0
 310.266601562 -106 290.266601562 -152 250.266601562 -172 c 0
 200.266601562 -196 132.266601562 -192 80.2666015625 -180 c 0
 60.2666015625 -176 20.2666015625 -164 32.2666015625 -134 c 0
 44.2666015625 -106 74.2666015625 -120 94.2666015625 -124 c 0
 132.266601562 -132 198.266601562 -144 230.266601562 -116 c 0
 250.266601562 -98 258.266601562 -64 260.266601562 -38 c 0
 264.266601562 -2 264.266601562 34 264.266601562 70 c 0
 264.266601562 88 260.266601562 110 264.266601562 126 c 1
262.266601562 130 m 1
 264.266601562 128 l 1
 262.266601562 130 l 1
EndSplineSet
Substitution2: "ss02-1" y.ss02
Substitution2: "ss01-1" y.ss01
EndChar

StartChar: F
Encoding: 70 70 62
Width: 383
VWidth: 0
Flags: HW
LayerCount: 2
Back
Fore
SplineSet
91.6376953125 604 m 1
 71.6376953125 608 63.6376953125 630 75.6376953125 646 c 0
 81.6376953125 654 93.6376953125 656 103.637695312 660 c 0
 153.637695312 674 205.637695312 678 257.637695312 680 c 0
 285.637695312 680 311.637695312 684 339.637695312 680 c 0
 369.637695312 676 371.637695312 632 341.637695312 624 c 0
 309.637695312 616 275.637695312 620 243.637695312 620 c 0
 211.637695312 620 177.637695312 614 145.637695312 612 c 1
 145.637695312 548 l 1
 147.637695312 428 l 1
 147.637695312 336 l 1
 199.637695312 332 247.637695312 346 299.637695312 342 c 0
 321.637695312 340 339.637695312 316 323.637695312 296 c 0
 311.637695312 282 289.637695312 284 273.637695312 282 c 0
 247.637695312 280 221.637695312 278 195.637695312 278 c 0
 179.637695312 278 163.637695312 282 147.637695312 278 c 1
 155.637695312 254 147.637695312 218 147.637695312 192 c 0
 147.637695312 136 153.637695312 76 145.637695312 20 c 0
 141.637695312 -4 113.637695312 -14 97.6376953125 4 c 0
 85.6376953125 16 89.6376953125 38 89.6376953125 54 c 2
 89.6376953125 164 l 2
 89.6376953125 312 91.6376953125 456 91.6376953125 604 c 1
EndSplineSet
Substitution2: "ss02-1" F.ss02
Substitution2: "ss01-1" F.ss01
EndChar

StartChar: U
Encoding: 85 85 63
Width: 517
VWidth: 0
Flags: HW
LayerCount: 2
Back
Fore
SplineSet
93.94140625 668 m 0
 109.94140625 672 127.94140625 660 131.94140625 644 c 0
 133.94140625 632 123.94140625 618 123.94140625 606 c 0
 119.94140625 576 121.94140625 546 119.94140625 516 c 0
 113.94140625 400 115.94140625 276 139.94140625 162 c 0
 151.94140625 106 171.94140625 52 231.94140625 36 c 0
 299.94140625 16 359.94140625 70 389.94140625 126 c 0
 449.94140625 234 447.94140625 372 449.94140625 492 c 0
 449.94140625 520 449.94140625 548 447.94140625 576 c 0
 447.94140625 592 439.94140625 612 441.94140625 628 c 0
 443.94140625 640 457.94140625 652 469.94140625 652 c 0
 495.94140625 652 499.94140625 624 501.94140625 604 c 0
 507.94140625 552 507.94140625 494 505.94140625 440 c 0
 501.94140625 330 499.94140625 216 451.94140625 116 c 0
 417.94140625 44 359.94140625 -16 279.94140625 -28 c 0
 199.94140625 -40 127.94140625 16 99.94140625 88 c 0
 55.94140625 204 57.94140625 346 61.94140625 468 c 0
 63.94140625 518 63.94140625 568 69.94140625 616 c 0
 71.94140625 636 69.94140625 660 93.94140625 668 c 0
EndSplineSet
Substitution2: "ss02-1" U.ss02
Substitution2: "ss01-1" U.ss01
EndChar

StartChar: four
Encoding: 52 52 64
Width: 418
VWidth: 0
Flags: HW
LayerCount: 2
Back
Fore
SplineSet
370.815429688 372 m 1
 410.815429688 352 368.815429688 328 370.815429688 302 c 0
 378.815429688 226 374.815429688 148 382.815429688 72 c 0
 384.815429688 48 390.815429688 0 354.815429688 4 c 0
 322.815429688 8 326.815429688 52 324.815429688 76 c 0
 318.815429688 132 318.815429688 192 312.815429688 248 c 0
 310.815429688 264 318.815429688 290 310.815429688 306 c 0
 306.815429688 312 296.815429688 308 292.815429688 308 c 0
 276.815429688 306 256.815429688 306 240.815429688 304 c 0
 192.815429688 298 142.815429688 294 92.8154296875 294 c 0
 72.8154296875 294 46.8154296875 296 34.8154296875 316 c 0
 18.8154296875 344 46.8154296875 382 58.8154296875 406 c 2
 156.815429688 602 l 2
 168.815429688 624 176.815429688 664 196.815429688 680 c 0
 214.815429688 694 240.815429688 682 240.815429688 658 c 0
 238.815429688 628 212.815429688 594 200.815429688 566 c 0
 188.815429688 538 174.815429688 512 162.815429688 484 c 0
 142.815429688 440 118.815429688 398 100.815429688 354 c 1
 312.815429688 368 l 1
 308.815429688 386 314.815429688 406 314.815429688 426 c 0
 314.815429688 486 322.815429688 544 316.815429688 604 c 0
 314.815429688 626 298.815429688 668 334.815429688 672 c 0
 366.815429688 676 370.815429688 630 372.815429688 606 c 0
 376.815429688 556 372.815429688 506 372.815429688 456 c 0
 372.815429688 428 374.815429688 400 370.815429688 372 c 1
EndSplineSet
Substitution2: "ss02-1" four.ss02
Substitution2: "ss01-1" four.ss01
EndChar

StartChar: endash
Encoding: 8211 8211 65
Width: 328
VWidth: 0
Flags: HW
LayerCount: 2
Back
Fore
SplineSet
135 352 m 0
 177 356 239 362 279 346 c 0
 307 336 303 296 275 292 c 0
 255 288 235 294 215 294 c 0
 179 294 143 294 107 294 c 0
 89 294 61 286 45 294 c 0
 25 304 25 334 45 344 c 0
 69 356 109 348 135 352 c 0
EndSplineSet
Substitution2: "ss02-1" endash.ss02
Substitution2: "ss01-1" endash.ss01
EndChar

StartChar: slash
Encoding: 47 47 66
Width: 433
VWidth: 0
Flags: HW
LayerCount: 2
Back
Fore
SplineSet
368.619140625 640 m 0
 388.619140625 646 406.619140625 630 402.619140625 610 c 0
 394.619140625 574 368.619140625 538 352.619140625 506 c 0
 288.619140625 370 222.619140625 236 148.619140625 106 c 0
 132.619140625 76 114.619140625 46 96.619140625 16 c 0
 88.619140625 4 76.619140625 -14 60.619140625 -16 c 0
 42.619140625 -18 26.619140625 0 30.619140625 18 c 0
 34.619140625 28 42.619140625 38 46.619140625 46 c 0
 58.619140625 68 72.619140625 90 84.619140625 112 c 0
 156.619140625 240 224.619140625 374 290.619140625 506 c 0
 306.619140625 538 324.619140625 572 340.619140625 604 c 0
 348.619140625 616 352.619140625 636 368.619140625 640 c 0
EndSplineSet
Substitution2: "ss02-1" slash.ss02
Substitution2: "ss01-1" slash.ss01
EndChar

StartChar: asterisk
Encoding: 42 42 67
Width: 411
VWidth: 0
Flags: HW
LayerCount: 2
Back
Fore
SplineSet
181.495117188 578 m 1
 181.495117188 602 177.495117188 648 191.495117188 668 c 0
 203.495117188 686 233.495117188 684 241.495117188 662 c 0
 247.495117188 646 239.495117188 620 239.495117188 604 c 1
 259.495117188 624 285.495117188 666 313.495117188 676 c 0
 335.495117188 684 357.495117188 664 349.495117188 640 c 0
 345.495117188 630 337.495117188 624 329.495117188 616 c 0
 313.495117188 600 299.495117188 582 283.495117188 566 c 1
 303.495117188 566 335.495117188 578 355.495117188 570 c 0
 375.495117188 562 379.495117188 534 363.495117188 522 c 0
 339.495117188 504 287.495117188 506 257.495117188 502 c 1
 281.495117188 482 301.495117188 456 329.495117188 440 c 0
 345.495117188 432 369.495117188 430 377.495117188 414 c 0
 389.495117188 386 363.495117188 372 339.495117188 376 c 0
 299.495117188 384 265.495117188 410 237.495117188 438 c 1
 237.495117188 422 237.495117188 404 229.495117188 392 c 0
 217.495117188 376 195.495117188 376 183.495117188 392 c 0
 173.495117188 408 177.495117188 436 177.495117188 454 c 1
 161.495117188 438 139.495117188 410 115.495117188 404 c 0
 93.4951171875 398 75.4951171875 420 83.4951171875 440 c 0
 91.4951171875 460 113.495117188 472 125.495117188 488 c 1
 105.495117188 484 67.4951171875 476 47.4951171875 484 c 0
 27.4951171875 492 23.4951171875 520 41.4951171875 532 c 0
 51.4951171875 540 63.4951171875 538 75.4951171875 538 c 0
 95.4951171875 538 113.495117188 542 131.495117188 546 c 1
 107.495117188 566 71.4951171875 596 61.4951171875 626 c 0
 53.4951171875 646 73.4951171875 668 95.4951171875 662 c 0
 109.495117188 658 117.495117188 642 125.495117188 632 c 0
 141.495117188 612 163.495117188 596 181.495117188 578 c 1
EndSplineSet
Substitution2: "ss02-1" asterisk.ss02
Substitution2: "ss01-1" asterisk.ss01
EndChar

StartChar: braceleft
Encoding: 123 123 68
Width: 390
VWidth: 0
Flags: HW
LayerCount: 2
Back
Fore
SplineSet
169.15625 380 m 1
 189.15625 460 143.15625 558 189.15625 630 c 0
 209.15625 662 243.15625 690 281.15625 692 c 0
 303.15625 692 331.15625 682 331.15625 656 c 0
 331.15625 640 313.15625 624 297.15625 628 c 0
 289.15625 630 283.15625 636 275.15625 634 c 0
 257.15625 630 239.15625 604 231.15625 588 c 0
 219.15625 556 231.15625 520 233.15625 488 c 0
 237.15625 440 233.15625 388 225.15625 340 c 0
 221.15625 320 219.15625 304 207.15625 288 c 0
 199.15625 278 181.15625 276 181.15625 260 c 0
 181.15625 204 201.15625 118 245.15625 78 c 0
 257.15625 66 279.15625 56 295.15625 60 c 0
 307.15625 64 321.15625 72 333.15625 72 c 0
 349.15625 72 363.15625 56 359.15625 40 c 0
 355.15625 22 337.15625 12 321.15625 8 c 0
 281.15625 -4 239.15625 6 207.15625 34 c 0
 143.15625 88 125.15625 194 121.15625 274 c 1
 103.15625 276 87.15625 286 71.15625 296 c 0
 59.15625 304 47.15625 316 39.15625 330 c 0
 23.15625 358 29.15625 394 49.15625 420 c 0
 71.15625 448 113.15625 462 141.15625 434 c 0
 149.15625 426 153.15625 418 157.15625 410 c 0
 161.15625 400 167.15625 392 167.15625 380 c 1
 169.15625 380 l 1
99.15625 388 m 1
 79.15625 366 93.15625 350 117.15625 338 c 1
 113.15625 354 111.15625 376 99.15625 388 c 1
169.15625 380 m 1
 171.15625 378 l 1
 169.15625 380 l 1
EndSplineSet
Substitution2: "ss02-1" braceleft.ss02
Substitution2: "ss01-1" braceleft.ss01
EndChar

StartChar: g
Encoding: 103 103 69
Width: 383
VWidth: 0
Flags: HW
LayerCount: 2
Back
Fore
SplineSet
268.774414062 96 m 5
 224.774414062 6 96.7744140625 -56 38.7744140625 52 c 4
 2.7744140625 118 24.7744140625 196 52.7744140625 260 c 4
 62.7744140625 282 72.7744140625 306 88.7744140625 324 c 4
 104.774414062 342 124.774414062 362 146.774414062 374 c 4
 184.774414062 396 234.774414062 390 270.774414062 370 c 4
 282.774414062 362 290.774414062 352 302.774414062 344 c 4
 316.774414062 336 330.774414062 342 338.774414062 322 c 4
 352.774414062 288 330.774414062 242 328.774414062 206 c 4
 324.774414062 128 330.774414062 50 322.774414062 -28 c 4
 318.774414062 -70 306.774414062 -116 278.774414062 -146 c 4
 224.774414062 -204 162.774414062 -172 104.774414062 -138 c 4
 84.7744140625 -126 40.7744140625 -110 50.7744140625 -78 c 4
 56.7744140625 -56 78.7744140625 -58 94.7744140625 -66 c 4
 128.774414062 -84 174.774414062 -124 214.774414062 -120 c 4
 232.774414062 -118 246.774414062 -92 252.774414062 -78 c 4
 268.774414062 -40 270.774414062 4 270.774414062 46 c 4
 270.774414062 62 274.774414062 82 268.774414062 96 c 5
190.774414062 330 m 4
 170.774414062 326 156.774414062 312 142.774414062 298 c 4
 106.774414062 262 78.7744140625 196 76.7744140625 142 c 4
 74.7744140625 104 90.7744140625 46 136.774414062 54 c 4
 156.774414062 58 172.774414062 76 186.774414062 88 c 4
 228.774414062 126 266.774414062 192 272.774414062 252 c 4
 278.774414062 306 236.774414062 338 190.774414062 330 c 4
270.774414062 98 m 5
 272.774414062 96 l 5
 270.774414062 98 l 5
EndSplineSet
Substitution2: "ss02-1" g.ss02
Substitution2: "ss01-1" g.ss01
EndChar

StartChar: i
Encoding: 105 105 70
Width: 182
VWidth: 0
Flags: HW
LayerCount: 2
Back
Fore
SplineSet
71.068359375 548 m 0
 127.068359375 554 123.068359375 468 73.068359375 462 c 0
 45.068359375 458 25.068359375 492 31.068359375 516 c 0
 35.068359375 536 51.068359375 546 71.068359375 548 c 0
65.068359375 352 m 0
 101.068359375 364 103.068359375 322 103.068359375 300 c 0
 103.068359375 244 103.068359375 190 103.068359375 134 c 0
 103.068359375 110 101.068359375 78 111.068359375 58 c 0
 117.068359375 46 139.068359375 52 147.068359375 40 c 0
 157.068359375 24 151.068359375 8 135.068359375 0 c 0
 95.068359375 -16 61.068359375 8 51.068359375 48 c 0
 33.068359375 116 43.068359375 192 45.068359375 262 c 0
 45.068359375 286 37.068359375 342 65.068359375 352 c 0
EndSplineSet
Substitution2: "ss02-1" i.ss02
Substitution2: "ss01-1" i.ss01
EndChar

StartChar: z
Encoding: 122 122 71
Width: 316
VWidth: 0
Flags: HW
LayerCount: 2
Back
Fore
SplineSet
226.338867188 332 m 5
 196.338867188 332 162.338867188 332 132.338867188 328 c 4
 112.338867188 326 92.3388671875 322 72.3388671875 316 c 4
 58.3388671875 312 40.3388671875 302 26.3388671875 306 c 4
 6.3388671875 312 4.3388671875 340 22.3388671875 350 c 4
 38.3388671875 358 62.3388671875 362 80.3388671875 366 c 4
 128.338867188 378 176.338867188 382 226.338867188 382 c 4
 248.338867188 382 290.338867188 378 292.338867188 350 c 4
 294.338867188 316 254.338867188 284 234.338867188 260 c 4
 206.338867188 228 180.338867188 194 154.338867188 162 c 4
 128.338867188 130 100.338867188 96 82.3388671875 58 c 5
 112.338867188 58 142.338867188 60 172.338867188 62 c 4
 192.338867188 64 210.338867188 66 228.338867188 70 c 4
 242.338867188 72 264.338867188 78 278.338867188 74 c 4
 296.338867188 68 302.338867188 46 286.338867188 34 c 4
 272.338867188 24 248.338867188 26 232.338867188 22 c 4
 184.338867188 12 134.338867188 8 84.3388671875 8 c 4
 62.3388671875 8 34.3388671875 8 24.3388671875 30 c 4
 10.3388671875 56 40.3388671875 96 54.3388671875 118 c 4
 102.338867188 194 164.338867188 266 226.338867188 332 c 5
EndSplineSet
Substitution2: "ss02-1" z.ss02
Substitution2: "ss01-1" z.ss01
EndChar

StartChar: I
Encoding: 73 73 72
Width: 186
VWidth: 0
Flags: HW
LayerCount: 2
Back
Fore
SplineSet
96.1806640625 644 m 0
 110.180664062 648 124.180664062 636 128.180664062 622 c 0
 136.180664062 590 130.180664062 550 130.180664062 516 c 0
 130.180664062 388 132.180664062 264 132.180664062 136 c 0
 132.180664062 108 150.180664062 26 110.180664062 20 c 0
 96.1806640625 18 84.1806640625 28 80.1806640625 40 c 0
 72.1806640625 72 72.1806640625 112 72.1806640625 146 c 0
 68.1806640625 270 70.1806640625 398 74.1806640625 522 c 0
 74.1806640625 552 68.1806640625 592 74.1806640625 620 c 0
 76.1806640625 632 84.1806640625 640 96.1806640625 644 c 0
EndSplineSet
Substitution2: "ss02-1" I.ss02
Substitution2: "ss01-1" I.ss01
EndChar

StartChar: V
Encoding: 86 86 73
Width: 449
VWidth: 0
Flags: HW
LayerCount: 2
Back
Fore
SplineSet
200.04296875 80 m 1
 204.04296875 108 222.04296875 136 232.04296875 164 c 0
 248.04296875 208 262.04296875 254 278.04296875 298 c 0
 296.04296875 346 314.04296875 398 334.04296875 446 c 0
 356.04296875 502 378.04296875 562 406.04296875 614 c 0
 418.04296875 634 450.04296875 642 458.04296875 614 c 0
 462.04296875 600 452.04296875 584 448.04296875 572 c 0
 436.04296875 544 422.04296875 512 410.04296875 484 c 0
 364.04296875 368 328.04296875 248 284.04296875 132 c 0
 270.04296875 96 256.04296875 58 240.04296875 22 c 0
 232.04296875 6 222.04296875 -14 202.04296875 -16 c 0
 182.04296875 -18 170.04296875 -2 162.04296875 14 c 0
 142.04296875 50 132.04296875 94 122.04296875 134 c 0
 90.04296875 258 68.04296875 386 48.04296875 510 c 0
 44.04296875 538 38.04296875 568 34.04296875 596 c 0
 32.04296875 608 26.04296875 626 34.04296875 638 c 0
 46.04296875 658 76.04296875 652 84.04296875 632 c 0
 90.04296875 616 88.04296875 596 92.04296875 580 c 0
 100.04296875 540 106.04296875 502 114.04296875 462 c 0
 122.04296875 414 134.04296875 362 144.04296875 314 c 0
 160.04296875 238 168.04296875 152 200.04296875 80 c 1
EndSplineSet
Substitution2: "ss02-1" V.ss02
Substitution2: "ss01-1" V.ss01
EndChar

StartChar: five
Encoding: 53 53 74
Width: 393
VWidth: 0
Flags: HW
LayerCount: 2
Back
Fore
SplineSet
60.5810546875 572 m 1
 8.5810546875 592 54.5810546875 632 86.5810546875 640 c 0
 150.581054688 652 218.581054688 662 284.581054688 662 c 0
 306.581054688 662 354.581054688 654 332.581054688 620 c 0
 320.581054688 602 290.581054688 602 270.581054688 602 c 0
 234.581054688 600 200.581054688 596 164.581054688 592 c 0
 152.581054688 590 132.581054688 594 120.581054688 588 c 0
 108.581054688 584 114.581054688 552 114.581054688 540 c 0
 114.581054688 492 110.581054688 440 122.581054688 392 c 1
 194.581054688 438 300.581054688 414 336.581054688 336 c 0
 384.581054688 236 370.581054688 104 270.581054688 44 c 0
 218.581054688 12 146.581054688 0 86.5810546875 16 c 0
 66.5810546875 20 24.5810546875 36 30.5810546875 64 c 0
 34.5810546875 78 46.5810546875 86 60.5810546875 86 c 0
 72.5810546875 86 86.5810546875 74 98.5810546875 70 c 0
 118.581054688 66 142.581054688 66 162.581054688 68 c 0
 198.581054688 72 240.581054688 86 266.581054688 114 c 0
 314.581054688 162 312.581054688 256 280.581054688 312 c 0
 254.581054688 358 204.581054688 364 158.581054688 344 c 0
 138.581054688 336 120.581054688 318 98.5810546875 324 c 0
 74.5810546875 332 68.5810546875 358 64.5810546875 380 c 0
 58.5810546875 424 58.5810546875 466 58.5810546875 510 c 0
 58.5810546875 530 56.5810546875 552 60.5810546875 572 c 1
EndSplineSet
Substitution2: "ss02-1" five.ss02
Substitution2: "ss01-1" five.ss01
EndChar

StartChar: emdash
Encoding: 8212 8212 75
Width: 526
VWidth: 0
Flags: HW
LayerCount: 2
Back
Fore
SplineSet
434.546875 372 m 0
 446.546875 372 468.546875 378 480.546875 372 c 0
 496.546875 364 502.546875 336 486.546875 324 c 0
 466.546875 308 414.546875 314 388.546875 314 c 0
 300.546875 310 218.546875 296 130.546875 304 c 0
 104.546875 306 22.546875 302 30.546875 346 c 0
 38.546875 386 100.546875 362 128.546875 362 c 0
 200.546875 358 270.546875 368 342.546875 372 c 0
 374.546875 374 402.546875 368 434.546875 372 c 0
EndSplineSet
Substitution2: "ss02-1" emdash.ss02
Substitution2: "ss01-1" emdash.ss01
EndChar

StartChar: backslash
Encoding: 92 92 76
Width: 374
VWidth: 0
Flags: HW
LayerCount: 2
Back
Fore
SplineSet
51.01953125 636 m 0
 71.01953125 640 83.01953125 624 91.01953125 608 c 0
 107.01953125 572 121.01953125 534 133.01953125 496 c 0
 181.01953125 360 235.01953125 222 291.01953125 90 c 0
 299.01953125 68 309.01953125 44 321.01953125 24 c 0
 327.01953125 12 339.01953125 8 343.01953125 -4 c 0
 347.01953125 -20 337.01953125 -36 323.01953125 -40 c 0
 303.01953125 -44 289.01953125 -34 279.01953125 -18 c 0
 259.01953125 10 247.01953125 42 233.01953125 72 c 0
 173.01953125 204 123.01953125 342 77.01953125 480 c 0
 67.01953125 508 59.01953125 538 47.01953125 566 c 0
 43.01953125 578 35.01953125 590 31.01953125 602 c 0
 27.01953125 618 35.01953125 632 51.01953125 636 c 0
EndSplineSet
Substitution2: "ss02-1" backslash.ss02
Substitution2: "ss01-1" backslash.ss01
EndChar

StartChar: plus
Encoding: 43 43 77
Width: 396
VWidth: 0
Flags: HW
LayerCount: 2
Back
Fore
SplineSet
210.16015625 166 m 1
 216.16015625 144 212.16015625 114 212.16015625 92 c 0
 212.16015625 84 214.16015625 74 210.16015625 66 c 0
 202.16015625 46 174.16015625 44 162.16015625 60 c 0
 150.16015625 76 152.16015625 114 152.16015625 134 c 0
 152.16015625 142 156.16015625 158 150.16015625 164 c 0
 146.16015625 168 130.16015625 168 122.16015625 168 c 0
 96.16015625 168 34.16015625 158 30.16015625 196 c 0
 26.16015625 236 98.16015625 224 122.16015625 224 c 0
 130.16015625 224 146.16015625 220 150.16015625 228 c 0
 154.16015625 236 152.16015625 256 152.16015625 264 c 0
 150.16015625 284 150.16015625 300 150.16015625 320 c 0
 150.16015625 332 146.16015625 342 152.16015625 354 c 0
 164.16015625 374 194.16015625 370 202.16015625 348 c 0
 214.16015625 312 210.16015625 264 210.16015625 228 c 1
 254.16015625 228 304.16015625 236 346.16015625 224 c 0
 366.16015625 218 374.16015625 190 356.16015625 176 c 0
 344.16015625 168 324.16015625 170 308.16015625 170 c 0
 276.16015625 170 240.16015625 174 210.16015625 166 c 1
EndSplineSet
Substitution2: "ss02-1" plus.ss02
Substitution2: "ss01-1" plus.ss01
EndChar

StartChar: bar
Encoding: 124 124 78
Width: 145
VWidth: 0
Flags: HW
LayerCount: 2
Back
Fore
SplineSet
53.3134765625 656 m 0
 73.3134765625 660 87.3134765625 640 87.3134765625 624 c 0
 91.3134765625 568 91.3134765625 510 91.3134765625 454 c 0
 91.3134765625 434 89.3134765625 410 65.3134765625 406 c 0
 37.3134765625 402 35.3134765625 432 33.3134765625 452 c 0
 29.3134765625 502 29.3134765625 550 31.3134765625 600 c 0
 31.3134765625 620 25.3134765625 652 53.3134765625 656 c 0
55.3134765625 280 m 0
 83.3134765625 288 95.3134765625 258 99.3134765625 236 c 0
 109.313476562 176 109.313476562 110 113.313476562 50 c 0
 115.313476562 30 121.313476562 0 95.3134765625 -8 c 0
 63.3134765625 -18 59.3134765625 20 55.3134765625 40 c 0
 47.3134765625 100 47.3134765625 154 45.3134765625 214 c 0
 45.3134765625 234 23.3134765625 270 55.3134765625 280 c 0
EndSplineSet
Substitution2: "ss02-1" bar.ss02
Substitution2: "ss01-1" bar.ss01
EndChar

StartChar: s
Encoding: 115 115 79
Width: 314
VWidth: 0
Flags: HW
LayerCount: 2
Back
Fore
SplineSet
214.36328125 62 m 1
 190.36328125 126 158.36328125 172 114.36328125 224 c 0
 90.36328125 252 64.36328125 298 80.36328125 336 c 4
 102.36328125 388 176.36328125 390 222.36328125 378 c 4
 242.36328125 374 276.36328125 364 274.36328125 336 c 4
 274.36328125 322 260.36328125 312 244.36328125 312 c 4
 220.36328125 314 202.36328125 330 174.36328125 328 c 4
 166.36328125 328 132.36328125 322 134.36328125 308 c 4
 138.36328125 288 168.36328125 252 180.36328125 238 c 0
 214.36328125 198 248.36328125 156 264.36328125 104 c 0
 272.36328125 82 278.36328125 52 266.36328125 32 c 0
 254.36328125 8 228.36328125 2 204.36328125 2 c 0
 156.36328125 2 100.36328125 16 62.36328125 44 c 0
 46.36328125 56 16.36328125 84 20.36328125 108 c 0
 24.36328125 124 44.36328125 134 60.36328125 126 c 0
 74.36328125 118 82.36328125 100 94.36328125 92 c 0
 122.36328125 72 178.36328125 54 214.36328125 62 c 1
EndSplineSet
Substitution2: "ss02-1" s.ss02
Substitution2: "ss01-1" s.ss01
EndChar

StartChar: j
Encoding: 106 106 80
Width: 252
VWidth: 0
Flags: HW
LayerCount: 2
Back
Fore
SplineSet
143.333007812 532 m 0
 187.333007812 544 223.333007812 466 167.333007812 454 c 0
 123.333007812 444 99.3330078125 520 143.333007812 532 c 0
151.333007812 368 m 0
 167.333007812 374 183.333007812 366 187.333007812 350 c 0
 197.333007812 314 193.333007812 268 197.333007812 232 c 0
 203.333007812 144 207.333007812 50 185.333007812 -38 c 0
 171.333007812 -94 141.333007812 -144 81.3330078125 -160 c 0
 45.3330078125 -170 13.3330078125 -164 -18.6669921875 -144 c 0
 -34.6669921875 -132 -50.6669921875 -110 -30.6669921875 -92 c 0
 -6.6669921875 -70 21.3330078125 -108 45.3330078125 -108 c 0
 107.333007812 -110 127.333007812 -38 135.333007812 10 c 0
 151.333007812 98 145.333007812 192 137.333007812 280 c 0
 135.333007812 304 123.333007812 356 151.333007812 368 c 0
EndSplineSet
Substitution2: "ss02-1" j.ss02
Substitution2: "ss01-1" j.ss01
EndChar

StartChar: C
Encoding: 67 67 81
Width: 429
VWidth: 0
Flags: HW
LayerCount: 2
Back
Fore
SplineSet
222.3671875 668 m 0
 286.3671875 678 342.3671875 652 378.3671875 600 c 0
 392.3671875 580 416.3671875 524 384.3671875 508 c 0
 344.3671875 488 346.3671875 546 334.3671875 566 c 0
 310.3671875 602 274.3671875 618 230.3671875 610 c 0
 186.3671875 600 158.3671875 554 142.3671875 514 c 0
 114.3671875 434 98.3671875 338 102.3671875 252 c 0
 104.3671875 220 110.3671875 176 130.3671875 148 c 0
 164.3671875 100 236.3671875 32 300.3671875 52 c 0
 340.3671875 66 374.3671875 100 408.3671875 126 c 0
 420.3671875 136 440.3671875 142 452.3671875 126 c 0
 468.3671875 106 450.3671875 88 436.3671875 76 c 0
 404.3671875 48 366.3671875 16 324.3671875 0 c 0
 232.3671875 -32 124.3671875 40 76.3671875 118 c 0
 18.3671875 210 42.3671875 346 62.3671875 446 c 0
 70.3671875 482 78.3671875 520 94.3671875 554 c 0
 118.3671875 608 162.3671875 660 222.3671875 668 c 0
EndSplineSet
Substitution2: "ss02-1" C.ss02
Substitution2: "ss01-1" C.ss01
EndChar

StartChar: J
Encoding: 74 74 82
Width: 361
VWidth: 0
Flags: HW
LayerCount: 2
Back
Fore
SplineSet
278.734375 660 m 0
 300.734375 666 312.734375 648 314.734375 628 c 0
 318.734375 584 318.734375 536 322.734375 492 c 0
 334.734375 376 336.734375 252 300.734375 140 c 0
 282.734375 88 246.734375 28 188.734375 16 c 0
 134.734375 4 68.734375 16 26.734375 52 c 0
 6.734375 68 -29.265625 106 2.734375 128 c 0
 30.734375 148 56.734375 100 76.734375 88 c 0
 104.734375 72 158.734375 64 188.734375 80 c 0
 210.734375 92 230.734375 122 238.734375 146 c 0
 286.734375 266 272.734375 408 264.734375 534 c 0
 262.734375 566 256.734375 604 258.734375 636 c 0
 258.734375 648 266.734375 656 278.734375 660 c 0
EndSplineSet
Substitution2: "ss02-1" J.ss02
Substitution2: "ss01-1" J.ss01
EndChar

StartChar: W
Encoding: 87 87 83
Width: 610
VWidth: 0
Flags: HW
LayerCount: 2
Back
Fore
SplineSet
317.770507812 114 m 1
 293.770507812 72 259.770507812 10 203.770507812 4 c 0
 187.770507812 2 169.770507812 8 153.770507812 12 c 0
 137.770507812 16 123.770507812 28 115.770507812 42 c 0
 107.770507812 56 97.7705078125 70 91.7705078125 86 c 0
 47.7705078125 210 57.7705078125 354 57.7705078125 484 c 0
 57.7705078125 524 57.7705078125 566 53.7705078125 606 c 0
 51.7705078125 622 43.7705078125 640 59.7705078125 652 c 0
 75.7705078125 664 97.7705078125 658 103.770507812 638 c 0
 115.770507812 602 107.770507812 566 111.770507812 530 c 0
 121.770507812 410 107.770507812 292 131.770507812 172 c 0
 139.770507812 138 147.770507812 64 193.770507812 64 c 0
 213.770507812 64 235.770507812 94 245.770507812 110 c 0
 285.770507812 170 287.770507812 236 281.770507812 304 c 0
 279.770507812 328 285.770507812 372 321.770507812 364 c 0
 353.770507812 358 351.770507812 314 351.770507812 290 c 0
 351.770507812 228 349.770507812 168 385.770507812 112 c 0
 397.770507812 92 421.770507812 68 447.770507812 70 c 0
 459.770507812 70 467.770507812 84 473.770507812 92 c 0
 493.770507812 116 505.770507812 148 513.770507812 180 c 0
 537.770507812 300 537.770507812 428 521.770507812 548 c 0
 517.770507812 576 501.770507812 612 505.770507812 640 c 0
 509.770507812 660 533.770507812 672 549.770507812 660 c 0
 561.770507812 652 561.770507812 632 565.770507812 620 c 0
 573.770507812 584 579.770507812 548 583.770507812 512 c 0
 591.770507812 432 591.770507812 356 585.770507812 276 c 0
 581.770507812 208 569.770507812 138 535.770507812 78 c 0
 521.770507812 54 503.770507812 26 475.770507812 14 c 0
 407.770507812 -16 341.770507812 60 317.770507812 114 c 1
EndSplineSet
Substitution2: "ss02-1" W.ss02
Substitution2: "ss01-1" W.ss01
EndChar

StartChar: six
Encoding: 54 54 84
Width: 463
VWidth: 0
Flags: HW
LayerCount: 2
Back
Fore
SplineSet
90 244 m 1
 94 268 114 294 130 314 c 0
 190 388 296 428 376 364 c 0
 388 354 402 340 410 326 c 0
 422 310 426 288 430 268 c 0
 450 162 380 68 300 8 c 0
 272 -14 230 -38 194 -40 c 0
 142 -42 98 0 74 40 c 0
 40 98 30 168 30 236 c 0
 30 338 50 440 82 536 c 0
 98 582 116 632 156 664 c 0
 172 676 208 688 222 666 c 0
 242 638 204 628 188 616 c 0
 172 602 162 586 154 566 c 0
 122 494 102 416 94 336 c 0
 90 308 82 272 90 244 c 1
274 340 m 0
 178 326 134 228 122 140 c 0
 120 124 116 104 118 88 c 0
 122 58 162 16 194 20 c 0
 218 22 246 44 264 56 c 0
 320 98 364 150 374 220 c 0
 382 276 338 350 274 340 c 0
EndSplineSet
Substitution2: "ss02-1" six.ss02
Substitution2: "ss01-1" six.ss01
EndChar

StartChar: equal
Encoding: 61 61 85
Width: 355
VWidth: 0
Flags: HW
LayerCount: 2
Back
Fore
SplineSet
160.815429688 436 m 0
 196.815429688 440 250.815429688 444 286.815429688 432 c 0
 310.815429688 422 312.815429688 384 284.815429688 378 c 0
 272.815429688 376 256.815429688 378 244.815429688 378 c 0
 194.815429688 374 144.815429688 376 94.8154296875 376 c 0
 74.8154296875 376 42.8154296875 374 32.8154296875 394 c 0
 24.8154296875 410 34.8154296875 428 50.8154296875 432 c 0
 82.8154296875 440 126.815429688 432 160.815429688 436 c 0
276.815429688 276 m 0
 288.815429688 276 304.815429688 276 314.815429688 268 c 0
 328.815429688 256 328.815429688 234 312.815429688 224 c 0
 296.815429688 212 268.815429688 216 248.815429688 214 c 0
 194.815429688 210 140.815429688 208 86.8154296875 208 c 0
 62.8154296875 208 26.8154296875 216 40.8154296875 248 c 0
 50.8154296875 272 82.8154296875 262 102.815429688 264 c 0
 160.815429688 268 218.815429688 270 276.815429688 276 c 0
EndSplineSet
Substitution2: "ss02-1" equal.ss02
Substitution2: "ss01-1" equal.ss01
EndChar

StartChar: asciitilde
Encoding: 126 126 86
Width: 402
VWidth: 0
Flags: HW
LayerCount: 2
Back
Fore
SplineSet
340.518554688 406 m 0
 376.518554688 408 374.518554688 360 368.518554688 336 c 0
 356.518554688 292 318.518554688 260 274.518554688 252 c 0
 236.518554688 244 202.518554688 270 174.518554688 292 c 0
 162.518554688 302 148.518554688 316 132.518554688 320 c 0
 92.5185546875 332 92.5185546875 264 58.5185546875 264 c 0
 30.5185546875 264 24.5185546875 292 34.5185546875 312 c 0
 50.5185546875 344 80.5185546875 370 114.518554688 378 c 0
 158.518554688 386 186.518554688 358 218.518554688 334 c 0
 232.518554688 324 248.518554688 310 266.518554688 312 c 0
 290.518554688 316 310.518554688 338 314.518554688 362 c 0
 318.518554688 380 312.518554688 404 340.518554688 406 c 0
EndSplineSet
Substitution2: "ss02-1" asciitilde.ss02
Substitution2: "ss01-1" asciitilde.ss01
EndChar

StartChar: comma
Encoding: 44 44 87
Width: 138
VWidth: 0
Flags: HW
LayerCount: 2
Back
Fore
SplineSet
76 104 m 0
 92 108 108 94 108 78 c 0
 108 44 106 -32 62 -40 c 0
 46 -44 32 -32 30 -16 c 0
 30 -2 38 8 42 20 c 0
 50 44 44 98 76 104 c 0
EndSplineSet
Substitution2: "ss02-1" comma.ss02
Substitution2: "ss01-1" comma.ss01
EndChar

StartChar: braceright
Encoding: 125 125 88
Width: 360
VWidth: 0
Flags: HW
LayerCount: 2
Back
Fore
SplineSet
222.799804688 262 m 1
 232.799804688 202 236.799804688 142 236.799804688 82 c 0
 236.799804688 46 236.799804688 8 222.799804688 -24 c 0
 206.799804688 -60 152.799804688 -62 120.799804688 -54 c 0
 106.799804688 -50 90.7998046875 -48 84.7998046875 -32 c 0
 78.7998046875 -16 90.7998046875 4 108.799804688 4 c 0
 124.799804688 4 164.799804688 -16 172.799804688 8 c 0
 182.799804688 36 180.799804688 72 178.799804688 100 c 0
 174.799804688 144 174.799804688 184 168.799804688 226 c 0
 164.799804688 246 166.799804688 276 158.799804688 296 c 0
 154.799804688 308 146.799804688 314 142.799804688 326 c 0
 134.799804688 348 130.799804688 372 128.799804688 396 c 0
 124.799804688 436 122.799804688 480 122.799804688 522 c 0
 122.799804688 550 124.799804688 582 114.799804688 608 c 0
 110.799804688 616 106.799804688 630 98.7998046875 632 c 0
 76.7998046875 636 60.7998046875 596 36.7998046875 624 c 0
 32.7998046875 628 30.7998046875 632 30.7998046875 636 c 0
 22.7998046875 668 76.7998046875 690 102.799804688 688 c 0
 142.799804688 684 162.799804688 652 172.799804688 618 c 0
 184.799804688 574 178.799804688 524 180.799804688 480 c 0
 180.799804688 464 178.799804688 440 186.799804688 424 c 1
 212.799804688 476 286.799804688 458 314.799804688 420 c 0
 362.799804688 360 290.799804688 262 222.799804688 262 c 1
218.799804688 322 m 1
 240.799804688 322 276.799804688 354 266.799804688 380 c 0
 262.799804688 390 244.799804688 400 236.799804688 392 c 0
 226.799804688 382 222.799804688 364 220.799804688 352 c 0
 218.799804688 342 218.799804688 332 218.799804688 322 c 1
EndSplineSet
Substitution2: "ss02-1" braceright.ss02
Substitution2: "ss01-1" braceright.ss01
EndChar

StartChar: c
Encoding: 99 99 89
Width: 349
VWidth: 0
Flags: HW
LayerCount: 2
Back
Fore
SplineSet
160.43359375 384 m 4
 196.43359375 388 288.43359375 368 276.43359375 316 c 4
 272.43359375 300 256.43359375 292 240.43359375 296 c 4
 230.43359375 300 226.43359375 310 218.43359375 316 c 4
 198.43359375 332 168.43359375 332 144.43359375 320 c 4
 120.43359375 308 108.43359375 268 100.43359375 244 c 0
 78.43359375 176 96.43359375 88 172.43359375 64 c 0
 200.43359375 54 230.43359375 60 250.43359375 84 c 0
 258.43359375 94 264.43359375 108 272.43359375 116 c 0
 284.43359375 128 304.43359375 126 314.43359375 112 c 0
 324.43359375 98 316.43359375 82 308.43359375 70 c 0
 292.43359375 42 268.43359375 16 236.43359375 6 c 0
 148.43359375 -22 60.43359375 48 36.43359375 130 c 0
 24.43359375 174 30.43359375 222 44.43359375 264 c 0
 62.43359375 320 100.43359375 376 160.43359375 384 c 4
EndSplineSet
Substitution2: "ss02-1" c.ss02
Substitution2: "ss01-1" c.ss01
EndChar

StartChar: m
Encoding: 109 109 90
Width: 557
VWidth: 0
Flags: HW
LayerCount: 2
Back
Fore
SplineSet
98.5595703125 324 m 1
 110.559570312 380 202.559570312 416 248.559570312 380 c 0
 278.559570312 356 284.559570312 316 294.559570312 282 c 1
 302.559570312 300 314.559570312 318 328.559570312 334 c 0
 370.559570312 382 426.559570312 384 462.559570312 328 c 0
 502.559570312 264 514.559570312 186 522.559570312 114 c 0
 526.559570312 86 528.559570312 68 524.559570312 40 c 4
 524.559570312 28 522.559570312 16 512.559570312 8 c 4
 494.559570312 -8 468.559570312 6 468.559570312 28 c 4
 464.559570312 124 460.559570312 228 412.559570312 298 c 0
 408.559570312 304 402.559570312 312 394.559570312 312 c 0
 378.559570312 312 364.559570312 284 356.559570312 272 c 0
 336.559570312 236 330.559570312 190 322.559570312 150 c 0
 318.559570312 130 314.559570312 106 294.559570312 98 c 0
 274.559570312 90 258.559570312 108 254.559570312 126 c 0
 242.559570312 178 244.559570312 232 232.559570312 284 c 0
 228.559570312 296 220.559570312 334 204.559570312 334 c 0
 164.559570312 336 146.559570312 288 138.559570312 258 c 0
 120.559570312 198 114.559570312 132 112.559570312 68 c 0
 112.559570312 44 116.559570312 24 96.5595703125 8 c 0
 84.5595703125 -4 62.5595703125 0 54.5595703125 16 c 0
 46.5595703125 32 48.5595703125 36 48.5595703125 52 c 0
 48.5595703125 132 42.5595703125 214 42.5595703125 294 c 0
 42.5595703125 316 38.5595703125 340 40.5595703125 362 c 0
 42.5595703125 384 72.5595703125 394 88.5595703125 378 c 0
 100.559570312 366 96.5595703125 340 96.5595703125 324 c 1
 98.5595703125 324 l 1
EndSplineSet
Substitution2: "ss02-1" m.ss02
Substitution2: "ss01-1" m.ss01
EndChar

StartChar: G
Encoding: 71 71 91
Width: 535
VWidth: 0
Flags: HW
LayerCount: 2
Back
Fore
SplineSet
445.333007812 66 m 1
 355.333007812 -38 147.333007812 -20 75.3330078125 100 c 0
 55.3330078125 132 51.3330078125 164 45.3330078125 200 c 0
 29.3330078125 302 49.3330078125 420 105.333007812 508 c 0
 121.333007812 536 139.333007812 564 163.333007812 584 c 0
 215.333007812 628 277.333007812 658 345.333007812 632 c 0
 381.333007812 618 433.333007812 566 409.333007812 522 c 0
 401.333007812 506 379.333007812 504 367.333007812 516 c 0
 359.333007812 524 363.333007812 534 359.333007812 544 c 0
 353.333007812 560 331.333007812 578 315.333007812 582 c 0
 261.333007812 596 207.333007812 556 177.333007812 512 c 0
 161.333007812 490 147.333007812 466 135.333007812 442 c 0
 125.333007812 420 119.333007812 396 113.333007812 372 c 0
 89.3330078125 272 83.3330078125 128 193.333007812 78 c 0
 213.333007812 70 233.333007812 64 255.333007812 60 c 0
 283.333007812 56 313.333007812 56 341.333007812 64 c 0
 397.333007812 82 415.333007812 128 423.333007812 182 c 0
 427.333007812 212 417.333007812 238 445.333007812 260 c 1
 419.333007812 264 393.333007812 264 367.333007812 268 c 0
 343.333007812 272 305.333007812 272 285.333007812 288 c 0
 267.333007812 304 267.333007812 338 291.333007812 348 c 0
 311.333007812 356 321.333007812 334 337.333007812 330 c 0
 369.333007812 322 403.333007812 320 435.333007812 320 c 0
 453.333007812 320 475.333007812 324 487.333007812 308 c 0
 503.333007812 292 505.333007812 262 505.333007812 242 c 0
 505.333007812 200 503.333007812 158 503.333007812 116 c 0
 503.333007812 88 501.333007812 64 501.333007812 36 c 0
 501.333007812 24 503.333007812 10 495.333007812 0 c 0
 483.333007812 -14 459.333007812 -12 451.333007812 4 c 0
 443.333007812 20 443.333007812 50 445.333007812 66 c 1
EndSplineSet
Substitution2: "ss02-1" G.ss02
Substitution2: "ss01-1" G.ss01
EndChar

StartChar: K
Encoding: 75 75 92
Width: 421
VWidth: 0
Flags: HW
LayerCount: 2
Back
Fore
SplineSet
115.275390625 220 m 1
 121.275390625 198 115.275390625 170 115.275390625 148 c 0
 115.275390625 100 121.275390625 48 113.275390625 0 c 0
 109.275390625 -24 77.275390625 -36 63.275390625 -12 c 0
 55.275390625 0 59.275390625 16 59.275390625 28 c 0
 55.275390625 68 57.275390625 106 57.275390625 146 c 0
 57.275390625 276 61.275390625 408 53.275390625 538 c 0
 51.275390625 562 45.275390625 596 57.275390625 620 c 0
 65.275390625 636 85.275390625 646 101.275390625 632 c 0
 117.275390625 618 107.275390625 582 107.275390625 562 c 0
 107.275390625 514 109.275390625 468 113.275390625 420 c 0
 113.275390625 404 111.275390625 384 117.275390625 368 c 1
 127.275390625 388 151.275390625 410 167.275390625 426 c 0
 197.275390625 458 227.275390625 488 255.275390625 524 c 0
 267.275390625 540 283.275390625 558 293.275390625 578 c 0
 299.275390625 590 299.275390625 604 309.275390625 612 c 0
 333.275390625 632 357.275390625 604 353.275390625 580 c 0
 347.275390625 552 325.275390625 526 309.275390625 502 c 0
 273.275390625 454 235.275390625 412 195.275390625 368 c 2
 147.275390625 314 l 2
 143.275390625 310 131.275390625 300 133.275390625 292 c 0
 135.275390625 284 147.275390625 276 151.275390625 272 c 0
 169.275390625 254 189.275390625 240 209.275390625 224 c 0
 265.275390625 184 325.275390625 148 373.275390625 98 c 0
 387.275390625 84 411.275390625 68 419.275390625 48 c 0
 429.275390625 20 395.275390625 2 375.275390625 18 c 0
 347.275390625 38 323.275390625 70 295.275390625 92 c 0
 239.275390625 138 175.275390625 178 115.275390625 220 c 1
EndSplineSet
Substitution2: "ss02-1" K.ss02
Substitution2: "ss01-1" K.ss01
EndChar

StartChar: X
Encoding: 88 88 93
Width: 438
VWidth: 0
Flags: HW
LayerCount: 2
Back
Fore
SplineSet
240 256 m 1
 232 230 214 206 202 182 c 0
 172 124 144 66 108 12 c 0
 100 0 92 -14 80 -18 c 0
 62 -26 42 -14 42 6 c 0
 42 28 68 58 80 78 c 0
 112 134 140 194 170 252 c 0
 178 268 204 298 204 318 c 0
 204 326 194 334 190 342 c 0
 180 358 172 376 162 392 c 0
 130 446 98 498 66 554 c 0
 50 580 30 608 30 640 c 0
 30 664 62 678 78 658 c 0
 86 650 86 636 90 624 c 0
 98 604 110 586 122 568 c 0
 148 524 176 482 202 438 c 0
 214 418 230 398 238 378 c 1
 242 378 l 1
 252 410 274 438 290 466 c 0
 318 514 342 566 374 614 c 0
 390 636 430 642 430 606 c 0
 430 586 406 564 398 546 c 0
 370 494 342 440 314 388 c 0
 306 372 296 356 288 340 c 0
 284 334 278 326 278 318 c 0
 278 298 304 268 314 252 c 0
 346 196 378 142 410 86 c 0
 422 66 448 38 448 16 c 0
 448 -4 428 -16 410 -8 c 0
 398 -4 394 8 386 18 c 0
 354 66 324 118 294 170 c 0
 278 198 252 226 244 256 c 1
 240 256 l 1
EndSplineSet
Substitution2: "ss02-1" X.ss02
Substitution2: "ss01-1" X.ss01
EndChar

StartChar: seven
Encoding: 55 55 94
Width: 410
VWidth: 0
Flags: HW
LayerCount: 2
Back
Fore
SplineSet
317.831054688 594 m 1
 273.831054688 594 227.831054688 594 183.831054688 594 c 0
 153.831054688 594 123.831054688 590 93.8310546875 594 c 0
 69.8310546875 598 19.8310546875 598 31.8310546875 636 c 0
 43.8310546875 668 95.8310546875 648 119.831054688 648 c 0
 183.831054688 648 251.831054688 652 315.831054688 652 c 0
 351.831054688 652 381.831054688 642 379.831054688 602 c 0
 379.831054688 568 363.831054688 530 355.831054688 496 c 0
 327.831054688 372 281.831054688 250 253.831054688 126 c 0
 245.831054688 90 239.831054688 50 229.831054688 14 c 0
 225.831054688 -2 213.831054688 -16 193.831054688 -12 c 0
 179.831054688 -8 171.831054688 4 173.831054688 18 c 0
 177.831054688 56 191.831054688 94 197.831054688 132 c 0
 213.831054688 224 247.831054688 314 271.831054688 406 c 0
 281.831054688 448 291.831054688 490 301.831054688 532 c 0
 305.831054688 552 307.831054688 574 317.831054688 594 c 1
EndSplineSet
Substitution2: "ss02-1" seven.ss02
Substitution2: "ss01-1" seven.ss01
EndChar

StartChar: exclam
Encoding: 33 33 95
Width: 149
VWidth: 0
Flags: HW
LayerCount: 2
Back
Fore
SplineSet
82.4453125 644 m 0
 126.4453125 658 118.4453125 580 118.4453125 556 c 0
 118.4453125 460 110.4453125 364 114.4453125 268 c 0
 114.4453125 244 126.4453125 184 94.4453125 176 c 0
 50.4453125 164 58.4453125 248 56.4453125 272 c 0
 48.4453125 366 60.4453125 462 62.4453125 556 c 0
 62.4453125 580 50.4453125 634 82.4453125 644 c 0
60.4453125 76 m 0
 116.4453125 86 122.4453125 2 70.4453125 -8 c 0
 20.4453125 -16 16.4453125 68 60.4453125 76 c 0
EndSplineSet
Substitution2: "ss02-1" exclam.ss02
Substitution2: "ss01-1" exclam.ss01
EndChar

StartChar: underscore
Encoding: 95 95 96
Width: 401
VWidth: 0
Flags: HW
LayerCount: 2
Back
Fore
SplineSet
333.170898438 32 m 0
 365.170898438 36 387.170898438 -4 355.170898438 -20 c 0
 333.170898438 -32 299.170898438 -32 275.170898438 -34 c 0
 217.170898438 -38 159.170898438 -36 101.170898438 -30 c 0
 77.1708984375 -28 11.1708984375 -24 35.1708984375 16 c 0
 47.1708984375 40 89.1708984375 26 111.170898438 26 c 0
 187.170898438 22 259.170898438 22 333.170898438 32 c 0
EndSplineSet
Substitution2: "ss02-1" underscore.ss02
Substitution2: "ss01-1" underscore.ss01
EndChar

StartChar: period
Encoding: 46 46 97
Width: 123
VWidth: 0
Flags: HW
LayerCount: 2
Back
Fore
SplineSet
64.853515625 80 m 0
 104.853515625 80 100.853515625 -8 62.853515625 -8 c 0
 14.853515625 -8 22.853515625 80 64.853515625 80 c 0
EndSplineSet
Substitution2: "ss02-1" period.ss02
Substitution2: "ss01-1" period.ss01
EndChar

StartChar: q
Encoding: 113 113 98
Width: 354
VWidth: 0
Flags: HW
LayerCount: 2
Back
Fore
SplineSet
258.751953125 132 m 1
 236.751953125 56 116.751953125 -50 48.751953125 36 c 0
 40.751953125 46 32.751953125 58 28.751953125 70 c 0
 0.751953125 146 44.751953125 260 92.751953125 320 c 0
 112.751953125 344 134.751953125 364 164.751953125 372 c 0
 200.751953125 384 242.751953125 352 274.751953125 332 c 0
 292.751953125 320 302.751953125 302 314.751953125 286 c 0
 334.751953125 254 316.751953125 210 316.751953125 178 c 0
 316.751953125 88 320.751953125 -22 320.751953125 -112 c 0
 320.751953125 -132 322.751953125 -158 314.751953125 -176 c 0
 306.751953125 -192 288.751953125 -198 274.751953125 -188 c 0
 254.751953125 -174 264.751953125 -128 264.751953125 -108 c 0
 264.751953125 -58 264.751953125 10 262.751953125 60 c 0
 262.751953125 84 266.751953125 110 258.751953125 132 c 1
178.751953125 318 m 0
 158.751953125 314 144.751953125 296 132.751953125 280 c 0
 104.751953125 242 86.751953125 182 80.751953125 136 c 0
 76.751953125 108 86.751953125 60 122.751953125 68 c 0
 178.751953125 80 212.751953125 166 234.751953125 214 c 0
 242.751953125 230 254.751953125 254 254.751953125 270 c 0
 254.751953125 296 198.751953125 322 178.751953125 318 c 0
EndSplineSet
Substitution2: "ss02-1" q.ss02
Substitution2: "ss01-1" q.ss01
EndChar

StartChar: H.ss01
Encoding: 1114113 -1 100
Width: 401
VWidth: 0
Flags: HW
LayerCount: 2
Back
Fore
SplineSet
112 252 m 1
 120 200 114 142 112 90 c 0
 112 50 116 8 112 -32 c 0
 108 -58 72 -70 60 -44 c 0
 52 -30 56 -14 56 2 c 0
 56 38 54 76 54 112 c 0
 54 232 54 348 54 468 c 0
 54 504 52 544 50 580 c 0
 50 596 50 614 66 622 c 0
 106 638 106 580 106 556 c 0
 110 472 112 390 112 306 c 1
 128 310 148 310 164 310 c 0
 212 314 264 320 312 308 c 1
 304 336 314 376 314 406 c 0
 316 450 316 496 316 540 c 0
 316 560 310 578 314 598 c 0
 318 622 350 634 366 612 c 0
 374 602 370 586 370 574 c 0
 372 544 370 514 370 484 c 0
 370 372 370 264 364 152 c 0
 362 120 362 92 360 60 c 0
 360 46 362 32 350 20 c 0
 330 0 306 16 304 40 c 0
 300 80 306 120 306 160 c 0
 306 192 302 230 310 262 c 1
 284 252 252 254 224 254 c 0
 188 254 148 252 112 252 c 1
EndSplineSet
EndChar

StartChar: e.ss01
Encoding: 1114114 -1 101
Width: 397
VWidth: 0
Flags: HW
LayerCount: 2
Back
Fore
SplineSet
89.4423828125 166 m 1
 109.442382812 82 185.442382812 36 269.442382812 36 c 0
 297.442382812 36 321.442382812 48 347.442382812 48 c 0
 363.442382812 48 377.442382812 36 375.442382812 20 c 0
 371.442382812 -16 303.442382812 -20 275.442382812 -20 c 0
 179.442382812 -20 91.4423828125 18 47.4423828125 108 c 0
 31.4423828125 140 27.4423828125 172 31.4423828125 206 c 0
 39.4423828125 270 73.4423828125 336 139.442382812 356 c 0
 179.442382812 368 233.442382812 362 273.442382812 350 c 0
 315.442382812 338 399.442382812 292 371.442382812 236 c 0
 363.442382812 220 341.442382812 210 325.442382812 204 c 0
 289.442382812 192 251.442382812 186 215.442382812 178 c 0
 175.442382812 170 131.442382812 166 89.4423828125 166 c 1
93.4423828125 220 m 1
 169.442382812 228 239.442382812 240 311.442382812 260 c 1
 283.442382812 306 175.442382812 320 131.442382812 288 c 0
 109.442382812 272 101.442382812 244 93.4423828125 220 c 1
EndSplineSet
EndChar

StartChar: q.ss01
Encoding: 1114115 -1 102
Width: 400
VWidth: 0
Flags: HW
LayerCount: 2
Back
Fore
SplineSet
298.745117188 62 m 1
 274.745117188 38 252.745117188 16 220.745117188 4 c 0
 142.745117188 -22 44.7451171875 24 24.7451171875 106 c 0
 4.7451171875 190 50.7451171875 288 110.745117188 344 c 0
 166.745117188 400 272.745117188 422 324.745117188 346 c 0
 332.745117188 332 340.745117188 318 340.745117188 302 c 1
 358.745117188 302 364.745117188 288 368.745117188 272 c 0
 372.745117188 244 364.745117188 210 360.745117188 180 c 0
 352.745117188 98 354.745117188 14 350.745117188 -68 c 0
 350.745117188 -88 348.745117188 -112 348.745117188 -132 c 0
 348.745117188 -144 352.745117188 -154 348.745117188 -164 c 0
 340.745117188 -188 304.745117188 -184 296.745117188 -162 c 0
 284.745117188 -132 294.745117188 -84 294.745117188 -52 c 0
 294.745117188 -16 302.745117188 26 298.745117188 62 c 1
210.745117188 336 m 0
 138.745117188 322 80.7451171875 222 80.7451171875 154 c 0
 80.7451171875 100 124.745117188 44 184.745117188 56 c 0
 242.745117188 68 276.745117188 128 292.745117188 180 c 0
 296.745117188 196 306.745117188 216 304.745117188 232 c 0
 304.745117188 242 292.745117188 248 288.745117188 256 c 0
 282.745117188 270 288.745117188 286 284.745117188 302 c 0
 276.745117188 332 238.745117188 340 210.745117188 336 c 0
300.745117188 64 m 1
 300.745117188 64 l 1
 300.745117188 64 l 1
EndSplineSet
EndChar

StartChar: A.ss01
Encoding: 1114116 -1 103
Width: 474
VWidth: 0
Flags: HW
LayerCount: 2
Back
Fore
SplineSet
419.4921875 194 m 1
 413.4921875 170 399.4921875 146 387.4921875 124 c 0
 349.4921875 52 283.4921875 -38 189.4921875 -8 c 0
 173.4921875 -4 159.4921875 4 145.4921875 12 c 0
 129.4921875 24 113.4921875 36 101.4921875 52 c 0
 37.4921875 138 31.4921875 238 47.4921875 340 c 0
 59.4921875 432 91.4921875 524 157.4921875 592 c 0
 227.4921875 666 343.4921875 676 419.4921875 604 c 0
 435.4921875 590 449.4921875 576 457.4921875 556 c 0
 477.4921875 500 471.4921875 436 467.4921875 378 c 0
 463.4921875 322 469.4921875 260 477.4921875 204 c 0
 483.4921875 168 491.4921875 134 503.4921875 102 c 0
 507.4921875 92 511.4921875 76 519.4921875 68 c 0
 527.4921875 60 541.4921875 68 551.4921875 62 c 0
 563.4921875 54 567.4921875 38 559.4921875 26 c 0
 543.4921875 2 493.4921875 6 477.4921875 26 c 0
 451.4921875 58 437.4921875 110 429.4921875 150 c 0
 425.4921875 164 425.4921875 182 419.4921875 194 c 1
271.4921875 596 m 0
 221.4921875 588 187.4921875 544 163.4921875 504 c 0
 107.4921875 416 87.4921875 292 103.4921875 188 c 0
 111.4921875 132 167.4921875 32 235.4921875 44 c 0
 283.4921875 52 313.4921875 110 333.4921875 148 c 0
 369.4921875 216 389.4921875 286 403.4921875 362 c 0
 411.4921875 402 419.4921875 434 415.4921875 476 c 0
 413.4921875 494 411.4921875 522 403.4921875 538 c 0
 379.4921875 582 319.4921875 604 271.4921875 596 c 0
EndSplineSet
EndChar

StartChar: M.ss01
Encoding: 1114117 -1 104
Width: 668
VWidth: 0
Flags: HW
LayerCount: 2
Back
Fore
SplineSet
316.16015625 374 m 1
 322.16015625 390 336.16015625 406 346.16015625 422 c 0
 366.16015625 454 386.16015625 484 406.16015625 514 c 0
 424.16015625 542 442.16015625 568 462.16015625 592 c 0
 492.16015625 628 562.16015625 706 606.16015625 646 c 0
 610.16015625 638 616.16015625 630 618.16015625 622 c 0
 630.16015625 572 628.16015625 514 628.16015625 462 c 0
 628.16015625 370 626.16015625 274 626.16015625 182 c 0
 626.16015625 134 630.16015625 86 626.16015625 38 c 0
 626.16015625 20 634.16015625 2 614.16015625 -10 c 0
 590.16015625 -26 572.16015625 0 570.16015625 22 c 0
 566.16015625 82 570.16015625 144 570.16015625 204 c 2
 570.16015625 360 l 2
 570.16015625 440 562.16015625 524 562.16015625 604 c 1
 488.16015625 544 434.16015625 454 384.16015625 374 c 0
 368.16015625 350 350.16015625 292 314.16015625 296 c 0
 290.16015625 300 276.16015625 328 262.16015625 346 c 0
 230.16015625 388 194.16015625 428 158.16015625 468 c 1
 158.16015625 404 150.16015625 338 146.16015625 274 c 0
 144.16015625 232 142.16015625 190 138.16015625 148 c 0
 134.16015625 104 136.16015625 50 124.16015625 10 c 0
 116.16015625 -12 86.16015625 -16 74.16015625 4 c 0
 66.16015625 16 72.16015625 32 72.16015625 44 c 0
 74.16015625 72 78.16015625 104 78.16015625 132 c 0
 82.16015625 256 96.16015625 378 104.16015625 502 c 0
 104.16015625 514 108.16015625 532 106.16015625 544 c 0
 104.16015625 554 98.16015625 562 98.16015625 572 c 0
 98.16015625 584 106.16015625 594 106.16015625 606 c 0
 106.16015625 626 108.16015625 654 134.16015625 656 c 0
 182.16015625 660 156.16015625 584 164.16015625 560 c 0
 180.16015625 512 230.16015625 468 262.16015625 432 c 0
 278.16015625 412 296.16015625 390 316.16015625 374 c 1
EndSplineSet
EndChar

StartChar: Y.ss01
Encoding: 1114118 -1 105
Width: 435
VWidth: 0
Flags: HW
LayerCount: 2
Back
Fore
SplineSet
347.586914062 398 m 1
 335.586914062 370 309.586914062 340 285.586914062 320 c 0
 271.586914062 308 255.586914062 296 239.586914062 288 c 0
 183.586914062 260 139.586914062 284 113.586914062 338 c 0
 81.5869140625 406 85.5869140625 490 81.5869140625 564 c 0
 81.5869140625 590 67.5869140625 674 115.586914062 660 c 0
 139.586914062 652 137.586914062 616 137.586914062 596 c 0
 137.586914062 534 139.586914062 464 151.586914062 404 c 0
 155.586914062 384 171.586914062 326 199.586914062 334 c 0
 223.586914062 340 241.586914062 360 257.586914062 376 c 0
 305.586914062 424 333.586914062 492 347.586914062 560 c 0
 351.586914062 582 347.586914062 608 355.586914062 628 c 0
 363.586914062 652 397.586914062 656 409.586914062 632 c 0
 419.586914062 612 411.586914062 584 409.586914062 564 c 0
 405.586914062 538 409.586914062 510 409.586914062 484 c 0
 409.586914062 384 419.586914062 282 411.586914062 182 c 0
 407.586914062 134 401.586914062 84 373.586914062 44 c 0
 321.586914062 -32 203.586914062 -12 127.586914062 8 c 0
 103.586914062 14 55.5869140625 26 43.5869140625 48 c 0
 31.5869140625 68 51.5869140625 96 75.5869140625 88 c 0
 95.5869140625 82 113.586914062 70 133.586914062 64 c 0
 167.586914062 52 207.586914062 48 243.586914062 48 c 0
 261.586914062 48 287.586914062 48 303.586914062 56 c 0
 331.586914062 72 341.586914062 106 345.586914062 134 c 0
 357.586914062 190 355.586914062 252 353.586914062 308 c 0
 353.586914062 336 355.586914062 370 347.586914062 398 c 1
EndSplineSet
EndChar

StartChar: eight.ss01
Encoding: 1114119 -1 106
Width: 394
VWidth: 0
Flags: HW
LayerCount: 2
Back
Fore
SplineSet
186.024414062 628 m 0
 230.024414062 632 290.024414062 624 322.024414062 592 c 0
 336.024414062 578 344.024414062 560 350.024414062 540 c 0
 354.024414062 524 370.024414062 508 362.024414062 492 c 0
 358.024414062 482 346.024414062 478 342.024414062 470 c 0
 320.024414062 434 298.024414062 400 270.024414062 368 c 0
 260.024414062 356 230.024414062 336 226.024414062 320 c 0
 226.024414062 314 234.024414062 306 238.024414062 302 c 0
 248.024414062 286 256.024414062 270 264.024414062 254 c 0
 272.024414062 240 276.024414062 226 282.024414062 212 c 0
 310.024414062 148 338.024414062 20 238.024414062 4 c 0
 148.024414062 -8 28.0244140625 28 30.0244140625 134 c 0
 30.0244140625 150 34.0244140625 164 40.0244140625 178 c 0
 56.0244140625 216 84.0244140625 248 110.024414062 280 c 0
 118.024414062 290 144.024414062 310 144.024414062 324 c 0
 144.024414062 332 134.024414062 342 130.024414062 350 c 0
 116.024414062 370 100.024414062 390 88.0244140625 414 c 0
 56.0244140625 478 52.0244140625 568 124.024414062 608 c 0
 144.024414062 620 164.024414062 626 186.024414062 628 c 0
188.024414062 368 m 1
 208.024414062 380 226.024414062 406 242.024414062 424 c 0
 262.024414062 448 292.024414062 480 298.024414062 512 c 0
 304.024414062 546 272.024414062 564 244.024414062 568 c 0
 192.024414062 578 122.024414062 568 122.024414062 500 c 0
 122.024414062 482 128.024414062 464 136.024414062 448 c 0
 150.024414062 420 170.024414062 394 188.024414062 368 c 1
182.024414062 276 m 1
 146.024414062 236 82.0244140625 176 88.0244140625 118 c 0
 92.0244140625 72 162.024414062 64 196.024414062 60 c 0
 210.024414062 60 230.024414062 60 242.024414062 68 c 0
 256.024414062 80 248.024414062 106 246.024414062 122 c 0
 238.024414062 174 216.024414062 236 182.024414062 276 c 1
EndSplineSet
EndChar

StartChar: quotesingle.ss01
Encoding: 1114120 -1 107
Width: 132
VWidth: 0
Flags: HW
LayerCount: 2
Back
Fore
SplineSet
54.1953125 656 m 0
 72.1953125 660 90.1953125 646 94.1953125 630 c 0
 104.1953125 598 102.1953125 560 100.1953125 528 c 0
 100.1953125 512 96.1953125 494 76.1953125 490 c 0
 60.1953125 486 48.1953125 498 44.1953125 514 c 0
 38.1953125 542 44.1953125 570 42.1953125 598 c 0
 42.1953125 610 28.1953125 618 30.1953125 632 c 0
 32.1953125 644 42.1953125 652 54.1953125 656 c 0
EndSplineSet
EndChar

StartChar: numbersign.ss01
Encoding: 1114121 -1 108
Width: 538
VWidth: 0
Flags: HW
LayerCount: 2
Back
Fore
SplineSet
310.725585938 502 m 1
 304.725585938 522 308.725585938 548 308.725585938 568 c 0
 308.725585938 580 304.725585938 596 308.725585938 608 c 0
 316.725585938 628 342.725585938 634 356.725585938 618 c 0
 364.725585938 606 362.725585938 590 362.725585938 578 c 0
 362.725585938 554 360.725585938 524 366.725585938 500 c 1
 390.725585938 508 438.725585938 502 462.725585938 490 c 0
 478.725585938 482 486.725585938 458 470.725585938 444 c 0
 458.725585938 432 446.725585938 440 430.725585938 442 c 0
 410.725585938 446 386.725585938 442 366.725585938 442 c 1
 366.725585938 404 378.725585938 356 370.725585938 320 c 1
 408.725585938 308 454.725585938 320 490.725585938 304 c 0
 512.725585938 294 514.725585938 262 490.725585938 254 c 0
 454.725585938 240 408.725585938 264 372.725585938 256 c 1
 376.725585938 240 376.725585938 204 368.725585938 188 c 0
 360.725585938 172 336.725585938 172 324.725585938 184 c 0
 308.725585938 200 314.725585938 238 314.725585938 258 c 1
 294.725585938 258 274.725585938 256 254.725585938 256 c 0
 248.725585938 256 236.725585938 256 232.725585938 252 c 0
 226.725585938 246 230.725585938 230 230.725585938 222 c 0
 230.725585938 200 234.725585938 164 226.725585938 144 c 0
 216.725585938 124 184.725585938 126 176.725585938 146 c 0
 164.725585938 174 170.725585938 218 170.725585938 248 c 1
 144.725585938 242 104.725585938 232 78.7255859375 240 c 0
 58.7255859375 244 52.7255859375 268 64.7255859375 284 c 0
 72.7255859375 292 84.7255859375 296 96.7255859375 296 c 0
 120.725585938 300 146.725585938 304 170.725585938 304 c 1
 170.725585938 434 l 1
 142.725585938 434 110.725585938 432 82.7255859375 428 c 0
 68.7255859375 428 52.7255859375 420 40.7255859375 428 c 0
 22.7255859375 440 28.7255859375 468 48.7255859375 476 c 0
 68.7255859375 484 94.7255859375 484 116.725585938 486 c 0
 132.725585938 488 152.725585938 492 168.725585938 490 c 1
 172.725585938 514 168.725585938 540 168.725585938 564 c 0
 168.725585938 576 166.725585938 586 172.725585938 596 c 0
 184.725585938 616 212.725585938 610 220.725585938 590 c 0
 228.725585938 570 228.725585938 518 224.725585938 496 c 1
 310.725585938 502 l 1
226.725585938 436 m 1
 230.725585938 312 l 1
 314.725585938 320 l 1
 308.725585938 356 308.725585938 404 312.725585938 440 c 1
 284.725585938 440 252.725585938 444 226.725585938 436 c 1
EndSplineSet
EndChar

StartChar: less.ss01
Encoding: 1114122 -1 109
Width: 364
VWidth: 0
Flags: HW
LayerCount: 2
Back
Fore
SplineSet
92.4384765625 318 m 1
 156.438476562 292 210.438476562 244 262.438476562 200 c 0
 278.438476562 186 312.438476562 154 280.438476562 136 c 0
 252.438476562 120 224.438476562 158 204.438476562 174 c 0
 172.438476562 198 138.438476562 226 102.438476562 246 c 0
 66.4384765625 268 14.4384765625 284 34.4384765625 338 c 0
 46.4384765625 374 86.4384765625 400 112.438476562 424 c 0
 164.438476562 472 220.438476562 518 264.438476562 574 c 0
 278.438476562 590 316.438476562 634 332.438476562 592 c 0
 342.438476562 566 302.438476562 534 288.438476562 514 c 0
 232.438476562 442 148.438476562 390 92.4384765625 318 c 1
EndSplineSet
EndChar

StartChar: O.ss01
Encoding: 1114123 -1 110
Width: 520
VWidth: 0
Flags: HW
LayerCount: 2
Back
Fore
SplineSet
169.462890625 672 m 1
 141.462890625 680 99.462890625 664 75.462890625 680 c 0
 57.462890625 692 61.462890625 718 77.462890625 728 c 0
 91.462890625 736 117.462890625 732 133.462890625 732 c 0
 229.462890625 726 339.462890625 712 409.462890625 636 c 0
 475.462890625 564 517.462890625 442 509.462890625 344 c 0
 503.462890625 280 481.462890625 220 457.462890625 162 c 0
 437.462890625 114 411.462890625 76 379.462890625 40 c 0
 363.462890625 20 347.462890625 0 323.462890625 -8 c 0
 207.462890625 -56 113.462890625 48 69.462890625 144 c 0
 13.462890625 270 45.462890625 426 97.462890625 548 c 0
 115.462890625 592 137.462890625 638 169.462890625 672 c 1
169.462890625 674 m 1
 171.462890625 672 l 1
 169.462890625 674 l 1
247.462890625 658 m 0
 197.462890625 638 173.462890625 586 153.462890625 538 c 0
 107.462890625 430 75.462890625 296 117.462890625 184 c 0
 145.462890625 112 211.462890625 14 301.462890625 48 c 0
 317.462890625 54 327.462890625 70 337.462890625 82 c 0
 361.462890625 110 383.462890625 140 399.462890625 176 c 0
 427.462890625 244 453.462890625 318 449.462890625 392 c 0
 445.462890625 436 429.462890625 480 413.462890625 520 c 0
 391.462890625 574 353.462890625 618 301.462890625 642 c 0
 289.462890625 648 261.462890625 664 247.462890625 658 c 0
EndSplineSet
EndChar

StartChar: b.ss01
Encoding: 1114124 -1 111
Width: 405
VWidth: 0
Flags: HW
LayerCount: 2
Back
Fore
SplineSet
96.408203125 276 m 1
 120.408203125 360 224.408203125 406 300.408203125 356 c 0
 344.408203125 328 360.408203125 278 364.408203125 228 c 0
 372.408203125 146 324.408203125 62 264.408203125 10 c 0
 238.408203125 -14 202.408203125 -36 166.408203125 -36 c 0
 138.408203125 -36 126.408203125 -20 102.408203125 -8 c 0
 84.408203125 0 64.408203125 -24 48.408203125 4 c 0
 28.408203125 44 42.408203125 110 40.408203125 154 c 0
 32.408203125 286 36.408203125 420 36.408203125 552 c 0
 36.408203125 580 36.408203125 610 34.408203125 638 c 0
 34.408203125 650 28.408203125 666 30.408203125 678 c 0
 34.408203125 698 54.408203125 712 72.408203125 700 c 0
 84.408203125 692 88.408203125 680 88.408203125 668 c 0
 92.408203125 640 90.408203125 616 90.408203125 588 c 0
 90.408203125 520 92.408203125 452 92.408203125 384 c 0
 92.408203125 352 86.408203125 308 96.408203125 276 c 1
110.408203125 58 m 1
 130.408203125 50 146.408203125 18 170.408203125 20 c 0
 194.408203125 22 220.408203125 44 236.408203125 60 c 0
 290.408203125 110 328.408203125 202 296.408203125 274 c 0
 274.408203125 320 216.408203125 330 178.408203125 298 c 0
 164.408203125 286 158.408203125 268 150.408203125 252 c 0
 138.408203125 228 134.408203125 202 128.408203125 176 c 0
 120.408203125 136 114.408203125 98 110.408203125 58 c 1
EndSplineSet
EndChar

StartChar: r.ss01
Encoding: 1114125 -1 112
Width: 387
VWidth: 0
Flags: HW
LayerCount: 2
Back
Fore
SplineSet
89.7705078125 278 m 1
 99.7705078125 290 105.770507812 308 113.770507812 322 c 0
 137.770507812 358 173.770507812 394 217.770507812 400 c 0
 257.770507812 404 295.770507812 380 327.770507812 360 c 0
 343.770507812 350 365.770507812 336 353.770507812 314 c 0
 345.770507812 300 329.770507812 298 315.770507812 304 c 0
 289.770507812 316 267.770507812 334 239.770507812 340 c 0
 199.770507812 348 167.770507812 300 153.770507812 270 c 0
 123.770507812 204 119.770507812 126 111.770507812 54 c 0
 107.770507812 30 109.770507812 -16 83.7705078125 -28 c 0
 51.7705078125 -44 41.7705078125 -8 41.7705078125 16 c 0
 41.7705078125 110 33.7705078125 204 33.7705078125 298 c 0
 33.7705078125 314 35.7705078125 328 33.7705078125 344 c 0
 31.7705078125 360 23.7705078125 380 39.7705078125 392 c 0
 55.7705078125 404 73.7705078125 394 81.7705078125 378 c 0
 93.7705078125 352 95.7705078125 306 89.7705078125 278 c 1
89.7705078125 276 m 1
 91.7705078125 274 l 1
 89.7705078125 276 l 1
EndSplineSet
EndChar

StartChar: B.ss01
Encoding: 1114126 -1 113
Width: 398
VWidth: 0
Flags: HW
LayerCount: 2
Back
Fore
SplineSet
59.0341796875 48 m 1
 47.0341796875 90 57.0341796875 142 55.0341796875 186 c 0
 55.0341796875 226 55.0341796875 266 51.0341796875 306 c 0
 51.0341796875 316 43.0341796875 324 43.0341796875 334 c 0
 43.0341796875 346 51.0341796875 352 51.0341796875 364 c 0
 53.0341796875 412 47.0341796875 460 47.0341796875 508 c 0
 47.0341796875 528 51.0341796875 554 47.0341796875 574 c 0
 45.0341796875 582 35.0341796875 588 31.0341796875 596 c 0
 21.0341796875 616 27.0341796875 642 43.0341796875 656 c 0
 59.0341796875 672 85.0341796875 676 105.034179688 684 c 0
 175.034179688 708 297.034179688 720 341.034179688 644 c 0
 353.034179688 622 353.034179688 592 351.034179688 568 c 0
 347.034179688 500 323.034179688 434 275.034179688 386 c 1
 413.034179688 348 427.034179688 176 357.034179688 72 c 0
 335.034179688 40 295.034179688 16 259.034179688 0 c 0
 211.034179688 -24 167.034179688 -20 115.034179688 -24 c 0
 99.0341796875 -24 89.0341796875 -42 71.0341796875 -32 c 0
 61.0341796875 -28 63.0341796875 -20 55.0341796875 -12 c 0
 45.0341796875 -4 29.0341796875 -4 23.0341796875 10 c 0
 11.0341796875 34 37.0341796875 52 59.0341796875 48 c 1
105.034179688 382 m 1
 125.034179688 388 143.034179688 392 163.034179688 396 c 0
 175.034179688 398 187.034179688 394 199.034179688 400 c 0
 255.034179688 432 283.034179688 496 291.034179688 556 c 0
 295.034179688 576 299.034179688 610 283.034179688 626 c 0
 275.034179688 636 261.034179688 636 249.034179688 640 c 0
 213.034179688 648 177.034179688 644 143.034179688 636 c 0
 133.034179688 634 103.034179688 630 99.0341796875 620 c 0
 95.0341796875 614 101.034179688 606 101.034179688 598 c 0
 101.034179688 582 101.034179688 568 101.034179688 552 c 0
 103.034179688 496 109.034179688 436 105.034179688 382 c 1
115.034179688 32 m 1
 177.034179688 16 267.034179688 52 307.034179688 100 c 0
 347.034179688 148 355.034179688 246 311.034179688 296 c 0
 287.034179688 322 243.034179688 342 207.034179688 338 c 0
 191.034179688 336 175.034179688 326 159.034179688 322 c 0
 149.034179688 318 115.034179688 316 111.034179688 308 c 0
 103.034179688 288 111.034179688 244 111.034179688 224 c 0
 115.034179688 160 123.034179688 96 115.034179688 32 c 1
EndSplineSet
EndChar

StartChar: N.ss01
Encoding: 1114127 -1 114
Width: 520
VWidth: 0
Flags: HW
LayerCount: 2
Back
Fore
SplineSet
422.223632812 106 m 1
 422.223632812 186 426.223632812 270 426.223632812 350 c 0
 426.223632812 406 424.223632812 460 422.223632812 516 c 0
 418.223632812 576 424.223632812 640 436.223632812 700 c 0
 440.223632812 724 474.223632812 734 486.223632812 710 c 0
 494.223632812 696 488.223632812 676 486.223632812 662 c 0
 482.223632812 630 478.223632812 596 478.223632812 564 c 0
 478.223632812 500 484.223632812 434 486.223632812 370 c 0
 488.223632812 304 482.223632812 238 482.223632812 172 c 0
 482.223632812 126 486.223632812 76 478.223632812 32 c 0
 474.223632812 14 466.223632812 -4 446.223632812 -8 c 0
 426.223632812 -12 416.223632812 4 406.223632812 20 c 0
 386.223632812 50 366.223632812 80 350.223632812 112 c 0
 308.223632812 196 258.223632812 272 214.223632812 354 c 0
 186.223632812 406 168.223632812 462 138.223632812 514 c 1
 138.223632812 442 146.223632812 368 142.223632812 296 c 0
 140.223632812 248 138.223632812 202 138.223632812 154 c 0
 138.223632812 106 142.223632812 46 130.223632812 -2 c 0
 126.223632812 -26 94.2236328125 -30 82.2236328125 -10 c 0
 74.2236328125 2 78.2236328125 20 78.2236328125 32 c 0
 78.2236328125 66 78.2236328125 100 78.2236328125 134 c 0
 78.2236328125 262 82.2236328125 386 82.2236328125 514 c 0
 82.2236328125 534 86.2236328125 558 82.2236328125 578 c 0
 80.2236328125 590 68.2236328125 598 70.2236328125 612 c 0
 70.2236328125 624 78.2236328125 628 82.2236328125 636 c 0
 90.2236328125 652 88.2236328125 678 112.223632812 678 c 0
 160.223632812 680 126.223632812 628 142.223632812 608 c 0
 206.223632812 524 238.223632812 422 294.223632812 330 c 0
 322.223632812 284 350.223632812 238 378.223632812 190 c 0
 394.223632812 164 412.223632812 134 420.223632812 106 c 1
 422.223632812 106 l 1
EndSplineSet
EndChar

StartChar: Z.ss01
Encoding: 1114128 -1 115
Width: 426
VWidth: 0
Flags: HW
LayerCount: 2
Back
Fore
SplineSet
325.615234375 626 m 1
 251.615234375 622 175.615234375 626 103.615234375 616 c 0
 83.615234375 612 39.615234375 600 31.615234375 628 c 0
 19.615234375 668 77.615234375 666 101.615234375 670 c 0
 177.615234375 678 251.615234375 680 327.615234375 684 c 0
 351.615234375 684 391.615234375 694 399.615234375 660 c 0
 403.615234375 644 395.615234375 628 387.615234375 614 c 0
 371.615234375 582 349.615234375 552 331.615234375 520 c 0
 271.615234375 416 219.615234375 312 167.615234375 204 c 0
 153.615234375 176 137.615234375 146 125.615234375 116 c 0
 121.615234375 104 111.615234375 90 115.615234375 76 c 1
 135.615234375 78 157.615234375 74 177.615234375 74 c 0
 241.615234375 74 307.615234375 72 371.615234375 80 c 0
 393.615234375 84 435.615234375 92 435.615234375 56 c 0
 435.615234375 22 377.615234375 22 353.615234375 20 c 0
 281.615234375 12 207.615234375 12 135.615234375 18 c 0
 111.615234375 20 79.615234375 16 63.615234375 40 c 0
 31.615234375 88 79.615234375 164 99.615234375 206 c 0
 167.615234375 350 245.615234375 490 325.615234375 626 c 1
EndSplineSet
EndChar

StartChar: nine.ss01
Encoding: 1114129 -1 116
Width: 430
VWidth: 0
Flags: HW
LayerCount: 2
Back
Fore
SplineSet
324.124023438 378 m 1
 284.124023438 294 160.124023438 296 96.1240234375 344 c 0
 32.1240234375 392 14.1240234375 484 44.1240234375 556 c 0
 84.1240234375 650 210.124023438 700 302.124023438 652 c 0
 322.124023438 642 328.124023438 622 344.124023438 608 c 0
 356.124023438 596 374.124023438 610 386.124023438 590 c 0
 406.124023438 554 384.124023438 496 384.124023438 456 c 0
 384.124023438 344 392.124023438 234 396.124023438 122 c 0
 396.124023438 94 404.124023438 58 396.124023438 30 c 0
 392.124023438 14 372.124023438 8 356.124023438 16 c 0
 332.124023438 30 340.124023438 86 340.124023438 110 c 0
 336.124023438 170 332.124023438 228 328.124023438 288 c 0
 328.124023438 316 332.124023438 350 324.124023438 378 c 1
220.124023438 612 m 0
 176.124023438 612 132.124023438 590 108.124023438 552 c 0
 82.1240234375 508 82.1240234375 438 118.124023438 402 c 0
 142.124023438 378 176.124023438 372 208.124023438 372 c 0
 268.124023438 372 324.124023438 462 324.124023438 518 c 0
 324.124023438 528 328.124023438 542 324.124023438 552 c 0
 322.124023438 560 308.124023438 564 304.124023438 570 c 0
 296.124023438 578 292.124023438 588 284.124023438 596 c 0
 268.124023438 610 240.124023438 612 220.124023438 612 c 0
EndSplineSet
EndChar

StartChar: quoteright.ss01
Encoding: 1114130 -1 117
Width: 141
VWidth: 0
Flags: HW
LayerCount: 2
Back
Fore
SplineSet
70 668 m 0
 98 676 108 646 110 624 c 0
 114 580 100 532 92 488 c 0
 88 472 86 450 66 444 c 0
 46 438 30 456 30 476 c 0
 34 522 50 566 52 612 c 0
 52 632 46 660 70 668 c 0
EndSplineSet
EndChar

StartChar: dollar.ss01
Encoding: 1114131 -1 118
Width: 449
VWidth: 0
Flags: HW
LayerCount: 2
Back
Fore
SplineSet
164.6171875 566 m 1
 158.6171875 588 154.6171875 634 162.6171875 656 c 0
 170.6171875 676 192.6171875 680 206.6171875 666 c 0
 222.6171875 650 218.6171875 600 218.6171875 576 c 1
 234.6171875 578 l 1
 230.6171875 594 218.6171875 608 218.6171875 624 c 0
 220.6171875 648 252.6171875 658 268.6171875 640 c 0
 282.6171875 624 280.6171875 590 296.6171875 578 c 0
 304.6171875 574 320.6171875 572 328.6171875 570 c 0
 348.6171875 564 376.6171875 552 388.6171875 532 c 0
 400.6171875 512 386.6171875 482 362.6171875 482 c 0
 344.6171875 482 342.6171875 498 330.6171875 508 c 0
 324.6171875 514 316.6171875 514 308.6171875 518 c 1
 316.6171875 474 320.6171875 432 326.6171875 388 c 0
 328.6171875 372 326.6171875 350 334.6171875 334 c 0
 338.6171875 322 356.6171875 312 364.6171875 304 c 0
 388.6171875 280 418.6171875 248 418.6171875 212 c 0
 418.6171875 184 402.6171875 162 382.6171875 142 c 0
 374.6171875 134 362.6171875 128 358.6171875 120 c 0
 350.6171875 104 368.6171875 80 360.6171875 62 c 0
 352.6171875 42 322.6171875 38 310.6171875 56 c 0
 302.6171875 70 304.6171875 92 300.6171875 108 c 1
 254.6171875 104 l 1
 262.6171875 82 248.6171875 48 220.6171875 60 c 0
 196.6171875 70 208.6171875 102 192.6171875 114 c 0
 178.6171875 124 154.6171875 124 138.6171875 132 c 0
 106.6171875 146 76.6171875 164 50.6171875 188 c 0
 42.6171875 196 34.6171875 202 30.6171875 214 c 0
 26.6171875 234 42.6171875 252 62.6171875 248 c 0
 78.6171875 246 90.6171875 228 102.6171875 220 c 0
 126.6171875 202 156.6171875 182 186.6171875 178 c 1
 182.6171875 216 176.6171875 254 176.6171875 292 c 0
 176.6171875 312 182.6171875 342 174.6171875 358 c 0
 170.6171875 372 144.6171875 382 132.6171875 390 c 0
 92.6171875 420 36.6171875 474 82.6171875 526 c 0
 90.6171875 536 102.6171875 542 114.6171875 548 c 0
 130.6171875 556 148.6171875 562 164.6171875 566 c 1
226.6171875 522 m 1
 218.6171875 494 226.6171875 454 230.6171875 426 c 0
 230.6171875 418 230.6171875 404 234.6171875 396 c 0
 240.6171875 386 256.6171875 380 266.6171875 374 c 1
 254.6171875 484 l 1
 248.6171875 520 l 1
 226.6171875 522 l 1
172.6171875 436 m 1
 166.6171875 508 l 1
 154.6171875 504 130.6171875 496 126.6171875 484 c 0
 118.6171875 468 160.6171875 442 172.6171875 436 c 1
234.6171875 322 m 1
 246.6171875 164 l 1
 294.6171875 164 l 1
 294.6171875 196 286.6171875 226 282.6171875 258 c 0
 280.6171875 270 280.6171875 288 274.6171875 296 c 0
 266.6171875 308 246.6171875 318 234.6171875 322 c 1
344.6171875 234 m 1
 350.6171875 196 l 1
 352.6171875 196 l 1
 360.6171875 212 356.6171875 222 344.6171875 234 c 1
EndSplineSet
EndChar

StartChar: greater.ss01
Encoding: 1114132 -1 119
Width: 333
VWidth: 0
Flags: HW
LayerCount: 2
Back
Fore
SplineSet
50.53125 616 m 0
 70.53125 620 78.53125 602 90.53125 590 c 0
 110.53125 570 132.53125 550 152.53125 530 c 0
 188.53125 496 230.53125 468 264.53125 432 c 0
 276.53125 418 296.53125 402 300.53125 382 c 0
 314.53125 326 258.53125 264 224.53125 224 c 0
 208.53125 206 192.53125 188 176.53125 170 c 0
 168.53125 160 158.53125 148 144.53125 148 c 0
 112.53125 148 116.53125 182 128.53125 202 c 0
 156.53125 240 190.53125 272 216.53125 312 c 0
 224.53125 324 240.53125 346 238.53125 362 c 0
 234.53125 382 208.53125 402 192.53125 416 c 0
 148.53125 458 104.53125 498 60.53125 542 c 0
 44.53125 558 6.53125 606 50.53125 616 c 0
EndSplineSet
EndChar

StartChar: n.ss01
Encoding: 1114133 -1 120
Width: 398
VWidth: 0
Flags: HW
LayerCount: 2
Back
Fore
SplineSet
94.240234375 304 m 1
 128.240234375 384 262.240234375 432 326.240234375 362 c 0
 350.240234375 336 356.240234375 302 360.240234375 268 c 0
 368.240234375 208 370.240234375 140 366.240234375 80 c 0
 366.240234375 56 374.240234375 14 358.240234375 -6 c 0
 346.240234375 -22 322.240234375 -16 314.240234375 0 c 0
 310.240234375 12 310.240234375 24 310.240234375 36 c 0
 310.240234375 112 312.240234375 188 302.240234375 264 c 0
 298.240234375 292 290.240234375 330 254.240234375 336 c 0
 218.240234375 342 180.240234375 318 158.240234375 292 c 0
 110.240234375 236 100.240234375 170 94.240234375 100 c 0
 92.240234375 72 100.240234375 20 72.240234375 4 c 0
 24.240234375 -20 30.240234375 54 30.240234375 78 c 0
 32.240234375 150 34.240234375 222 38.240234375 294 c 0
 38.240234375 318 34.240234375 340 38.240234375 364 c 0
 42.240234375 392 78.240234375 398 90.240234375 374 c 0
 100.240234375 354 90.240234375 326 94.240234375 304 c 1
EndSplineSet
EndChar

StartChar: h.ss01
Encoding: 1114134 -1 121
Width: 379
VWidth: 0
Flags: HW
LayerCount: 2
Back
Fore
SplineSet
97.1201171875 242 m 1
 107.120117188 198 99.1201171875 148 103.120117188 104 c 0
 105.120117188 74 111.120117188 40 107.120117188 10 c 0
 101.120117188 -22 59.1201171875 -20 51.1201171875 10 c 0
 47.1201171875 20 51.1201171875 30 51.1201171875 40 c 0
 47.1201171875 70 45.1201171875 98 43.1201171875 128 c 0
 35.1201171875 240 43.1201171875 354 39.1201171875 466 c 0
 39.1201171875 490 37.1201171875 510 35.1201171875 534 c 0
 35.1201171875 546 27.1201171875 558 31.1201171875 570 c 0
 35.1201171875 592 61.1201171875 598 77.1201171875 582 c 0
 93.1201171875 566 93.1201171875 532 93.1201171875 512 c 0
 97.1201171875 468 95.1201171875 426 95.1201171875 382 c 0
 95.1201171875 362 91.1201171875 334 99.1201171875 316 c 1
 107.120117188 332 131.120117188 344 147.120117188 352 c 0
 193.120117188 372 257.120117188 376 293.120117188 336 c 0
 345.120117188 282 343.120117188 188 347.120117188 118 c 0
 347.120117188 90 349.120117188 64 349.120117188 36 c 0
 349.120117188 20 339.120117188 6 323.120117188 6 c 0
 285.120117188 6 293.120117188 56 291.120117188 80 c 0
 287.120117188 132 281.120117188 188 273.120117188 240 c 0
 269.120117188 262 257.120117188 290 237.120117188 302 c 0
 207.120117188 318 163.120117188 300 139.120117188 280 c 0
 125.120117188 268 117.120117188 248 97.1201171875 242 c 1
EndSplineSet
EndChar

StartChar: u.ss01
Encoding: 1114135 -1 122
Width: 362
VWidth: 0
Flags: HW
LayerCount: 2
Back
Fore
SplineSet
48 362 m 0
 92 376 82 320 80 296 c 0
 72 224 72 152 106 88 c 0
 118 68 136 36 160 28 c 0
 196 18 216 50 232 78 c 0
 264 138 278 208 274 276 c 0
 274 300 256 356 296 356 c 0
 314 356 320 344 324 328 c 0
 332 300 332 272 332 244 c 0
 332 176 314 102 282 42 c 0
 264 10 238 -24 200 -32 c 0
 148 -44 100 -14 72 26 c 0
 28 90 20 162 20 238 c 0
 20 268 24 298 28 328 c 0
 30 342 32 358 48 362 c 0
EndSplineSet
EndChar

StartChar: R.ss01
Encoding: 1114136 -1 123
Width: 417
VWidth: 0
Flags: HW
LayerCount: 2
Back
Fore
SplineSet
114.944335938 324 m 1
 108.944335938 272 110.944335938 220 110.944335938 168 c 0
 110.944335938 136 110.944335938 100 112.944335938 68 c 0
 112.944335938 48 120.944335938 26 118.944335938 6 c 0
 114.944335938 -16 86.9443359375 -26 70.9443359375 -10 c 0
 60.9443359375 2 58.9443359375 20 58.9443359375 34 c 0
 54.9443359375 66 54.9443359375 94 52.9443359375 126 c 0
 44.9443359375 254 58.9443359375 386 58.9443359375 516 c 0
 58.9443359375 548 60.9443359375 580 56.9443359375 612 c 0
 56.9443359375 624 46.9443359375 642 50.9443359375 654 c 0
 54.9443359375 666 70.9443359375 676 82.9443359375 684 c 0
 98.9443359375 692 116.944335938 698 132.944335938 702 c 0
 154.944335938 706 182.944335938 712 204.944335938 708 c 0
 272.944335938 696 326.944335938 628 354.944335938 568 c 0
 370.944335938 532 386.944335938 494 376.944335938 454 c 0
 364.944335938 406 336.944335938 368 288.944335938 352 c 0
 268.944335938 346 240.944335938 350 220.944335938 338 c 1
 248.944335938 326 266.944335938 300 286.944335938 278 c 0
 334.944335938 222 370.944335938 150 398.944335938 82 c 0
 406.944335938 58 426.944335938 28 426.944335938 4 c 0
 426.944335938 -12 410.944335938 -28 394.944335938 -26 c 0
 376.944335938 -24 370.944335938 -6 366.944335938 8 c 0
 354.944335938 40 342.944335938 72 326.944335938 104 c 0
 294.944335938 172 256.944335938 242 192.944335938 286 c 0
 168.944335938 302 138.944335938 310 114.944335938 324 c 1
114.944335938 392 m 1
 166.944335938 398 230.944335938 388 278.944335938 412 c 0
 312.944335938 428 330.944335938 474 318.944335938 510 c 0
 300.944335938 566 264.944335938 620 208.944335938 648 c 0
 188.944335938 658 152.944335938 650 132.944335938 644 c 0
 124.944335938 642 114.944335938 642 110.944335938 636 c 0
 106.944335938 630 110.944335938 620 110.944335938 614 c 0
 110.944335938 598 114.944335938 580 114.944335938 564 c 0
 118.944335938 508 120.944335938 448 114.944335938 392 c 1
218.944335938 342 m 1
 220.944335938 340 l 1
 218.944335938 342 l 1
EndSplineSet
EndChar

StartChar: P.ss01
Encoding: 1114137 -1 124
Width: 386
VWidth: 0
Flags: HW
LayerCount: 2
Back
Fore
SplineSet
139.484375 252 m 1
 145.484375 232 141.484375 208 141.484375 188 c 0
 143.484375 136 141.484375 86 139.484375 34 c 0
 139.484375 12 133.484375 -28 101.484375 -20 c 0
 83.484375 -16 81.484375 2 81.484375 18 c 0
 83.484375 56 83.484375 94 83.484375 134 c 0
 83.484375 266 79.484375 396 79.484375 528 c 0
 79.484375 546 83.484375 570 79.484375 588 c 0
 77.484375 596 65.484375 602 61.484375 610 c 0
 53.484375 634 79.484375 652 99.484375 656 c 0
 215.484375 670 361.484375 618 383.484375 490 c 0
 401.484375 388 319.484375 298 227.484375 268 c 0
 203.484375 260 169.484375 248 141.484375 254 c 1
 139.484375 252 l 1
133.484375 598 m 1
 135.484375 426 l 1
 137.484375 310 l 1
 159.484375 304 189.484375 312 209.484375 320 c 0
 273.484375 344 333.484375 404 325.484375 480 c 0
 319.484375 538 259.484375 580 207.484375 592 c 0
 185.484375 598 155.484375 606 133.484375 598 c 1
EndSplineSet
EndChar

StartChar: zero.ss01
Encoding: 1114138 -1 125
Width: 437
VWidth: 0
Flags: HW
LayerCount: 2
Back
Fore
SplineSet
145.271484375 616 m 1
 133.271484375 618 117.271484375 620 107.271484375 628 c 0
 91.271484375 642 97.271484375 666 117.271484375 674 c 0
 131.271484375 678 153.271484375 672 165.271484375 668 c 0
 177.271484375 664 185.271484375 660 197.271484375 658 c 0
 209.271484375 656 223.271484375 660 235.271484375 652 c 0
 243.271484375 648 245.271484375 638 251.271484375 632 c 0
 263.271484375 620 291.271484375 600 307.271484375 596 c 0
 315.271484375 594 319.271484375 600 325.271484375 604 c 0
 337.271484375 612 357.271484375 610 365.271484375 598 c 0
 373.271484375 590 373.271484375 576 367.271484375 566 c 0
 363.271484375 558 353.271484375 554 357.271484375 546 c 0
 369.271484375 518 387.271484375 498 395.271484375 466 c 0
 405.271484375 426 407.271484375 386 407.271484375 346 c 0
 407.271484375 214 389.271484375 36 249.271484375 -24 c 0
 221.271484375 -36 179.271484375 -42 151.271484375 -30 c 0
 139.271484375 -24 129.271484375 -10 117.271484375 -6 c 0
 111.271484375 -4 105.271484375 -10 101.271484375 -12 c 0
 89.271484375 -16 77.271484375 -10 69.271484375 0 c 0
 57.271484375 16 73.271484375 32 73.271484375 48 c 0
 73.271484375 60 65.271484375 70 61.271484375 80 c 0
 55.271484375 96 49.271484375 110 45.271484375 126 c 0
 13.271484375 256 33.271484375 404 89.271484375 524 c 0
 105.271484375 556 125.271484375 584 145.271484375 616 c 1
107.271484375 128 m 1
 127.271484375 156 137.271484375 196 153.271484375 228 c 0
 181.271484375 288 209.271484375 348 237.271484375 408 c 0
 249.271484375 436 261.271484375 464 273.271484375 492 c 0
 277.271484375 504 285.271484375 518 285.271484375 530 c 0
 285.271484375 538 277.271484375 546 271.271484375 550 c 0
 255.271484375 562 223.271484375 592 203.271484375 592 c 0
 193.271484375 592 185.271484375 578 181.271484375 570 c 0
 163.271484375 546 147.271484375 516 135.271484375 488 c 0
 103.271484375 400 83.271484375 308 91.271484375 214 c 0
 95.271484375 186 95.271484375 154 107.271484375 128 c 1
327.271484375 482 m 1
 317.271484375 446 301.271484375 410 285.271484375 376 c 0
 253.271484375 304 219.271484375 232 187.271484375 160 c 0
 175.271484375 134 163.271484375 108 151.271484375 82 c 0
 147.271484375 74 141.271484375 60 145.271484375 52 c 0
 185.271484375 -16 271.271484375 52 297.271484375 96 c 0
 347.271484375 178 351.271484375 288 347.271484375 384 c 0
 345.271484375 414 347.271484375 458 327.271484375 482 c 1
EndSplineSet
EndChar

StartChar: ?.ss01
Encoding: 1114139 -1 126
Width: 313
VWidth: 0
Flags: HW
LayerCount: 2
Back
Fore
SplineSet
202.305664062 708 m 0
 256.305664062 716 286.305664062 664 282.305664062 616 c 0
 274.305664062 524 244.305664062 424 194.305664062 344 c 0
 186.305664062 328 170.305664062 314 164.305664062 298 c 0
 156.305664062 282 164.305664062 258 136.305664062 258 c 0
 96.3056640625 258 106.305664062 312 118.305664062 334 c 0
 162.305664062 406 196.305664062 478 212.305664062 562 c 0
 216.305664062 582 230.305664062 624 218.305664062 642 c 0
 208.305664062 656 176.305664062 642 164.305664062 636 c 0
 134.305664062 624 110.305664062 602 94.3056640625 574 c 0
 82.3056640625 554 86.3056640625 520 52.3056640625 528 c 0
 10.3056640625 536 38.3056640625 592 50.3056640625 612 c 0
 84.3056640625 666 138.305664062 700 202.305664062 708 c 0
174.305664062 76 m 0
 194.305664062 78 214.305664062 60 206.305664062 40 c 0
 202.305664062 28 182.305664062 18 170.305664062 16 c 0
 146.305664062 12 132.305664062 40 142.305664062 60 c 0
 150.305664062 72 162.305664062 74 174.305664062 76 c 0
EndSplineSet
EndChar

StartChar: quotedbl.ss01
Encoding: 1114140 -1 127
Width: 254
VWidth: 0
Flags: HW
LayerCount: 2
Back
Fore
SplineSet
190.786132812 648 m 0
 204.786132812 648 214.786132812 642 218.786132812 628 c 0
 226.786132812 592 224.786132812 542 220.786132812 504 c 0
 218.786132812 488 212.786132812 466 192.786132812 466 c 0
 176.786132812 466 164.786132812 474 162.786132812 490 c 0
 158.786132812 512 164.786132812 536 164.786132812 558 c 0
 164.786132812 578 162.786132812 604 166.786132812 624 c 0
 168.786132812 636 176.786132812 648 190.786132812 648 c 0
56.7861328125 628 m 0
 70.7861328125 632 86.7861328125 622 90.7861328125 610 c 0
 94.7861328125 596 88.7861328125 578 88.7861328125 562 c 0
 88.7861328125 532 98.7861328125 496 94.7861328125 468 c 0
 94.7861328125 456 84.7861328125 446 72.7861328125 444 c 0
 50.7861328125 440 38.7861328125 460 34.7861328125 478 c 0
 26.7861328125 514 30.7861328125 552 32.7861328125 588 c 0
 32.7861328125 606 36.7861328125 624 56.7861328125 628 c 0
EndSplineSet
EndChar

StartChar: bracketleft.ss01
Encoding: 1114141 -1 128
Width: 345
VWidth: 0
Flags: HW
LayerCount: 2
Back
Fore
SplineSet
286.25390625 520 m 0
 302.25390625 520 318.25390625 504 314.25390625 486 c 0
 310.25390625 468 290.25390625 448 280.25390625 432 c 0
 228.25390625 348 172.25390625 266 120.25390625 182 c 0
 104.25390625 158 96.25390625 128 80.25390625 104 c 0
 74.25390625 96 66.25390625 90 54.25390625 90 c 0
 38.25390625 90 28.25390625 106 30.25390625 122 c 0
 34.25390625 148 48.25390625 174 60.25390625 198 c 0
 104.25390625 284 166.25390625 364 220.25390625 444 c 0
 236.25390625 468 254.25390625 520 286.25390625 520 c 0
76.25390625 456 m 0
 124.25390625 470 134.25390625 398 94.25390625 386 c 0
 52.25390625 372 32.25390625 444 76.25390625 456 c 0
274.25390625 240 m 0
 292.25390625 244 312.25390625 226 308.25390625 208 c 0
 306.25390625 192 288.25390625 172 272.25390625 168 c 0
 248.25390625 164 228.25390625 186 236.25390625 208 c 0
 240.25390625 222 260.25390625 236 274.25390625 240 c 0
EndSplineSet
EndChar

StartChar: o.ss01
Encoding: 1114142 -1 129
Width: 407
VWidth: 0
Flags: HW
LayerCount: 2
Back
Fore
SplineSet
129.194335938 368 m 0
 141.194335938 372 153.194335938 366 165.194335938 364 c 0
 177.194335938 362 185.194335938 364 197.194335938 360 c 0
 211.194335938 356 223.194335938 342 237.194335938 336 c 0
 273.194335938 320 309.194335938 300 335.194335938 268 c 0
 387.194335938 204 397.194335938 104 331.194335938 44 c 0
 315.194335938 28 291.194335938 20 271.194335938 12 c 0
 223.194335938 -8 153.194335938 -18 105.194335938 8 c 0
 -6.8056640625 68 19.1943359375 244 99.1943359375 320 c 0
 113.194335938 334 109.194335938 360 129.194335938 368 c 0
165.194335938 300 m 0
 149.194335938 296 137.194335938 280 127.194335938 268 c 0
 83.1943359375 216 69.1943359375 106 131.194335938 62 c 0
 155.194335938 46 201.194335938 52 227.194335938 60 c 0
 255.194335938 68 287.194335938 80 303.194335938 104 c 0
 343.194335938 160 297.194335938 238 247.194335938 268 c 0
 229.194335938 280 187.194335938 308 165.194335938 300 c 0
EndSplineSet
EndChar

StartChar: k.ss01
Encoding: 1114143 -1 130
Width: 393
VWidth: 0
Flags: HW
LayerCount: 2
Back
Fore
SplineSet
114.944335938 212 m 1
 114.944335938 144 114.944335938 74 122.944335938 6 c 0
 124.944335938 -10 112.944335938 -26 94.9443359375 -26 c 0
 78.9443359375 -26 68.9443359375 -10 64.9443359375 4 c 0
 56.9443359375 34 56.9443359375 70 56.9443359375 102 c 0
 56.9443359375 206 56.9443359375 312 50.9443359375 416 c 0
 48.9443359375 452 48.9443359375 484 46.9443359375 520 c 0
 46.9443359375 532 36.9443359375 546 40.9443359375 560 c 0
 48.9443359375 588 88.9443359375 584 96.9443359375 556 c 0
 106.944335938 514 104.944335938 468 106.944335938 424 c 0
 106.944335938 388 114.944335938 352 110.944335938 318 c 1
 146.944335938 344 176.944335938 388 204.944335938 424 c 0
 216.944335938 440 230.944335938 468 250.944335938 472 c 0
 278.944335938 478 292.944335938 444 276.944335938 424 c 0
 232.944335938 366 192.944335938 312 140.944335938 260 c 1
 164.944335938 252 184.944335938 228 202.944335938 212 c 0
 250.944335938 170 296.944335938 122 336.944335938 70 c 0
 350.944335938 52 400.944335938 -4 352.944335938 -16 c 0
 324.944335938 -24 300.944335938 24 284.944335938 40 c 0
 230.944335938 102 176.944335938 158 114.944335938 212 c 1
EndSplineSet
EndChar

StartChar: w.ss01
Encoding: 1114144 -1 131
Width: 508
VWidth: 0
Flags: HW
LayerCount: 2
Back
Fore
SplineSet
253.91796875 58 m 1
 233.91796875 -10 155.91796875 -38 103.91796875 16 c 0
 43.91796875 80 35.91796875 190 33.91796875 274 c 0
 33.91796875 298 21.91796875 342 39.91796875 360 c 0
 55.91796875 376 85.91796875 368 87.91796875 344 c 0
 95.91796875 268 87.91796875 190 111.91796875 114 c 0
 119.91796875 94 137.91796875 46 165.91796875 46 c 0
 185.91796875 46 197.91796875 78 203.91796875 92 c 0
 223.91796875 140 223.91796875 182 231.91796875 232 c 0
 233.91796875 246 241.91796875 258 257.91796875 262 c 0
 285.91796875 268 291.91796875 238 291.91796875 216 c 0
 291.91796875 172 293.91796875 132 307.91796875 90 c 0
 311.91796875 74 321.91796875 50 339.91796875 48 c 0
 375.91796875 44 399.91796875 94 407.91796875 122 c 0
 423.91796875 178 421.91796875 248 403.91796875 304 c 0
 395.91796875 328 375.91796875 346 371.91796875 370 c 0
 367.91796875 394 399.91796875 408 417.91796875 392 c 0
 441.91796875 372 451.91796875 338 459.91796875 310 c 0
 479.91796875 234 491.91796875 128 447.91796875 60 c 0
 415.91796875 8 343.91796875 -40 287.91796875 8 c 0
 271.91796875 22 263.91796875 40 253.91796875 58 c 1
EndSplineSet
EndChar

StartChar: D.ss01
Encoding: 1114145 -1 132
Width: 441
VWidth: 0
Flags: HW
LayerCount: 2
Back
Fore
SplineSet
119.111328125 672 m 0
 151.111328125 676 183.111328125 668 215.111328125 660 c 0
 347.111328125 624 431.111328125 516 431.111328125 380 c 0
 431.111328125 254 393.111328125 120 277.111328125 52 c 0
 231.111328125 24 179.111328125 16 127.111328125 2 c 0
 111.111328125 -2 113.111328125 -22 93.111328125 -22 c 0
 73.111328125 -24 63.111328125 -4 63.111328125 12 c 0
 59.111328125 52 63.111328125 94 63.111328125 136 c 0
 63.111328125 270 67.111328125 404 67.111328125 538 c 0
 67.111328125 566 51.111328125 620 67.111328125 646 c 0
 77.111328125 662 101.111328125 668 119.111328125 672 c 0
121.111328125 58 m 1
 177.111328125 74 235.111328125 84 279.111328125 124 c 0
 367.111328125 200 395.111328125 368 355.111328125 476 c 0
 329.111328125 544 261.111328125 588 193.111328125 608 c 0
 177.111328125 612 139.111328125 628 123.111328125 616 c 0
 115.111328125 612 121.111328125 590 121.111328125 582 c 0
 123.111328125 548 123.111328125 514 123.111328125 480 c 0
 123.111328125 340 121.111328125 198 121.111328125 58 c 1
EndSplineSet
EndChar

StartChar: Q.ss01
Encoding: 1114146 -1 133
Width: 537
VWidth: 0
Flags: HW
LayerCount: 2
Back
Fore
SplineSet
156.791992188 618 m 1
 144.791992188 618 132.791992188 620 124.791992188 628 c 0
 112.791992188 642 118.791992188 666 136.791992188 672 c 0
 164.791992188 680 204.791992188 670 232.791992188 666 c 0
 362.791992188 648 446.791992188 546 494.791992188 430 c 0
 514.791992188 380 530.791992188 332 526.791992188 276 c 0
 522.791992188 204 476.791992188 152 436.791992188 96 c 0
 430.791992188 88 440.791992188 80 444.791992188 72 c 0
 458.791992188 52 494.791992188 12 454.791992188 -4 c 0
 432.791992188 -12 414.791992188 12 402.791992188 28 c 0
 398.791992188 32 392.791992188 44 384.791992188 44 c 0
 368.791992188 44 346.791992188 20 330.791992188 14 c 0
 278.791992188 -6 216.791992188 -4 164.791992188 20 c 0
 10.7919921875 92 28.7919921875 312 64.7919921875 448 c 0
 72.7919921875 476 80.7919921875 502 92.7919921875 530 c 0
 106.791992188 562 132.791992188 594 156.791992188 618 c 1
350.791992188 96 m 1
 338.791992188 122 304.791992188 144 300.791992188 172 c 0
 296.791992188 192 322.791992188 210 340.791992188 198 c 0
 362.791992188 184 370.791992188 152 394.791992188 138 c 1
 416.791992188 172 448.791992188 202 460.791992188 242 c 0
 488.791992188 322 444.791992188 414 404.791992188 480 c 0
 376.791992188 526 340.791992188 566 288.791992188 588 c 0
 264.791992188 598 246.791992188 606 222.791992188 596 c 0
 206.791992188 588 194.791992188 578 182.791992188 566 c 0
 158.791992188 542 144.791992188 510 132.791992188 478 c 0
 96.7919921875 388 84.7919921875 270 112.791992188 176 c 0
 120.791992188 148 132.791992188 120 152.791992188 100 c 0
 208.791992188 44 292.791992188 56 350.791992188 96 c 1
EndSplineSet
EndChar

StartChar: one.ss01
Encoding: 1114147 -1 134
Width: 267
VWidth: 0
Flags: HW
LayerCount: 2
Back
Fore
SplineSet
175.944335938 566 m 1
 159.944335938 550 143.944335938 532 125.944335938 516 c 0
 107.944335938 500 85.9443359375 480 61.9443359375 476 c 0
 41.9443359375 472 23.9443359375 494 31.9443359375 514 c 0
 37.9443359375 530 61.9443359375 534 73.9443359375 546 c 0
 103.944335938 574 131.944335938 604 159.944335938 632 c 0
 173.944335938 646 191.944335938 660 211.944335938 648 c 0
 223.944335938 640 225.944335938 628 229.944335938 614 c 0
 235.944335938 582 235.944335938 552 235.944335938 520 c 0
 239.944335938 392 229.944335938 260 229.944335938 132 c 0
 229.944335938 92 231.944335938 56 233.944335938 16 c 0
 233.944335938 4 227.944335938 -8 215.944335938 -12 c 0
 195.944335938 -18 181.944335938 -6 177.944335938 12 c 0
 171.944335938 48 177.944335938 82 173.944335938 118 c 0
 159.944335938 266 193.944335938 418 175.944335938 566 c 1
175.944335938 568 m 1
 177.944335938 566 l 1
 175.944335938 568 l 1
EndSplineSet
EndChar

StartChar: colon.ss01
Encoding: 1114148 -1 135
Width: 135
VWidth: 0
Flags: HW
LayerCount: 2
Back
Fore
SplineSet
46.80859375 336 m 0
 78.80859375 348 96.80859375 296 64.80859375 284 c 0
 32.80859375 274 14.80859375 324 46.80859375 336 c 0
68.80859375 128 m 0
 104.80859375 138 120.80859375 82 84.80859375 70 c 0
 48.80859375 58 32.80859375 116 68.80859375 128 c 0
EndSplineSet
EndChar

StartChar: quotedblleft.ss01
Encoding: 1114149 -1 136
Width: 250
VWidth: 0
Flags: HW
LayerCount: 2
Back
Fore
SplineSet
82.7880859375 668 m 0
 98.7880859375 674 116.788085938 664 118.788085938 646 c 0
 120.788085938 630 108.788085938 618 102.788085938 606 c 0
 94.7880859375 588 88.7880859375 566 88.7880859375 546 c 0
 88.7880859375 522 110.788085938 518 114.788085938 496 c 0
 118.788085938 482 108.788085938 468 96.7880859375 464 c 0
 72.7880859375 454 42.7880859375 486 34.7880859375 508 c 0
 22.7880859375 548 34.7880859375 596 54.7880859375 632 c 0
 62.7880859375 644 68.7880859375 664 82.7880859375 668 c 0
184.788085938 656 m 0
 200.788085938 660 214.788085938 650 218.788085938 634 c 0
 224.788085938 610 210.788085938 576 208.788085938 552 c 0
 206.788085938 528 216.788085938 512 218.788085938 490 c 0
 218.788085938 478 212.788085938 464 200.788085938 460 c 0
 176.788085938 452 162.788085938 478 154.788085938 498 c 0
 142.788085938 536 154.788085938 578 162.788085938 614 c 0
 166.788085938 630 164.788085938 650 184.788085938 656 c 0
EndSplineSet
EndChar

StartChar: bracketright.ss01
Encoding: 1114150 -1 137
Width: 338
VWidth: 0
Flags: HW
LayerCount: 2
Back
Fore
SplineSet
248.49609375 616 m 1
 190.49609375 610 136.49609375 600 76.49609375 608 c 0
 54.49609375 612 20.49609375 618 32.49609375 650 c 0
 44.49609375 678 84.49609375 662 108.49609375 662 c 0
 144.49609375 660 180.49609375 666 216.49609375 670 c 0
 236.49609375 674 258.49609375 680 278.49609375 672 c 0
 294.49609375 666 300.49609375 650 304.49609375 634 c 0
 314.49609375 584 302.49609375 530 302.49609375 480 c 0
 300.49609375 368 296.49609375 256 288.49609375 144 c 0
 284.49609375 108 284.49609375 72 284.49609375 36 c 0
 284.49609375 20 290.49609375 -2 284.49609375 -16 c 0
 278.49609375 -32 264.49609375 -38 248.49609375 -36 c 0
 196.49609375 -28 148.49609375 -12 96.49609375 -8 c 0
 78.49609375 -6 52.49609375 -6 44.49609375 14 c 0
 34.49609375 38 60.49609375 50 80.49609375 50 c 0
 128.49609375 50 180.49609375 30 228.49609375 32 c 1
 224.49609375 48 226.49609375 64 226.49609375 80 c 0
 226.49609375 120 232.49609375 162 232.49609375 202 c 0
 236.49609375 338 252.49609375 480 248.49609375 616 c 1
EndSplineSet
EndChar

StartChar: d.ss01
Encoding: 1114151 -1 138
Width: 378
VWidth: 0
Flags: HW
LayerCount: 2
Back
Fore
SplineSet
234 366 m 1
 228 398 234 434 234 466 c 0
 236 526 234 592 254 650 c 0
 258 658 264 668 270 676 c 0
 306 724 354 676 366 636 c 0
 402 528 376 390 348 282 c 0
 340 252 332 222 322 192 c 0
 318 180 308 162 308 148 c 0
 310 116 326 76 348 52 c 0
 358 40 374 36 382 24 c 0
 390 12 392 -6 380 -16 c 0
 364 -28 348 -18 334 -8 c 0
 302 16 288 42 268 76 c 1
 240 2 102 -62 50 22 c 0
 34 50 30 80 30 112 c 0
 30 182 46 260 86 318 c 0
 118 364 180 390 234 366 c 1
308 620 m 1
 280 524 292 416 292 318 c 1
 294 318 l 1
 312 382 316 450 320 514 c 0
 322 546 324 592 308 620 c 1
178 320 m 0
 154 316 134 292 122 272 c 0
 94 228 86 168 86 116 c 0
 86 80 92 36 138 44 c 0
 182 52 210 90 230 126 c 0
 236 138 244 150 246 162 c 0
 250 182 242 206 240 226 c 0
 240 242 234 252 230 268 c 0
 228 280 230 292 226 304 c 0
 218 320 194 324 178 320 c 0
294 316 m 1
 294 312 l 1
 294 316 l 1
EndSplineSet
EndChar

StartChar: l.ss01
Encoding: 1114152 -1 139
Width: 210
VWidth: 0
Flags: HW
LayerCount: 2
Back
Fore
SplineSet
72 624 m 0
 88 628 102 618 106 604 c 0
 114 580 106 552 104 528 c 0
 96 450 98 372 100 294 c 0
 100 244 102 192 110 144 c 0
 114 120 126 98 142 78 c 0
 150 68 164 60 168 48 c 0
 174 32 166 16 150 12 c 0
 134 8 122 18 110 28 c 0
 84 52 64 88 56 122 c 0
 40 182 40 248 40 308 c 0
 40 374 40 442 48 508 c 0
 52 532 52 554 52 578 c 0
 52 586 50 598 52 606 c 0
 54 614 64 620 72 624 c 0
EndSplineSet
EndChar

StartChar: v.ss01
Encoding: 1114153 -1 140
Width: 305
VWidth: 0
Flags: HW
LayerCount: 2
Back
Fore
SplineSet
137.08984375 88 m 1
 143.08984375 128 159.08984375 168 171.08984375 206 c 0
 179.08984375 232 189.08984375 258 201.08984375 282 c 0
 211.08984375 304 221.08984375 348 241.08984375 364 c 0
 257.08984375 376 285.08984375 362 285.08984375 342 c 0
 285.08984375 312 261.08984375 272 249.08984375 244 c 0
 225.08984375 184 209.08984375 120 189.08984375 58 c 0
 181.08984375 32 169.08984375 -10 137.08984375 -12 c 0
 103.08984375 -14 91.08984375 28 83.08984375 54 c 0
 63.08984375 126 61.08984375 198 45.08984375 270 c 0
 41.08984375 288 35.08984375 306 29.08984375 324 c 0
 25.08984375 336 17.08984375 348 21.08984375 360 c 0
 25.08984375 380 53.08984375 386 67.08984375 372 c 0
 85.08984375 356 91.08984375 318 97.08984375 294 c 0
 103.08984375 270 107.08984375 244 111.08984375 220 c 0
 119.08984375 176 121.08984375 128 137.08984375 88 c 1
EndSplineSet
EndChar

StartChar: L.ss01
Encoding: 1114154 -1 141
Width: 374
VWidth: 0
Flags: HW
LayerCount: 2
Back
Fore
SplineSet
123.806640625 48 m 1
 141.806640625 48 159.806640625 56 177.806640625 58 c 0
 223.806640625 62 271.806640625 64 317.806640625 68 c 0
 341.806640625 70 373.806640625 64 361.806640625 32 c 0
 353.806640625 8 315.806640625 12 295.806640625 10 c 0
 255.806640625 6 211.806640625 4 171.806640625 -2 c 0
 151.806640625 -6 133.806640625 -12 113.806640625 -16 c 0
 93.806640625 -20 69.806640625 -12 65.806640625 10 c 0
 53.806640625 62 63.806640625 122 65.806640625 174 c 0
 69.806640625 286 75.806640625 396 73.806640625 508 c 0
 73.806640625 546 63.806640625 592 69.806640625 630 c 0
 71.806640625 646 87.806640625 656 103.806640625 652 c 0
 119.806640625 648 125.806640625 630 125.806640625 614 c 0
 127.806640625 578 129.806640625 544 129.806640625 508 c 0
 129.806640625 356 123.806640625 200 123.806640625 48 c 1
EndSplineSet
EndChar

StartChar: S.ss01
Encoding: 1114155 -1 142
Width: 383
VWidth: 0
Flags: HW
LayerCount: 2
Back
Fore
SplineSet
204.435546875 656 m 0
 246.435546875 662 296.435546875 648 330.435546875 624 c 0
 348.435546875 612 362.435546875 578 338.435546875 562 c 0
 316.435546875 548 308.435546875 568 292.435546875 580 c 0
 284.435546875 588 270.435546875 592 260.435546875 596 c 0
 192.435546875 618 112.435546875 560 116.435546875 488 c 0
 118.435546875 448 148.435546875 412 172.435546875 384 c 0
 188.435546875 364 208.435546875 348 224.435546875 330 c 0
 276.435546875 272 332.435546875 212 348.435546875 132 c 0
 356.435546875 96 356.435546875 54 328.435546875 26 c 0
 316.435546875 14 298.435546875 6 282.435546875 -2 c 0
 262.435546875 -12 240.435546875 -20 216.435546875 -24 c 0
 154.435546875 -32 98.435546875 12 54.435546875 52 c 0
 38.435546875 68 0.435546875 100 32.435546875 120 c 0
 54.435546875 136 70.435546875 112 86.435546875 100 c 0
 136.435546875 56 184.435546875 16 252.435546875 48 c 0
 268.435546875 56 288.435546875 66 292.435546875 84 c 0
 300.435546875 124 272.435546875 172 250.435546875 204 c 0
 238.435546875 224 224.435546875 242 208.435546875 258 c 0
 136.435546875 338 8.435546875 448 80.435546875 568 c 0
 92.435546875 588 106.435546875 602 122.435546875 616 c 0
 146.435546875 636 174.435546875 652 204.435546875 656 c 0
EndSplineSet
EndChar

StartChar: two.ss01
Encoding: 1114156 -1 143
Width: 372
VWidth: 0
Flags: HW
LayerCount: 2
Back
Fore
SplineSet
209.5 664 m 0
 289.5 676 337.5 602 321.5 530 c 0
 293.5 406 207.5 298 141.5 192 c 0
 123.5 164 105.5 132 93.5 100 c 0
 89.5 92 85.5 74 89.5 66 c 0
 97.5 54 131.5 62 143.5 62 c 0
 199.5 66 251.5 72 307.5 68 c 0
 335.5 68 359.5 28 323.5 16 c 0
 307.5 10 289.5 14 273.5 14 c 0
 249.5 14 227.5 12 205.5 10 c 0
 165.5 6 121.5 0 81.5 4 c 0
 3.5 14 31.5 110 53.5 156 c 0
 105.5 264 185.5 354 233.5 462 c 0
 245.5 494 273.5 540 265.5 576 c 0
 261.5 598 233.5 608 213.5 604 c 0
 179.5 600 143.5 570 125.5 542 c 0
 117.5 530 121.5 512 109.5 500 c 0
 93.5 488 71.5 492 65.5 512 c 0
 57.5 536 71.5 560 83.5 578 c 0
 111.5 618 159.5 656 209.5 664 c 0
EndSplineSet
EndChar

StartChar: semicolon.ss01
Encoding: 1114157 -1 144
Width: 156
VWidth: 0
Flags: HW
LayerCount: 2
Back
Fore
SplineSet
70 392 m 0
 106 400 128 340 88 328 c 0
 52 318 34 384 70 392 c 0
78 112 m 0
 110 122 120 82 124 60 c 0
 130 14 120 -78 64 -92 c 0
 48 -96 30 -82 30 -64 c 0
 30 -44 52 -26 58 -6 c 0
 62 12 68 30 68 50 c 0
 68 62 62 74 62 86 c 0
 62 98 66 108 78 112 c 0
EndSplineSet
EndChar

StartChar: quotedblright.ss01
Encoding: 1114158 -1 145
Width: 242
VWidth: 0
Flags: HW
LayerCount: 2
Back
Fore
SplineSet
58.529296875 656 m 0
 82.529296875 660 92.529296875 636 98.529296875 618 c 0
 110.529296875 582 110.529296875 500 60.529296875 492 c 0
 46.529296875 490 34.529296875 502 30.529296875 514 c 0
 26.529296875 534 46.529296875 558 46.529296875 578 c 0
 46.529296875 598 34.529296875 616 38.529296875 632 c 0
 40.529296875 644 46.529296875 654 58.529296875 656 c 0
158.529296875 652 m 0
 182.529296875 660 190.529296875 636 198.529296875 618 c 0
 214.529296875 582 226.529296875 514 174.529296875 500 c 0
 170.529296875 500 164.529296875 500 160.529296875 500 c 0
 120.529296875 508 154.529296875 548 152.529296875 570 c 0
 150.529296875 590 138.529296875 608 138.529296875 628 c 0
 138.529296875 640 146.529296875 648 158.529296875 652 c 0
EndSplineSet
EndChar

StartChar: parenleft.ss01
Encoding: 1114159 -1 146
Width: 247
VWidth: 0
Flags: HW
LayerCount: 2
Back
Fore
SplineSet
161.10546875 736 m 0
 183.10546875 744 203.10546875 718 195.10546875 698 c 0
 187.10546875 682 177.10546875 668 169.10546875 652 c 0
 149.10546875 616 129.10546875 580 117.10546875 542 c 0
 73.10546875 414 87.10546875 266 129.10546875 140 c 0
 137.10546875 112 145.10546875 84 161.10546875 60 c 0
 177.10546875 36 199.10546875 14 213.10546875 -12 c 0
 221.10546875 -28 215.10546875 -46 199.10546875 -52 c 0
 175.10546875 -62 157.10546875 -34 145.10546875 -18 c 0
 109.10546875 26 91.10546875 70 71.10546875 122 c 0
 15.10546875 274 13.10546875 466 85.10546875 612 c 0
 101.10546875 644 113.10546875 674 133.10546875 704 c 0
 141.10546875 716 147.10546875 732 161.10546875 736 c 0
EndSplineSet
EndChar

StartChar: asciicircum.ss01
Encoding: 1114160 -1 147
Width: 371
VWidth: 0
Flags: HW
LayerCount: 2
Back
Fore
SplineSet
166.256835938 634 m 1
 156.256835938 610 140.256835938 590 124.256835938 570 c 0
 112.256835938 554 102.256835938 536 86.2568359375 520 c 0
 70.2568359375 506 48.2568359375 496 34.2568359375 518 c 0
 20.2568359375 540 44.2568359375 556 56.2568359375 572 c 0
 82.2568359375 612 104.256835938 660 132.256835938 696 c 0
 142.256835938 708 162.256835938 714 176.256835938 706 c 0
 192.256835938 698 204.256835938 680 216.256835938 668 c 0
 252.256835938 636 286.256835938 602 320.256835938 568 c 0
 336.256835938 552 354.256835938 528 328.256835938 512 c 0
 308.256835938 500 290.256835938 520 276.256835938 532 c 0
 238.256835938 564 202.256835938 598 166.256835938 634 c 1
EndSplineSet
EndChar

StartChar: p.ss01
Encoding: 1114161 -1 148
Width: 334
VWidth: 0
Flags: HW
LayerCount: 2
Back
Fore
SplineSet
92 4 m 1
 92 -44 88 -94 86 -142 c 0
 86 -152 90 -162 90 -170 c 0
 86 -190 64 -198 48 -190 c 0
 30 -180 30 -154 30 -136 c 0
 30 -90 32 -44 32 2 c 0
 32 86 40 168 40 252 c 0
 40 276 40 296 40 320 c 0
 40 332 38 344 44 354 c 0
 52 366 66 368 78 372 c 0
 114 388 162 396 202 388 c 0
 296 372 322 280 312 196 c 0
 300 84 210 -8 92 4 c 1
94 320 m 1
 102 234 94 144 94 58 c 1
 152 72 198 72 230 132 c 0
 254 178 274 268 232 310 c 0
 196 346 136 336 94 320 c 1
EndSplineSet
EndChar

StartChar: f.ss01
Encoding: 1114162 -1 149
Width: 259
VWidth: 0
Flags: HW
LayerCount: 2
Back
Fore
SplineSet
57.4951171875 364 m 1
 57.4951171875 428 61.4951171875 516 117.495117188 556 c 0
 165.495117188 592 233.495117188 588 261.495117188 530 c 0
 265.495117188 520 269.495117188 508 269.495117188 496 c 0
 269.495117188 476 247.495117188 462 229.495117188 474 c 0
 205.495117188 488 213.495117188 532 173.495117188 520 c 0
 117.495117188 500 115.495117188 416 117.495117188 368 c 1
 145.495117188 374 181.495117188 374 211.495117188 374 c 0
 223.495117188 374 237.495117188 366 241.495117188 354 c 0
 245.495117188 340 235.495117188 324 223.495117188 320 c 0
 215.495117188 316 203.495117188 316 195.495117188 316 c 0
 171.495117188 312 143.495117188 306 119.495117188 310 c 1
 115.495117188 290 119.495117188 266 119.495117188 244 c 0
 119.495117188 196 121.495117188 146 121.495117188 98 c 0
 121.495117188 76 129.495117188 32 113.495117188 16 c 0
 93.4951171875 -6 65.4951171875 16 65.4951171875 40 c 0
 61.4951171875 128 57.4951171875 218 57.4951171875 306 c 1
 33.4951171875 298 -10.5048828125 300 -32.5048828125 312 c 0
 -52.5048828125 322 -56.5048828125 348 -38.5048828125 360 c 0
 -24.5048828125 370 -14.5048828125 360 1.4951171875 360 c 0
 21.4951171875 360 39.4951171875 364 57.4951171875 364 c 1
EndSplineSet
EndChar

StartChar: x.ss01
Encoding: 1114163 -1 150
Width: 285
VWidth: 0
Flags: HW
LayerCount: 2
Back
Fore
SplineSet
138.758789062 246 m 1
 146.758789062 266 158.758789062 284 170.758789062 302 c 0
 184.758789062 326 196.758789062 354 216.758789062 374 c 0
 234.758789062 392 266.758789062 382 264.758789062 354 c 0
 264.758789062 338 252.758789062 328 244.758789062 316 c 0
 228.758789062 286 210.758789062 256 194.758789062 226 c 0
 188.758789062 214 172.758789062 198 172.758789062 186 c 0
 172.758789062 174 184.758789062 158 188.758789062 148 c 0
 202.758789062 118 216.758789062 88 234.758789062 60 c 0
 244.758789062 44 264.758789062 26 256.758789062 6 c 0
 246.758789062 -18 218.758789062 -10 204.758789062 4 c 0
 176.758789062 32 142.758789062 84 134.758789062 124 c 1
 106.758789062 100 90.7587890625 50 72.7587890625 18 c 0
 64.7587890625 2 52.7587890625 -16 30.7587890625 -12 c 0
 -1.2412109375 -6 10.7587890625 24 20.7587890625 44 c 0
 36.7587890625 76 50.7587890625 110 70.7587890625 142 c 0
 78.7587890625 154 96.7587890625 172 98.7587890625 188 c 0
 100.758789062 200 80.7587890625 220 74.7587890625 232 c 0
 54.7587890625 264 22.7587890625 308 18.7587890625 344 c 0
 16.7587890625 368 48.7587890625 388 66.7587890625 368 c 0
 76.7587890625 358 78.7587890625 340 86.7587890625 328 c 0
 102.758789062 300 122.758789062 274 134.758789062 246 c 1
 138.758789062 246 l 1
EndSplineSet
EndChar

StartChar: E.ss01
Encoding: 1114164 -1 151
Width: 408
VWidth: 0
Flags: HW
LayerCount: 2
Back
Fore
SplineSet
142.7109375 76 m 1
 206.7109375 72 272.7109375 70 336.7109375 68 c 0
 358.7109375 68 394.7109375 66 386.7109375 34 c 0
 380.7109375 6 342.7109375 12 320.7109375 12 c 0
 264.7109375 12 206.7109375 14 150.7109375 16 c 0
 128.7109375 16 96.7109375 18 88.7109375 42 c 0
 76.7109375 78 80.7109375 124 80.7109375 162 c 0
 76.7109375 264 82.7109375 366 82.7109375 468 c 0
 82.7109375 502 82.7109375 540 74.7109375 572 c 0
 70.7109375 586 56.7109375 594 60.7109375 610 c 0
 64.7109375 626 78.7109375 656 90.7109375 664 c 0
 108.7109375 676 134.7109375 660 130.7109375 640 c 1
 150.7109375 636 172.7109375 642 192.7109375 644 c 0
 228.7109375 648 268.7109375 650 304.7109375 650 c 0
 324.7109375 650 352.7109375 660 368.7109375 644 c 0
 396.7109375 616 356.7109375 596 332.7109375 592 c 0
 264.7109375 584 196.7109375 586 128.7109375 582 c 1
 136.7109375 510 l 1
 138.7109375 324 l 1
 168.7109375 336 202.7109375 332 234.7109375 334 c 0
 262.7109375 336 296.7109375 342 324.7109375 340 c 0
 344.7109375 338 358.7109375 314 346.7109375 298 c 0
 334.7109375 282 308.7109375 284 292.7109375 280 c 0
 240.7109375 272 190.7109375 276 138.7109375 268 c 1
 142.7109375 76 l 1
EndSplineSet
EndChar

StartChar: T.ss01
Encoding: 1114165 -1 152
Width: 500
VWidth: 0
Flags: HW
LayerCount: 2
Back
Fore
SplineSet
247.278320312 618 m 1
 221.278320312 610 189.278320312 616 161.278320312 616 c 0
 125.278320312 616 87.2783203125 604 51.2783203125 612 c 0
 27.2783203125 616 21.2783203125 654 45.2783203125 664 c 0
 67.2783203125 672 107.278320312 668 131.278320312 670 c 0
 217.278320312 678 303.278320312 674 389.278320312 678 c 0
 413.278320312 678 437.278320312 678 461.278320312 682 c 0
 475.278320312 684 489.278320312 690 501.278320312 678 c 0
 525.278320312 654 495.278320312 632 473.278320312 628 c 0
 417.278320312 616 357.278320312 616 301.278320312 616 c 1
 305.278320312 600 303.278320312 584 303.278320312 568 c 0
 303.278320312 536 301.278320312 504 301.278320312 472 c 0
 301.278320312 354 295.278320312 236 291.278320312 120 c 0
 291.278320312 92 287.278320312 62 283.278320312 34 c 0
 283.278320312 22 287.278320312 12 283.278320312 0 c 0
 279.278320312 -16 261.278320312 -24 245.278320312 -16 c 0
 229.278320312 -8 227.278320312 8 227.278320312 24 c 0
 225.278320312 60 233.278320312 100 233.278320312 136 c 0
 235.278320312 296 251.278320312 458 247.278320312 618 c 1
EndSplineSet
EndChar

StartChar: three.ss01
Encoding: 1114166 -1 153
Width: 393
VWidth: 0
Flags: HW
LayerCount: 2
Back
Fore
SplineSet
256.1015625 410 m 1
 272.1015625 406 286.1015625 400 298.1015625 392 c 0
 378.1015625 344 370.1015625 254 346.1015625 178 c 0
 318.1015625 90 262.1015625 -8 156.1015625 12 c 0
 118.1015625 20 84.1015625 40 54.1015625 64 c 0
 40.1015625 76 22.1015625 92 34.1015625 112 c 0
 52.1015625 140 80.1015625 114 98.1015625 102 c 0
 134.1015625 78 182.1015625 52 222.1015625 80 c 0
 242.1015625 92 254.1015625 114 264.1015625 134 c 0
 294.1015625 194 338.1015625 304 258.1015625 344 c 0
 208.1015625 370 198.1015625 318 158.1015625 302 c 0
 138.1015625 294 114.1015625 306 114.1015625 328 c 0
 114.1015625 364 156.1015625 382 176.1015625 404 c 0
 200.1015625 430 216.1015625 462 232.1015625 494 c 0
 240.1015625 508 248.1015625 526 246.1015625 542 c 0
 242.1015625 566 226.1015625 594 210.1015625 612 c 0
 176.1015625 652 110.1015625 590 94.1015625 560 c 0
 88.1015625 548 82.1015625 532 74.1015625 524 c 0
 56.1015625 508 28.1015625 520 30.1015625 544 c 0
 30.1015625 560 42.1015625 580 50.1015625 594 c 0
 82.1015625 646 164.1015625 708 228.1015625 672 c 0
 246.1015625 662 258.1015625 642 270.1015625 626 c 0
 286.1015625 602 302.1015625 576 306.1015625 548 c 0
 312.1015625 500 280.1015625 450 256.1015625 410 c 1
EndSplineSet
EndChar

StartChar: hyphen.ss01
Encoding: 1114167 -1 154
Width: 385
VWidth: 0
Flags: HW
LayerCount: 2
Back
Fore
SplineSet
91.046875 244 m 0
 149.046875 250 211.046875 246 269.046875 242 c 0
 289.046875 242 313.046875 246 333.046875 242 c 0
 359.046875 238 363.046875 200 339.046875 190 c 0
 319.046875 182 291.046875 184 269.046875 184 c 0
 217.046875 184 167.046875 186 115.046875 188 c 0
 95.046875 188 63.046875 180 43.046875 192 c 0
 27.046875 200 25.046875 226 41.046875 238 c 0
 53.046875 246 75.046875 242 91.046875 244 c 0
EndSplineSet
EndChar

StartChar: at.ss01
Encoding: 1114168 -1 155
Width: 513
VWidth: 0
Flags: HW
LayerCount: 2
Back
Fore
SplineSet
277.159179688 242 m 1
 245.159179688 204 179.159179688 232 159.159179688 268 c 0
 133.159179688 316 155.159179688 388 195.159179688 424 c 0
 227.159179688 452 281.159179688 460 313.159179688 432 c 0
 355.159179688 396 339.159179688 362 325.159179688 318 c 0
 321.159179688 306 321.159179688 276 337.159179688 272 c 0
 347.159179688 268 357.159179688 276 365.159179688 282 c 0
 387.159179688 298 401.159179688 324 409.159179688 350 c 0
 431.159179688 426 433.159179688 524 357.159179688 572 c 0
 273.159179688 624 197.159179688 588 149.159179688 510 c 0
 93.1591796875 420 65.1591796875 304 109.159179688 204 c 0
 135.159179688 146 205.159179688 58 277.159179688 68 c 0
 321.159179688 74 353.159179688 104 389.159179688 124 c 0
 405.159179688 134 433.159179688 128 433.159179688 104 c 0
 433.159179688 80 399.159179688 64 383.159179688 52 c 0
 323.159179688 12 253.159179688 -6 189.159179688 30 c 0
 29.1591796875 118 -4.8408203125 320 63.1591796875 476 c 0
 99.1591796875 560 161.159179688 652 261.159179688 656 c 0
 281.159179688 656 303.159179688 652 323.159179688 648 c 0
 345.159179688 644 365.159179688 636 385.159179688 624 c 0
 495.159179688 560 505.159179688 406 453.159179688 302 c 0
 429.159179688 254 371.159179688 190 311.159179688 216 c 0
 297.159179688 222 287.159179688 230 277.159179688 242 c 1
285.159179688 380 m 1
 273.159179688 400 249.159179688 398 233.159179688 384 c 0
 213.159179688 368 201.159179688 330 205.159179688 306 c 0
 209.159179688 292 223.159179688 276 239.159179688 284 c 0
 249.159179688 290 257.159179688 304 261.159179688 314 c 0
 271.159179688 338 265.159179688 360 285.159179688 380 c 1
EndSplineSet
EndChar

StartChar: parenright.ss01
Encoding: 1114169 -1 156
Width: 232
VWidth: 0
Flags: HW
LayerCount: 2
Back
Fore
SplineSet
48.193359375 748 m 0
 76.193359375 756 80.193359375 728 90.193359375 712 c 0
 116.193359375 668 146.193359375 624 164.193359375 576 c 0
 224.193359375 416 206.193359375 224 160.193359375 64 c 0
 148.193359375 24 136.193359375 -16 116.193359375 -52 c 0
 108.193359375 -66 98.193359375 -84 82.193359375 -88 c 0
 64.193359375 -92 46.193359375 -74 50.193359375 -56 c 0
 52.193359375 -44 62.193359375 -36 66.193359375 -24 c 0
 76.193359375 -2 84.193359375 20 92.193359375 42 c 0
 148.193359375 200 162.193359375 402 106.193359375 562 c 0
 90.193359375 610 56.193359375 650 36.193359375 698 c 0
 28.193359375 714 24.193359375 740 48.193359375 748 c 0
EndSplineSet
EndChar

StartChar: grave.ss01
Encoding: 1114170 -1 157
Width: 242
VWidth: 0
Flags: HW
LayerCount: 2
Back
Fore
SplineSet
54.7880859375 704 m 0
 74.7880859375 704 90.7880859375 688 102.788085938 676 c 0
 134.788085938 644 178.788085938 620 206.788085938 584 c 0
 218.788085938 568 210.788085938 544 190.788085938 540 c 0
 174.788085938 536 156.788085938 550 144.788085938 560 c 0
 116.788085938 580 90.7880859375 608 66.7880859375 632 c 0
 56.7880859375 642 42.7880859375 650 34.7880859375 662 c 0
 22.7880859375 678 34.7880859375 704 54.7880859375 704 c 0
EndSplineSet
EndChar

StartChar: a.ss01
Encoding: 1114171 -1 158
Width: 463
VWidth: 0
Flags: HW
LayerCount: 2
Back
Fore
SplineSet
314 136 m 1
 284 72 230 28 162 8 c 0
 124 -2 82 0 54 32 c 0
 34 56 30 84 30 112 c 0
 30 180 64 254 108 304 c 0
 130 328 156 350 188 360 c 0
 242 376 306 356 334 304 c 0
 358 260 352 204 368 156 c 0
 376 128 388 100 406 76 c 0
 412 68 420 64 426 56 c 0
 434 48 436 34 430 26 c 0
 418 4 390 14 374 28 c 0
 342 56 330 100 314 136 c 1
218 308 m 0
 150 296 106 206 94 146 c 0
 86 110 82 56 134 64 c 0
 218 76 260 146 286 218 c 0
 290 228 294 240 294 252 c 0
 290 288 254 314 218 308 c 0
EndSplineSet
EndChar

StartChar: t.ss01
Encoding: 1114172 -1 159
Width: 242
VWidth: 0
Flags: HW
LayerCount: 2
Back
Fore
SplineSet
78.9658203125 368 m 1
 78.9658203125 440 72.9658203125 512 76.9658203125 584 c 0
 76.9658203125 608 84.9658203125 652 118.965820312 636 c 0
 142.965820312 624 132.965820312 590 132.965820312 568 c 0
 136.965820312 502 130.965820312 434 138.965820312 370 c 1
 160.965820312 372 220.965820312 378 236.965820312 358 c 0
 246.965820312 344 242.965820312 324 226.965820312 316 c 0
 206.965820312 308 164.965820312 306 142.965820312 312 c 1
 144.965820312 228 152.965820312 136 172.965820312 56 c 0
 178.965820312 32 210.965820312 -14 174.965820312 -28 c 0
 138.965820312 -42 122.965820312 18 116.965820312 42 c 0
 100.965820312 102 92.9658203125 160 88.9658203125 220 c 0
 84.9658203125 250 88.9658203125 284 80.9658203125 312 c 1
 52.9658203125 308 24.9658203125 306 -3.0341796875 306 c 0
 -15.0341796875 306 -27.0341796875 306 -35.0341796875 316 c 0
 -45.0341796875 328 -39.0341796875 348 -25.0341796875 356 c 0
 -17.0341796875 360 -5.0341796875 362 2.9658203125 362 c 0
 26.9658203125 366 56.9658203125 374 78.9658203125 368 c 1
EndSplineSet
EndChar

StartChar: y.ss01
Encoding: 1114173 -1 160
Width: 369
VWidth: 0
Flags: HW
LayerCount: 2
Back
Fore
SplineSet
264 134 m 1
 252 108 236 84 220 62 c 0
 208 48 196 36 182 24 c 0
 138 -12 92 2 64 50 c 0
 28 112 28 178 24 246 c 0
 22 272 20 298 20 324 c 0
 20 336 20 350 28 360 c 0
 44 376 72 364 76 340 c 0
 84 268 70 196 94 128 c 0
 100 110 108 72 128 64 c 0
 136 60 144 68 148 72 c 0
 164 86 176 104 188 120 c 0
 212 156 242 204 248 248 c 0
 252 270 246 292 248 316 c 0
 250 336 256 360 280 360 c 0
 344 364 308 264 312 232 c 0
 324 140 348 48 336 -44 c 0
 332 -86 320 -132 286 -160 c 0
 236 -202 164 -190 108 -174 c 0
 88 -168 56 -168 52 -140 c 0
 50 -122 68 -110 84 -112 c 0
 134 -118 192 -148 240 -120 c 0
 264 -106 272 -78 276 -54 c 0
 286 2 284 80 264 134 c 1
EndSplineSet
EndChar

StartChar: F.ss01
Encoding: 1114174 -1 161
Width: 386
VWidth: 0
Flags: HW
LayerCount: 2
Back
Fore
SplineSet
153.196289062 264 m 1
 153.196289062 228 155.196289062 196 157.196289062 160 c 0
 157.196289062 132 161.196289062 104 161.196289062 76 c 0
 161.196289062 64 165.196289062 52 161.196289062 40 c 0
 153.196289062 18 123.196289062 14 111.196289062 34 c 0
 105.196289062 46 105.196289062 62 105.196289062 74 c 0
 101.196289062 104 99.1962890625 134 97.1962890625 164 c 0
 95.1962890625 196 97.1962890625 228 93.1962890625 260 c 0
 93.1962890625 270 83.1962890625 278 83.1962890625 288 c 0
 83.1962890625 298 91.1962890625 306 91.1962890625 316 c 0
 93.1962890625 368 91.1962890625 426 87.1962890625 478 c 0
 85.1962890625 510 85.1962890625 544 79.1962890625 576 c 0
 75.1962890625 592 63.1962890625 606 75.1962890625 622 c 0
 87.1962890625 638 121.196289062 638 141.196289062 642 c 0
 191.196289062 650 239.196289062 656 291.196289062 654 c 0
 309.196289062 654 337.196289062 654 353.196289062 644 c 0
 371.196289062 632 371.196289062 604 351.196289062 596 c 0
 335.196289062 588 309.196289062 594 293.196289062 594 c 0
 273.196289062 594 251.196289062 594 231.196289062 594 c 0
 199.196289062 594 167.196289062 586 135.196289062 584 c 1
 151.196289062 320 l 1
 199.196289062 322 245.196289062 326 293.196289062 328 c 0
 311.196289062 328 335.196289062 332 343.196289062 312 c 0
 355.196289062 286 329.196289062 276 309.196289062 272 c 0
 257.196289062 264 205.196289062 264 153.196289062 264 c 1
EndSplineSet
EndChar

StartChar: U.ss01
Encoding: 1114175 -1 162
Width: 522
VWidth: 0
Flags: HW
LayerCount: 2
Back
Fore
SplineSet
456.37890625 656 m 0
 484.37890625 658 484.37890625 628 488.37890625 608 c 0
 496.37890625 552 502.37890625 494 508.37890625 436 c 0
 516.37890625 352 510.37890625 262 490.37890625 178 c 0
 482.37890625 138 468.37890625 96 444.37890625 64 c 0
 404.37890625 12 336.37890625 -16 272.37890625 -20 c 0
 192.37890625 -26 148.37890625 32 124.37890625 98 c 0
 80.37890625 210 76.37890625 332 68.37890625 452 c 0
 64.37890625 496 60.37890625 536 60.37890625 580 c 0
 60.37890625 596 56.37890625 622 74.37890625 632 c 0
 90.37890625 640 108.37890625 630 112.37890625 614 c 0
 116.37890625 596 116.37890625 574 116.37890625 554 c 0
 116.37890625 530 118.37890625 510 120.37890625 486 c 0
 128.37890625 372 138.37890625 258 172.37890625 148 c 0
 180.37890625 120 190.37890625 78 214.37890625 58 c 0
 238.37890625 38 272.37890625 38 300.37890625 46 c 0
 336.37890625 54 376.37890625 74 400.37890625 106 c 0
 420.37890625 134 428.37890625 176 436.37890625 210 c 0
 454.37890625 298 454.37890625 388 444.37890625 476 c 0
 440.37890625 524 436.37890625 576 432.37890625 624 c 0
 432.37890625 640 440.37890625 656 456.37890625 656 c 0
EndSplineSet
EndChar

StartChar: four.ss01
Encoding: 1114176 -1 163
Width: 429
VWidth: 0
Flags: HW
LayerCount: 2
Back
Fore
SplineSet
301.037109375 332 m 1
 295.037109375 356 303.037109375 388 303.037109375 414 c 0
 305.037109375 478 311.037109375 544 311.037109375 608 c 0
 311.037109375 632 311.037109375 690 351.037109375 670 c 0
 375.037109375 658 367.037109375 610 367.037109375 588 c 0
 363.037109375 508 359.037109375 422 359.037109375 342 c 1
 379.037109375 346 401.037109375 338 399.037109375 314 c 0
 397.037109375 288 361.037109375 290 359.037109375 270 c 0
 351.037109375 202 357.037109375 132 357.037109375 64 c 0
 357.037109375 40 365.037109375 2 355.037109375 -22 c 0
 347.037109375 -42 317.037109375 -44 307.037109375 -24 c 0
 295.037109375 -2 299.037109375 42 299.037109375 66 c 0
 299.037109375 94 299.037109375 118 299.037109375 146 c 0
 299.037109375 188 299.037109375 230 299.037109375 272 c 1
 235.037109375 272 173.037109375 268 109.037109375 266 c 0
 85.037109375 266 49.037109375 268 35.037109375 292 c 0
 19.037109375 320 45.037109375 356 59.037109375 380 c 0
 97.037109375 444 137.037109375 504 171.037109375 570 c 0
 179.037109375 588 187.037109375 606 195.037109375 626 c 0
 199.037109375 638 203.037109375 648 213.037109375 656 c 0
 231.037109375 668 255.037109375 654 255.037109375 634 c 0
 255.037109375 602 231.037109375 562 217.037109375 534 c 0
 203.037109375 506 189.037109375 480 173.037109375 454 c 0
 149.037109375 410 117.037109375 370 97.037109375 326 c 1
 243.037109375 328 l 1
 301.037109375 332 l 1
EndSplineSet
EndChar

StartChar: endash.ss01
Encoding: 1114177 -1 164
Width: 358
VWidth: 0
Flags: HW
LayerCount: 2
Back
Fore
SplineSet
251.041992188 380 m 0
 267.041992188 380 299.041992188 384 315.041992188 376 c 0
 333.041992188 364 333.041992188 338 313.041992188 328 c 0
 293.041992188 318 263.041992188 320 243.041992188 320 c 0
 191.041992188 318 137.041992188 314 85.0419921875 314 c 0
 63.0419921875 314 23.0419921875 310 31.0419921875 346 c 0
 35.0419921875 370 65.0419921875 370 85.0419921875 370 c 0
 141.041992188 374 195.041992188 376 251.041992188 380 c 0
EndSplineSet
EndChar

StartChar: slash.ss01
Encoding: 1114178 -1 165
Width: 480
VWidth: 0
Flags: HW
LayerCount: 2
Back
Fore
SplineSet
414.103515625 664 m 0
 436.103515625 668 450.103515625 648 450.103515625 628 c 0
 448.103515625 588 420.103515625 550 404.103515625 518 c 0
 330.103515625 370 246.103515625 224 162.103515625 82 c 0
 142.103515625 48 122.103515625 14 98.103515625 -18 c 0
 90.103515625 -30 76.103515625 -48 60.103515625 -48 c 0
 40.103515625 -48 24.103515625 -30 32.103515625 -12 c 0
 36.103515625 2 52.103515625 14 60.103515625 26 c 0
 74.103515625 46 86.103515625 68 98.103515625 88 c 0
 180.103515625 228 256.103515625 372 336.103515625 514 c 0
 356.103515625 548 378.103515625 584 390.103515625 620 c 0
 396.103515625 638 390.103515625 658 414.103515625 664 c 0
EndSplineSet
EndChar

